SplineFontDB: 3.0
FontName: SeymourOne
FullName: Seymour One
FamilyName: Seymour One
Weight: Book
Copyright: Copyright (c) 2011-12 by vernon adams. All rights reserved.
Version: 1.000
ItalicAngle: 0
UnderlinePosition: 0
UnderlineWidth: 0
Ascent: 1638
Descent: 410
sfntRevision: 0x00010000
LayerCount: 2
Layer: 0 1 "Back"  1
Layer: 1 1 "Fore"  0
XUID: [1021 14 500265001 13015335]
FSType: 0
OS2Version: 1
OS2_WeightWidthSlopeOnly: 0
OS2_UseTypoMetrics: 1
CreationTime: 1349723122
ModificationTime: 1349894688
PfmFamily: 17
TTFWeight: 400
TTFWidth: 5
LineGap: 0
VLineGap: 0
Panose: 2 0 5 3 0 0 0 0 0 0
OS2TypoAscent: 2015
OS2TypoAOffset: 0
OS2TypoDescent: -559
OS2TypoDOffset: 0
OS2TypoLinegap: 0
OS2WinAscent: 2015
OS2WinAOffset: 0
OS2WinDescent: 559
OS2WinDOffset: 0
HheadAscent: 2015
HheadAOffset: 0
HheadDescent: -559
HheadDOffset: 0
OS2SubXSize: 1331
OS2SubYSize: 1433
OS2SubXOff: 0
OS2SubYOff: 286
OS2SupXSize: 1331
OS2SupYSize: 1433
OS2SupXOff: 0
OS2SupYOff: 983
OS2StrikeYSize: 102
OS2StrikeYPos: 530
OS2Vendor: 'newt'
OS2CodePages: 80000097.00000000
OS2UnicodeRanges: a00002ef.5000204b.00000000.00000000
Lookup: 258 0 0 "'kern' Horizontal Kerning lookup 0"  {"'kern' Horizontal Kerning lookup 0 per glyph data 0"  "'kern' Horizontal Kerning lookup 0 kerning class 1"  } ['kern' ('DFLT' <'dflt' > 'cyrl' <'dflt' > 'latn' <'dflt' > ) ]
MarkAttachClasses: 1
DEI: 91125
KernClass2: 36 35 "'kern' Horizontal Kerning lookup 0 kerning class 1" 
 66 A Agrave Aacute Acircumflex Atilde Adieresis Aring uni0200 uni0202
 1 B
 10 C Ccedilla
 1 D
 1 F
 8 G Gbreve
 1 J
 1 K
 1 L
 60 O Ograve Oacute Ocircumflex Otilde Odieresis uni020C uni020E
 1 P
 17 R uni0210 uni0212
 30 S Scedilla Scaron Scommaaccent
 9 T uni021A
 53 U Ugrave Uacute Ucircumflex Udieresis uni0214 uni0216
 1 V
 1 W
 18 Y Yacute Ydieresis
 66 a agrave aacute acircumflex atilde adieresis aring uni0201 uni0203
 1 b
 53 e egrave eacute ecircumflex edieresis uni0205 uni0207
 1 f
 8 g gbreve
 1 h
 1 k
 1 m
 8 n ntilde

StartChar: .notdef
Encoding: 65536 -1 0
Width: 748
Flags: W
LayerCount: 2
Fore
SplineSet
68 0 m 1,0,-1
 68 1365 l 1,1,-1
 612 1365 l 1,2,-1
 612 0 l 1,3,-1
 68 0 l 1,0,-1
136 68 m 1,4,-1
 544 68 l 1,5,-1
 544 1297 l 1,6,-1
 136 1297 l 1,7,-1
 136 68 l 1,4,-1
EndSplineSet
EndChar

StartChar: exclam
Encoding: 33 33 4
Width: 1179
Flags: W
LayerCount: 2
Fore
SplineSet
276 387 m 1,0,-1
 759 378 l 1,1,2
 748 241 748 241 723 -1 c 1,3,4
 713 -3 713 -3 237 -3 c 1,5,-1
 276 387 l 1,0,-1
352 1634 m 2,6,-1
 1118 1638 l 1,7,-1
 705 570 l 1,8,-1
 369 570 l 1,9,-1
 319 1601 l 1,10,11
 320 1634 320 1634 352 1634 c 2,6,-1
EndSplineSet
EndChar

StartChar: quotedbl
Encoding: 34 34 5
Width: 1199
Flags: W
LayerCount: 2
Fore
SplineSet
954 723 m 2,0,-1
 738 721 l 2,1,2
 716 722 716 722 714 806 c 0,3,4
 705 1097 705 1097 691 1387 c 1,5,-1
 683 1448 l 1,6,-1
 1125 1450 l 1,7,-1
 1123 1420 l 1,8,-1
 990 783 l 2,9,10
 980 736 980 736 972 728 c 0,11,12
 966 723 966 723 954 723 c 2,0,-1
351 723 m 2,13,-1
 135 721 l 2,14,15
 114 722 114 722 112 806 c 0,16,17
 103 1097 103 1097 88 1387 c 2,18,-1
 85 1448 l 1,19,-1
 546 1450 l 1,20,-1
 543 1420 l 1,21,-1
 380 755 l 2,22,23
 374 729 374 729 366 726 c 128,-1,24
 358 723 358 723 351 723 c 2,13,-1
EndSplineSet
EndChar

StartChar: numbersign
Encoding: 35 35 6
Width: 2006
Flags: W
LayerCount: 2
Fore
SplineSet
878 705 m 1,0,-1
 1118 705 l 1,1,-1
 1141 839 l 1,2,-1
 900 839 l 1,3,-1
 878 705 l 1,0,-1
94 715 m 1,4,-1
 369 715 l 1,5,-1
 385 837 l 1,6,-1
 99 840 l 1,7,-1
 129 1097 l 1,8,-1
 429 1094 l 1,9,-1
 481 1437 l 1,10,-1
 986 1442 l 1,11,-1
 941 1089 l 1,12,-1
 1183 1087 l 1,13,-1
 1234 1436 l 1,14,-1
 1751 1447 l 1,15,-1
 1696 1088 l 1,16,-1
 1948 1088 l 1,17,-1
 1912 842 l 1,18,-1
 1654 842 l 1,19,-1
 1632 712 l 1,20,-1
 1910 712 l 1,21,-1
 1877 445 l 1,22,-1
 1586 445 l 1,23,-1
 1527 -2 l 1,24,-1
 1023 7 l 1,25,-1
 1079 451 l 1,26,-1
 833 453 l 1,27,-1
 761 3 l 1,28,-1
 269 12 l 1,29,-1
 330 455 l 1,30,-1
 62 455 l 1,31,-1
 94 715 l 1,4,-1
EndSplineSet
EndChar

StartChar: dollar
Encoding: 36 36 7
Width: 1593
Flags: W
LayerCount: 2
Fore
SplineSet
1029 -152 m 1,0,-1
 817 -162 l 1,1,-1
 836 119 l 1,2,-1
 673 85 l 1,3,-1
 651 -157 l 1,4,5
 491 -161 491 -161 433 -161 c 1,6,-1
 450 54 l 1,7,8
 290 27 290 27 122 27 c 1,9,-1
 165 326 l 1,10,11
 315 335 315 335 364 355 c 128,-1,12
 413 375 413 375 430.5 400.5 c 128,-1,13
 448 426 448 426 448 465 c 128,-1,14
 448 504 448 504 417 560 c 128,-1,15
 386 616 386 616 349.5 675.5 c 128,-1,16
 313 735 313 735 282 816.5 c 128,-1,17
 251 898 251 898 251 958 c 0,18,19
 251 1069 251 1069 308 1155 c 128,-1,20
 365 1241 365 1241 544 1305 c 1,21,-1
 562 1550 l 1,22,-1
 795 1570 l 1,23,-1
 774 1357 l 1,24,-1
 952 1376 l 1,25,-1
 981 1582 l 1,26,-1
 1212 1593 l 1,27,-1
 1190 1385 l 1,28,29
 1336 1385 1336 1385 1469 1365 c 1,30,-1
 1510 1065 l 1,31,32
 1508 1065 1508 1065 1456 1073 c 128,-1,33
 1404 1081 1404 1081 1338 1081 c 0,34,35
 1153 1081 1153 1081 1153 980 c 0,36,37
 1154 908 1154 908 1266 818 c 0,38,39
 1312 780 1312 780 1358.5 738.5 c 128,-1,40
 1405 697 1405 697 1438 634 c 128,-1,41
 1471 571 1471 571 1471 496 c 0,42,43
 1471 387 1471 387 1359.5 301.5 c 128,-1,44
 1248 216 1248 216 1059 161 c 1,45,-1
 1029 -152 l 1,0,-1
EndSplineSet
EndChar

StartChar: percent
Encoding: 37 37 8
Width: 2729
Flags: W
LayerCount: 2
Fore
SplineSet
1811 74.5 m 128,-1,1
 1675 198 1675 198 1675 378 c 128,-1,2
 1675 558 1675 558 1803 686 c 0,3,4
 1865 748 1865 748 1965 784.5 c 128,-1,5
 2065 821 2065 821 2188.5 821 c 128,-1,6
 2312 821 2312 821 2409 784.5 c 128,-1,7
 2506 748 2506 748 2566 687 c 0,8,9
 2688 562 2688 562 2687.5 384 c 128,-1,10
 2687 206 2687 206 2552 78.5 c 128,-1,11
 2417 -49 2417 -49 2182 -49 c 128,-1,0
 1947 -49 1947 -49 1811 74.5 c 128,-1,1
2015 376 m 0,12,13
 2015 178 2015 178 2185 178 c 0,14,15
 2273 178 2273 178 2316.5 234 c 128,-1,16
 2360 290 2360 290 2360 379.5 c 128,-1,17
 2360 469 2360 469 2317.5 524.5 c 128,-1,18
 2275 580 2275 580 2189 580 c 128,-1,19
 2103 580 2103 580 2059 523.5 c 128,-1,20
 2015 467 2015 467 2015 376 c 0,12,13
847 148 m 1,21,-1
 1605 1531 l 1,22,-1
 2032 1357 l 1,23,-1
 1217 -1 l 1,24,25
 1203 -1 1203 -1 1086.5 52 c 128,-1,26
 970 105 970 105 847 148 c 1,21,-1
230 692.5 m 128,-1,28
 95 822 95 822 95 1008.5 c 128,-1,29
 95 1195 95 1195 227.5 1331 c 128,-1,30
 360 1467 360 1467 618 1467 c 0,31,32
 741 1467 741 1467 838.5 1429.5 c 128,-1,33
 936 1392 936 1392 996 1329 c 0,34,35
 1119 1200 1119 1200 1119 1015 c 128,-1,36
 1119 830 1119 830 983.5 696.5 c 128,-1,37
 848 563 848 563 606.5 563 c 128,-1,27
 365 563 365 563 230 692.5 c 128,-1,28
748 1166.5 m 128,-1,39
 702 1225 702 1225 611 1225 c 128,-1,40
 520 1225 520 1225 473.5 1166 c 128,-1,41
 427 1107 427 1107 427 1010 c 0,42,43
 427 806 427 806 606 806 c 0,44,45
 701 806 701 806 747.5 864 c 128,-1,46
 794 922 794 922 794 1015 c 128,-1,38
 794 1108 794 1108 748 1166.5 c 128,-1,39
EndSplineSet
EndChar

StartChar: ampersand
Encoding: 38 38 9
Width: 1967
Flags: W
LayerCount: 2
Fore
SplineSet
861.5 1173 m 128,-1,1
 825 1141 825 1141 825 1089 c 128,-1,2
 825 1037 825 1037 855 993 c 128,-1,3
 885 949 885 949 934 922 c 1,4,5
 996 949 996 949 1032.5 998.5 c 128,-1,6
 1069 1048 1069 1048 1069 1097.5 c 128,-1,7
 1069 1147 1069 1147 1033 1176 c 128,-1,8
 997 1205 997 1205 947.5 1205 c 128,-1,0
 898 1205 898 1205 861.5 1173 c 128,-1,1
738 408 m 0,9,10
 738 278 738 278 921 278 c 0,11,12
 1010 278 1010 278 1088 335 c 1,13,-1
 820 540 l 1,14,15
 738 477 738 477 738 408 c 0,9,10
577 776 m 1,16,17
 396 905 396 905 396 1096 c 0,18,19
 396 1250 396 1250 536 1362 c 0,20,21
 604 1416 604 1416 710 1448.5 c 128,-1,22
 816 1481 816 1481 944 1481 c 0,23,24
 1172 1481 1172 1481 1309.5 1374.5 c 128,-1,25
 1447 1268 1447 1268 1447 1116 c 0,26,27
 1447 1008 1447 1008 1380.5 902.5 c 128,-1,28
 1314 797 1314 797 1182 714 c 1,29,-1
 1417 562 l 1,30,31
 1489 615 1489 615 1544 674 c 128,-1,32
 1599 733 1599 733 1647 787 c 128,-1,33
 1695 841 1695 841 1698 844 c 1,34,-1
 2002 627 l 1,35,-1
 1730 352 l 1,36,-1
 1891 234 l 1,37,-1
 1833 175 l 2,38,39
 1648 -13 1648 -13 1611 -63 c 1,40,-1
 1389 91 l 1,41,42
 1310 37 1310 37 1156.5 -4 c 128,-1,43
 1003 -45 1003 -45 853 -45 c 0,44,45
 567 -45 567 -45 406 68.5 c 128,-1,46
 245 182 245 182 245 347 c 0,47,48
 245 464 245 464 329.5 578 c 128,-1,49
 414 692 414 692 577 776 c 1,16,17
EndSplineSet
EndChar

StartChar: quotesingle
Encoding: 39 39 10
Width: 626
Flags: W
LayerCount: 2
Fore
SplineSet
437 722 m 2,0,-1
 221 720 l 2,1,2
 200 720 200 720 200 784 c 1,3,-1
 173 1399 l 1,4,5
 173 1426 173 1426 179.5 1436.5 c 128,-1,6
 186 1447 186 1447 203 1447 c 2,7,-1
 608 1449 l 2,8,9
 630 1449 630 1449 630 1425 c 1,10,-1
 466 754 l 2,11,12
 460 728 460 728 452 725 c 128,-1,13
 444 722 444 722 437 722 c 2,0,-1
EndSplineSet
EndChar

StartChar: parenleft
Encoding: 40 40 11
Width: 953
Flags: W
LayerCount: 2
Fore
SplineSet
818 132 m 1,0,-1
 818 -175 l 1,1,2
 640 -175 640 -175 450 -68 c 0,3,4
 301 16 301 16 196.5 186 c 128,-1,5
 92 356 92 356 92 625 c 0,6,7
 92 1096 92 1096 360 1342 c 0,8,9
 555 1522 555 1522 876 1534 c 1,10,-1
 874 1226 l 1,11,12
 802 1211 802 1211 743.5 1109.5 c 128,-1,13
 685 1008 685 1008 654.5 866 c 128,-1,14
 624 724 624 724 624 565 c 128,-1,15
 624 406 624 406 671.5 279 c 128,-1,16
 719 152 719 152 818 132 c 1,0,-1
EndSplineSet
EndChar

StartChar: parenright
Encoding: 41 41 12
Width: 955
Flags: W
LayerCount: 2
Fore
SplineSet
157 -180 m 1,0,1
 146 -150 146 -150 146 -22 c 128,-1,2
 146 106 146 106 157 146 c 1,3,4
 247 158 247 158 312 242 c 0,5,6
 435 400 435 400 435 689 c 0,7,8
 435 793 435 793 402 910 c 128,-1,9
 369 1027 369 1027 305 1118.5 c 128,-1,10
 241 1210 241 1210 165 1221 c 1,11,12
 165 1357 165 1357 178 1415.5 c 128,-1,13
 191 1474 191 1474 196.5 1500.5 c 128,-1,14
 202 1527 202 1527 205 1534 c 1,15,16
 591 1522 591 1522 789 1184 c 0,17,18
 909 979 909 979 909 711 c 0,19,20
 908 442 908 442 790 220 c 0,21,22
 657 -30 657 -30 430 -126 c 0,23,24
 304 -180 304 -180 157 -180 c 1,0,1
EndSplineSet
EndChar

StartChar: asterisk
Encoding: 42 42 13
Width: 1456
Flags: W
LayerCount: 2
Fore
SplineSet
418 778 m 1,0,1
 72 1015 72 1015 72 1025 c 128,-1,2
 72 1035 72 1035 120 1107 c 128,-1,3
 168 1179 168 1179 180 1199 c 0,4,5
 235 1291 235 1291 262 1291 c 128,-1,6
 289 1291 289 1291 550 1086 c 1,7,-1
 600 1447 l 2,8,9
 600 1450 600 1450 604 1460 c 1,10,11
 654 1462 654 1462 807.5 1462 c 128,-1,12
 961 1462 961 1462 966 1463 c 1,13,14
 986 1463 986 1463 982 1431 c 2,15,-1
 935 1101 l 1,16,17
 987 1145 987 1145 1040 1190 c 128,-1,18
 1093 1235 1093 1235 1135.5 1269 c 128,-1,19
 1178 1303 1178 1303 1186.5 1303 c 128,-1,20
 1195 1303 1195 1303 1196 1302 c 1,21,-1
 1199 1302 l 1,22,23
 1200 1303 1200 1303 1202 1303 c 128,-1,24
 1204 1303 1204 1303 1294 1175 c 128,-1,25
 1384 1047 1384 1047 1384 1041 c 2,26,-1
 1384 1039 l 2,27,28
 1384 1029 1384 1029 1335 991.5 c 128,-1,29
 1286 954 1286 954 1037 778 c 1,30,-1
 1367 507 l 2,31,32
 1367 506 1367 506 1361 496.5 c 128,-1,33
 1355 487 1355 487 1347 461 c 1,34,35
 1303 401 1303 401 1203 266 c 0,36,37
 1191 251 1191 251 1171 251 c 1,38,-1
 886 438 l 1,39,40
 882 417 882 417 863.5 332.5 c 128,-1,41
 845 248 845 248 841 203.5 c 128,-1,42
 837 159 837 159 835 154 c 128,-1,43
 833 149 833 149 822 149 c 1,44,45
 829 147 829 147 829 138 c 0,46,47
 829 122 829 122 805 122 c 1,48,-1
 514 137 l 1,49,50
 480 137 480 137 480 174.5 c 128,-1,51
 480 212 480 212 483.5 253.5 c 128,-1,52
 487 295 487 295 493 347.5 c 128,-1,53
 499 400 499 400 502 429 c 1,54,55
 485 419 485 419 390 359.5 c 128,-1,56
 295 300 295 300 274 300 c 128,-1,57
 253 300 253 300 233.5 322.5 c 128,-1,58
 214 345 214 345 164.5 398 c 128,-1,59
 115 451 115 451 109 461 c 1,60,61
 102 486 102 486 96 496 c 128,-1,62
 90 506 90 506 90 507 c 2,63,-1
 418 778 l 1,0,1
EndSplineSet
EndChar

StartChar: plus
Encoding: 43 43 14
Width: 1073
Flags: W
LayerCount: 2
Fore
SplineSet
689 120 m 1,0,-1
 366 120 l 1,1,-1
 383 450 l 1,2,-1
 69 450 l 1,3,4
 71 491 71 491 105 754 c 1,5,-1
 419 754 l 1,6,-1
 436 1089 l 1,7,-1
 756 1089 l 1,8,-1
 737 756 l 1,9,-1
 1047 756 l 1,10,11
 1044 694 1044 694 1032 569 c 2,12,-1
 1021 454 l 1,13,-1
 706 454 l 1,14,-1
 689 120 l 1,0,-1
EndSplineSet
EndChar

StartChar: comma
Encoding: 44 44 15
Width: 652
Flags: W
LayerCount: 2
Fore
SplineSet
168 -331 m 0,0,1
 128 -331 128 -331 104 -324 c 1,2,-1
 120 -171 l 1,3,4
 240 -155 240 -155 267 -13 c 1,5,-1
 128 -13 l 1,6,-1
 161 347 l 1,7,-1
 570 347 l 1,8,-1
 549 18 l 2,9,10
 536 -185 536 -185 356 -281 c 0,11,12
 262 -331 262 -331 168 -331 c 0,0,1
EndSplineSet
EndChar

StartChar: hyphen
Encoding: 45 45 16
Width: 1261
Flags: W
LayerCount: 2
Fore
SplineSet
142 887 m 1,0,1
 329 894 329 894 1178 915 c 1,2,-1
 1178 881 l 2,3,4
 1178 856 1178 856 1164 714 c 128,-1,5
 1150 572 1150 572 1142 538 c 1,6,7
 522 526 522 526 233 526 c 2,8,-1
 79 526 l 1,9,-1
 142 887 l 1,0,1
EndSplineSet
EndChar

StartChar: period
Encoding: 46 46 17
Width: 728
Flags: W
LayerCount: 2
Fore
SplineSet
558 348 m 1,0,-1
 558 56 l 1,1,-1
 554 -21 l 1,2,-1
 158 -21 l 1,3,4
 156 17 156 17 156 118 c 2,5,-1
 156 351 l 1,6,-1
 495 351 l 1,7,-1
 558 348 l 1,0,-1
EndSplineSet
EndChar

StartChar: slash
Encoding: 47 47 18
AltUni2: 002215.ffffffff.0
Width: 1310
Flags: W
LayerCount: 2
Fore
SplineSet
1199 1471 m 1,0,-1
 391 -182 l 1,1,-1
 41 -104 l 1,2,3
 649 1146 649 1146 933 1690 c 1,4,-1
 1268 1619 l 1,5,-1
 1232 1549 l 1,6,-1
 1199 1471 l 1,0,-1
EndSplineSet
EndChar

StartChar: zero
Encoding: 48 48 19
Width: 2079
Flags: W
LayerCount: 2
Fore
SplineSet
1953 763 m 0,0,1
 1953 164 1953 164 1391 4 c 0,2,3
 1220 -44 1220 -44 1021 -44.5 c 128,-1,4
 822 -45 822 -45 661 3 c 128,-1,5
 500 51 500 51 381 139.5 c 128,-1,6
 262 228 262 228 194 364 c 128,-1,7
 126 500 126 500 126 672 c 128,-1,8
 126 844 126 844 187 991.5 c 128,-1,9
 248 1139 248 1139 366 1249 c 128,-1,10
 484 1359 484 1359 671 1420 c 128,-1,11
 858 1481 858 1481 1066 1481 c 0,12,13
 1604 1481 1604 1481 1820 1172 c 0,14,15
 1953 981 1953 981 1953 763 c 0,0,1
988 342 m 128,-1,17
 1027 326 1027 326 1085.5 326 c 128,-1,18
 1144 326 1144 326 1192 352 c 0,19,20
 1278 399 1278 399 1306.5 504 c 128,-1,21
 1335 609 1335 609 1335 699 c 128,-1,22
 1335 789 1335 789 1331 833.5 c 128,-1,23
 1327 878 1327 878 1313 933 c 128,-1,24
 1299 988 1299 988 1276.5 1027.5 c 128,-1,25
 1254 1067 1254 1067 1212.5 1094.5 c 128,-1,26
 1171 1122 1171 1122 1109.5 1122 c 128,-1,27
 1048 1122 1048 1122 998 1096 c 0,28,29
 908 1050 908 1050 877.5 948 c 128,-1,30
 847 846 847 846 847 756 c 128,-1,31
 847 666 847 666 849.5 626 c 128,-1,32
 852 586 852 586 860 538 c 128,-1,33
 868 490 868 490 884 455 c 128,-1,34
 900 420 900 420 924.5 389 c 128,-1,16
 949 358 949 358 988 342 c 128,-1,17
EndSplineSet
EndChar

StartChar: one
Encoding: 49 49 20
Width: 1293
Flags: W
LayerCount: 2
Fore
SplineSet
332 -25 m 1,0,1
 337 -1 337 -1 381 473 c 128,-1,2
 425 947 425 947 437 1051 c 1,3,-1
 166 1006 l 1,4,-1
 132 1306 l 1,5,-1
 1096 1438 l 2,6,7
 1096 1437 1096 1437 1095 1436 c 1,8,9
 1105 1436 1105 1436 1105 1427 c 2,10,-1
 1105 1424 l 1,11,12
 1117 1423 1117 1423 1117 1402 c 0,13,14
 1117 1074 1117 1074 1069 610 c 128,-1,15
 1021 146 1021 146 1009 -7 c 1,16,-1
 415 -25 l 1,17,-1
 332 -25 l 1,0,1
EndSplineSet
EndChar

StartChar: two
Encoding: 50 50 21
Width: 1681
Flags: W
LayerCount: 2
Fore
SplineSet
173 18 m 0,0,1
 173 40 173 40 203 82 c 128,-1,2
 233 124 233 124 507 493.5 c 128,-1,3
 781 863 781 863 800 913 c 1,4,5
 811 939 811 939 811 963 c 0,6,7
 811 1057 811 1057 619 1057 c 0,8,9
 490 1057 490 1057 302 1018 c 1,10,-1
 298 1018 l 2,11,12
 285 1018 285 1018 288 1029 c 2,13,-1
 367 1410 l 1,14,15
 427 1429 427 1429 594 1455 c 128,-1,16
 761 1481 761 1481 893 1481 c 0,17,18
 1024 1481 1024 1481 1106 1471 c 0,19,20
 1292 1448 1292 1448 1409 1360.5 c 128,-1,21
 1526 1273 1526 1273 1532 1100 c 1,22,-1
 1532 1085 l 2,23,24
 1532 872 1532 872 1332 580 c 0,25,26
 1259 473 1259 473 1157 348 c 1,27,-1
 1451 357 l 1,28,29
 1496 357 1496 357 1496 345 c 2,30,-1
 1496 344 l 1,31,32
 1492 325 1492 325 1456.5 186 c 128,-1,33
 1421 47 1421 47 1409 -7 c 1,34,-1
 219 -13 l 2,35,36
 173 -13 173 -13 173 18 c 0,0,1
EndSplineSet
EndChar

StartChar: three
Encoding: 51 51 22
Width: 1637
Flags: W
LayerCount: 2
Fore
SplineSet
1553 430 m 0,0,1
 1553 227 1553 227 1364 91 c 128,-1,2
 1175 -45 1175 -45 815 -45 c 0,3,4
 657 -45 657 -45 502 -15.5 c 128,-1,5
 347 14 347 14 251 57 c 1,6,-1
 253 405 l 1,7,8
 447 356 447 356 593 356 c 0,9,10
 661 356 661 356 699.5 395.5 c 128,-1,11
 738 435 738 435 738 487.5 c 128,-1,12
 738 540 738 540 702 577 c 128,-1,13
 666 614 666 614 600 614 c 2,14,-1
 380 614 l 1,15,-1
 411 902 l 1,16,-1
 553 902 l 2,17,18
 635 902 635 902 678 941 c 128,-1,19
 721 980 721 980 721 1034.5 c 128,-1,20
 721 1089 721 1089 682.5 1130 c 128,-1,21
 644 1171 644 1171 580 1171 c 0,22,23
 439 1171 439 1171 241 1121 c 1,24,-1
 241 1422 l 1,25,26
 546 1481 546 1481 755 1481 c 128,-1,27
 964 1481 964 1481 1090.5 1459.5 c 128,-1,28
 1217 1438 1217 1438 1315.5 1394 c 128,-1,29
 1414 1350 1414 1350 1469 1276.5 c 128,-1,30
 1524 1203 1524 1203 1524 1106 c 0,31,32
 1524 921 1524 921 1264 782 c 1,33,34
 1553 674 1553 674 1553 430 c 0,0,1
EndSplineSet
EndChar

StartChar: four
Encoding: 52 52 23
Width: 1956
Flags: W
LayerCount: 2
Fore
SplineSet
723 568 m 1,0,-1
 944 568 l 1,1,-1
 1013 1032 l 1,2,-1
 723 568 l 1,0,-1
1651 581 m 1,3,-1
 1832 585 l 2,4,5
 1868 585 1868 585 1881.5 573 c 128,-1,6
 1895 561 1895 561 1895 556.5 c 128,-1,7
 1895 552 1895 552 1874 408 c 128,-1,8
 1853 264 1853 264 1852.5 252.5 c 128,-1,9
 1852 241 1852 241 1841 236 c 128,-1,10
 1830 231 1830 231 1763 231 c 2,11,-1
 1630 231 l 1,12,-1
 1613 -5 l 1,13,-1
 879 -12 l 1,14,-1
 908 226 l 1,15,-1
 135 226 l 2,16,17
 109 226 109 226 94 236 c 128,-1,18
 79 246 79 246 79 258.5 c 128,-1,19
 79 271 79 271 84 278 c 2,20,-1
 946 1441 l 1,21,-1
 1661 1444 l 2,22,23
 1684 1444 1684 1444 1694.5 1435.5 c 128,-1,24
 1705 1427 1705 1427 1704 1417.5 c 128,-1,25
 1703 1408 1703 1408 1651 581 c 1,3,-1
EndSplineSet
EndChar

StartChar: five
Encoding: 53 53 24
Width: 1554
Flags: W
LayerCount: 2
Fore
SplineSet
945 1098 m 1,0,-1
 784 1100 l 1,1,-1
 784 973 l 1,2,3
 1101 937 1101 937 1219.5 887 c 128,-1,4
 1338 837 1338 837 1389.5 759.5 c 128,-1,5
 1441 682 1441 682 1441 575 c 0,6,7
 1440 468 1440 468 1418 392 c 0,8,9
 1374 242 1374 242 1256 156 c 0,10,11
 1041 -3 1041 -3 597 -32 c 0,12,13
 403 -45 403 -45 161 -45 c 1,14,-1
 163 371 l 2,15,16
 163 372 163 372 224.5 374.5 c 128,-1,17
 286 377 286 377 373.5 386.5 c 128,-1,18
 461 396 461 396 549 414 c 128,-1,19
 637 432 637 432 698.5 472 c 128,-1,20
 760 512 760 512 760 568 c 0,21,22
 760 630 760 630 669 660 c 0,23,24
 537 702 537 702 230 703 c 1,25,-1
 226 749 l 1,26,-1
 265 1439 l 1,27,-1
 1394 1443 l 1,28,-1
 1387 1235 l 2,29,30
 1382 1098 1382 1098 945 1098 c 1,0,-1
EndSplineSet
EndChar

StartChar: six
Encoding: 54 54 25
Width: 2008
Flags: W
LayerCount: 2
Fore
SplineSet
1026 270 m 0,0,1
 1214 270 1214 270 1214 538 c 0,2,3
 1214 656 1214 656 1173 715 c 128,-1,4
 1132 774 1132 774 1036 774 c 0,5,6
 848 774 848 774 848 496 c 0,7,8
 848 270 848 270 1026 270 c 0,0,1
830 1561 m 1,9,10
 888 1548 888 1548 1175.5 1488 c 128,-1,11
 1463 1428 1463 1428 1491 1414 c 1,12,13
 1479 1400 1479 1400 1430 1341.5 c 128,-1,14
 1381 1283 1381 1283 1302 1189.5 c 128,-1,15
 1223 1096 1223 1096 1158 1003 c 1,16,17
 1184 1005 1184 1005 1224 1005 c 2,18,-1
 1291 1005 l 2,19,20
 1438 1005 1438 1005 1557.5 964 c 0,21,22
 1676 922 1676 922 1748 856 c 0,23,24
 1896 719 1896 719 1896 551 c 0,25,26
 1896 268 1896 268 1660 111.5 c 128,-1,27
 1424 -45 1424 -45 965 -45 c 0,28,29
 576 -44 576 -44 350 134 c 0,30,31
 237 223 237 223 184.5 338.5 c 128,-1,32
 132 454 132 454 132 555.5 c 128,-1,33
 132 657 132 657 175 755 c 128,-1,34
 218 853 218 853 319 970 c 2,35,-1
 830 1561 l 1,9,10
EndSplineSet
EndChar

StartChar: seven
Encoding: 55 55 26
Width: 1695
Flags: W
LayerCount: 2
Fore
SplineSet
1338 1445 m 1,0,-1
 1690 1436 l 1,1,2
 1395 827 1395 827 1016 -8 c 1,3,-1
 282 -2 l 1,4,5
 282 2 282 2 341 129.5 c 128,-1,6
 400 257 400 257 558 614 c 2,7,-1
 743 1033 l 1,8,-1
 314 1030 l 2,9,10
 230 1030 230 1030 232 1040 c 2,11,-1
 300 1439 l 1,12,13
 506 1440 506 1440 735.5 1443 c 128,-1,14
 965 1446 965 1446 1104.5 1446 c 128,-1,15
 1244 1446 1244 1446 1338 1445 c 1,0,-1
EndSplineSet
EndChar

StartChar: eight
Encoding: 56 56 27
Width: 2099
Flags: W
LayerCount: 2
Fore
SplineSet
1224 1187.5 m 128,-1,1
 1176 1226 1176 1226 1112.5 1226 c 128,-1,2
 1049 1226 1049 1226 1004 1187 c 128,-1,3
 959 1148 959 1148 959 1080 c 128,-1,4
 959 1012 959 1012 1006.5 976 c 128,-1,5
 1054 940 1054 940 1118 940 c 128,-1,6
 1182 940 1182 940 1227 977 c 128,-1,7
 1272 1014 1272 1014 1272 1081.5 c 128,-1,0
 1272 1149 1272 1149 1224 1187.5 c 128,-1,1
1256 346.5 m 128,-1,9
 1302 399 1302 399 1302 470.5 c 128,-1,10
 1302 542 1302 542 1257.5 594.5 c 128,-1,11
 1213 647 1213 647 1128 647 c 128,-1,12
 1043 647 1043 647 989.5 592 c 128,-1,13
 936 537 936 537 936 465 c 128,-1,14
 936 393 936 393 985.5 343.5 c 128,-1,15
 1035 294 1035 294 1122.5 294 c 128,-1,8
 1210 294 1210 294 1256 346.5 c 128,-1,9
1087 1481 m 0,16,17
 1615 1481 1615 1481 1774 1330 c 0,18,19
 1857 1251 1857 1251 1857 1146 c 0,20,21
 1857 954 1857 954 1669 839 c 1,22,23
 1802 769 1802 769 1876.5 676 c 128,-1,24
 1951 583 1951 583 1951 450 c 0,25,26
 1951 190 1951 190 1714 72.5 c 128,-1,27
 1477 -45 1477 -45 1071 -45 c 0,28,29
 417 -46 417 -46 248 236 c 0,30,31
 198 320 198 320 198 406 c 0,32,33
 198 605 198 605 339 704 c 0,34,35
 423 764 423 764 554 817 c 1,36,37
 357 911 357 911 357 1082 c 0,38,39
 357 1336 357 1336 679 1430 c 0,40,41
 856 1482 856 1482 1087 1481 c 0,16,17
EndSplineSet
EndChar

StartChar: nine
Encoding: 57 57 28
Width: 2024
Flags: W
LayerCount: 2
Fore
SplineSet
1021 1166 m 0,0,1
 833 1166 833 1166 833 898 c 0,2,3
 833 780 833 780 874 721 c 128,-1,4
 915 662 915 662 1011 662 c 0,5,6
 1199 662 1199 662 1199 940 c 0,7,8
 1199 1166 1199 1166 1021 1166 c 0,0,1
1217 -125 m 1,9,10
 1159 -112 1159 -112 871.5 -52 c 128,-1,11
 584 8 584 8 556 22 c 1,12,13
 568 36 568 36 617 94.5 c 128,-1,14
 666 153 666 153 745 246.5 c 128,-1,15
 824 340 824 340 889 433 c 1,16,17
 799 422 799 422 716.5 422 c 128,-1,18
 634 422 634 422 529 452 c 0,19,20
 343 505 343 505 247 630.5 c 128,-1,21
 151 756 151 756 151 885 c 0,22,23
 151 1168 151 1168 387 1324.5 c 128,-1,24
 623 1481 623 1481 1082 1481 c 0,25,26
 1472 1480 1472 1480 1698 1302 c 0,27,28
 1811 1213 1811 1213 1863 1097.5 c 128,-1,29
 1915 982 1915 982 1915 880.5 c 128,-1,30
 1915 779 1915 779 1872 681 c 128,-1,31
 1829 583 1829 583 1728 466 c 2,32,-1
 1217 -125 l 1,9,10
EndSplineSet
EndChar

StartChar: colon
Encoding: 58 58 29
Width: 820
Flags: W
LayerCount: 2
Fore
SplineSet
643 415 m 1,0,-1
 637 4 l 1,1,2
 468 -1 468 -1 261 -1 c 2,3,-1
 201 -1 l 1,4,-1
 199 71 l 1,5,-1
 199 411 l 1,6,-1
 643 415 l 1,0,-1
643 1112 m 1,7,-1
 637 701 l 1,8,9
 468 696 468 696 261 696 c 2,10,-1
 201 696 l 1,11,-1
 199 768 l 1,12,-1
 199 1108 l 1,13,-1
 643 1112 l 1,7,-1
EndSplineSet
EndChar

StartChar: semicolon
Encoding: 59 59 30
Width: 848
Flags: W
LayerCount: 2
Fore
SplineSet
200 386 m 1,0,-1
 575 386 l 2,1,2
 602 386 602 386 624 384 c 1,3,4
 626 350 626 350 626 268 c 2,5,-1
 626 30 l 2,6,7
 626 -112 626 -112 508.5 -242.5 c 128,-1,8
 391 -373 391 -373 171 -411 c 1,9,-1
 171 -262 l 1,10,11
 255 -238 255 -238 327.5 -162.5 c 128,-1,12
 400 -87 400 -87 416 -35 c 1,13,-1
 197 -35 l 1,14,-1
 200 386 l 1,0,-1
643 1112 m 1,15,-1
 637 701 l 1,16,17
 468 696 468 696 261 696 c 2,18,-1
 201 696 l 1,19,-1
 199 768 l 1,20,-1
 199 1108 l 1,21,-1
 643 1112 l 1,15,-1
EndSplineSet
EndChar

StartChar: less
Encoding: 60 60 31
Width: 1076
Flags: W
LayerCount: 2
Fore
SplineSet
128 761 m 1,0,1
 226 808 226 808 542.5 925.5 c 128,-1,2
 859 1043 859 1043 903.5 1060 c 128,-1,3
 948 1077 948 1077 966 1077 c 128,-1,4
 984 1077 984 1077 985 1064 c 0,5,6
 1003 833 1003 833 1024 740 c 1,7,8
 1024 718 1024 718 1012 717 c 1,9,-1
 572 555 l 1,10,11
 595 543 595 543 794.5 442.5 c 128,-1,12
 994 342 994 342 1015 330.5 c 128,-1,13
 1036 319 1036 319 1036 314 c 128,-1,14
 1036 309 1036 309 1034 301 c 1,15,16
 983 211 983 211 909 -10 c 0,17,18
 902 -29 902 -29 884.5 -29 c 128,-1,19
 867 -29 867 -29 846 -17 c 2,20,-1
 146 391 l 1,21,22
 136 401 136 401 136 421 c 0,23,24
 136 550 136 550 126 644.5 c 128,-1,25
 116 739 116 739 116 740 c 2,26,-1
 116 742 l 1,27,28
 118 761 118 761 128 761 c 1,0,1
EndSplineSet
EndChar

StartChar: equal
Encoding: 61 61 32
Width: 979
Flags: W
LayerCount: 2
Fore
SplineSet
444 257 m 2,0,1
 98 257 l 1,2,-1
 104 572 l 1,3,-1
 590 572 l 1,4,-1
 872 576 l 1,5,-1
 874 260 l 1,6,7
 747 257 747 257 444 257 c 2,0,1
235 765 m 2,8,-1
 96 765 l 1,9,-1
 114 1075 l 1,10,-1
 423 1075 l 1,11,-1
 887 1078 l 1,12,-1
 876 774 l 1,13,14
 413 765 413 765 235 765 c 2,8,-1
EndSplineSet
EndChar

StartChar: greater
Encoding: 62 62 33
Width: 1051
Flags: W
LayerCount: 2
Fore
SplineSet
1053 742 m 1,0,1
 1053 737 l 1,2,3
 1033 550 1033 550 1032 421 c 0,4,5
 1032 398 1032 398 1019 389 c 1,6,-1
 322 -17 l 1,7,8
 294 -29 294 -29 280 -29 c 128,-1,9
 266 -29 266 -29 258 -8 c 128,-1,10
 250 13 250 13 213 116 c 128,-1,11
 176 219 176 219 134 301 c 1,12,13
 132 309 132 309 132 315 c 0,14,15
 132 322 132 322 153 332 c 0,16,17
 504 508 504 508 596 555 c 1,18,-1
 156 717 l 1,19,20
 144 718 144 718 144 740 c 1,21,22
 165 833 165 833 183 1064 c 0,23,24
 184 1077 184 1077 202 1077 c 128,-1,25
 220 1077 220 1077 264.5 1060 c 128,-1,26
 309 1043 309 1043 625.5 925.5 c 128,-1,27
 942 808 942 808 1040 761 c 1,28,29
 1051 761 1051 761 1053 742 c 1,0,1
EndSplineSet
EndChar

StartChar: question
Encoding: 63 63 34
Width: 1531
Flags: W
LayerCount: 2
Fore
SplineSet
1010 -45 m 1,0,-1
 648 -49 l 1,1,-1
 650 274 l 1,2,-1
 1008 276 l 1,3,-1
 1010 -45 l 1,0,-1
274 866 m 1,4,5
 229 934 229 934 229 1018 c 0,6,7
 229 1194 229 1194 342 1299.5 c 128,-1,8
 455 1405 455 1405 601 1443.5 c 128,-1,9
 747 1482 747 1482 883 1482 c 0,10,11
 1144 1482 1144 1482 1303.5 1357.5 c 128,-1,12
 1463 1233 1463 1233 1463 1014 c 0,13,14
 1463 868 1463 868 1365 738.5 c 128,-1,15
 1267 609 1267 609 1091.5 520 c 128,-1,16
 916 431 916 431 698 403 c 1,17,-1
 589 613 l 1,18,19
 973 775 973 775 973 993 c 0,20,21
 973 1059 973 1059 931.5 1099 c 128,-1,22
 890 1139 890 1139 822 1139 c 128,-1,23
 754 1139 754 1139 708 1109.5 c 128,-1,24
 662 1080 662 1080 662 1030 c 0,25,26
 662 1009 662 1009 670.5 982 c 128,-1,27
 679 955 679 955 679 954 c 2,28,-1
 274 866 l 1,4,5
EndSplineSet
EndChar

StartChar: at
Encoding: 64 64 35
Width: 1951
Flags: W
LayerCount: 2
Fore
SplineSet
1407 234 m 0,0,1
 1155 234 1155 234 1102 435 c 1,2,3
 1072 357 1072 357 1006.5 313 c 128,-1,4
 941 269 941 269 885 269 c 0,5,6
 761 269 761 269 674.5 352.5 c 128,-1,7
 588 436 588 436 588 590 c 2,8,-1
 588 612 l 1,9,10
 597 809 597 809 712.5 936.5 c 128,-1,11
 828 1064 828 1064 985 1064 c 0,12,13
 1032 1064 1032 1064 1076.5 1038 c 128,-1,14
 1121 1012 1121 1012 1138 970 c 1,15,-1
 1177 1056 l 1,16,-1
 1395 1046 l 1,17,-1
 1329 564 l 2,18,19
 1328 557 1328 557 1328 502 c 128,-1,20
 1328 447 1328 447 1358.5 413.5 c 128,-1,21
 1389 380 1389 380 1432 380 c 0,22,23
 1504 380 1504 380 1559 472 c 128,-1,24
 1614 564 1614 564 1614 751 c 0,25,26
 1614 1004 1614 1004 1474.5 1144 c 128,-1,27
 1335 1284 1335 1284 1080 1284 c 0,28,29
 925 1284 925 1284 793.5 1227 c 128,-1,30
 662 1170 662 1170 574 1074 c 0,31,32
 388 870 388 870 388 582 c 0,33,34
 388 420 388 420 476.5 290 c 128,-1,35
 565 160 565 160 723 86.5 c 128,-1,36
 881 13 881 13 1080 13 c 1,37,-1
 1022 -163 l 1,38,39
 835 -164 835 -164 682 -118 c 0,40,41
 408 -36 408 -36 260 178 c 0,42,43
 132 363 132 363 132 592 c 0,44,45
 132 749 132 749 184 890 c 0,46,47
 282 1155 282 1155 537.5 1318 c 128,-1,48
 793 1481 793 1481 1109 1481 c 0,49,50
 1321 1481 1321 1481 1485.5 1391 c 128,-1,51
 1650 1301 1650 1301 1741.5 1134.5 c 128,-1,52
 1833 968 1833 968 1833 750 c 0,53,54
 1833 608 1833 608 1781.5 490.5 c 128,-1,55
 1730 373 1730 373 1630 303.5 c 128,-1,56
 1530 234 1530 234 1407 234 c 0,0,1
1060 493 m 1,57,-1
 1106 837 l 1,58,59
 1090 852 1090 852 1051 867 c 128,-1,60
 1012 882 1012 882 985 882 c 0,61,62
 909 882 909 882 856 799 c 128,-1,63
 803 716 803 716 803 632 c 0,64,65
 803 456 803 456 941 455 c 0,66,67
 962 455 962 455 999.5 466 c 128,-1,68
 1037 477 1037 477 1060 493 c 1,57,-1
EndSplineSet
EndChar

StartChar: A
Encoding: 65 65 36
Width: 2276
Flags: W
LayerCount: 2
Fore
SplineSet
1226 540 m 1,0,1
 1117 891 1117 891 1083 1021 c 1,2,3
 1027 845 1027 845 972 703 c 128,-1,4
 917 561 917 561 909 540 c 1,5,-1
 1226 540 l 1,0,1
759 173 m 1,6,-1
 684 -15 l 1,7,8
 633 -22 633 -22 583 -22 c 128,-1,9
 533 -22 533 -22 71 0 c 1,10,11
 186 241 186 241 711 1430 c 1,12,13
 774 1432 774 1432 992.5 1441.5 c 128,-1,14
 1211 1451 1211 1451 1373 1451 c 128,-1,15
 1535 1451 1535 1451 1596 1431 c 1,16,17
 1602 1411 1602 1411 2121 205 c 1,18,-1
 2205 9 l 1,19,20
 1569 -30 1569 -30 1556.5 -30 c 128,-1,21
 1544 -30 1544 -30 1427 -24 c 1,22,23
 1382 57 1382 57 1350 165 c 1,24,25
 1286 173 1286 173 759 173 c 1,6,-1
EndSplineSet
EndChar

StartChar: B
Encoding: 66 66 37
Width: 2365
Flags: W
LayerCount: 2
Fore
SplineSet
974 627 m 1,0,-1
 949 281 l 1,1,2
 1175 281 1175 281 1313.5 311.5 c 128,-1,3
 1452 342 1452 342 1508 378 c 128,-1,4
 1564 414 1564 414 1564 460 c 0,5,6
 1564 559 1564 559 1420 593 c 128,-1,7
 1276 627 1276 627 974 627 c 1,0,-1
1117 858 m 2,8,9
 1509 858 1509 858 1509 1020 c 1,10,11
 1506 1161 1506 1161 1103 1161 c 0,12,13
 1067 1161 1067 1161 1014 1154 c 1,14,15
 1002 1050 1002 1050 992 858 c 1,16,-1
 1117 858 l 2,8,9
1867 820 m 1,17,18
 2235 761 2235 761 2235 461 c 0,19,20
 2235 90 2235 90 1557 2 c 0,21,22
 1352 -24 1352 -24 1130 -24.5 c 128,-1,23
 908 -25 908 -25 616 -17.5 c 128,-1,24
 324 -10 324 -10 238 -4 c 1,25,26
 204 5 204 5 204 35 c 2,27,-1
 204 43 l 1,28,29
 223 421 223 421 265 1022 c 1,30,-1
 297 1451 l 1,31,32
 572 1462 572 1462 1256 1462 c 0,33,34
 1686 1462 1686 1462 1929.5 1371.5 c 128,-1,35
 2173 1281 2173 1281 2173 1104 c 0,36,37
 2173 1019 2173 1019 2082 934.5 c 128,-1,38
 1991 850 1991 850 1867 820 c 1,17,18
EndSplineSet
EndChar

StartChar: C
Encoding: 67 67 38
Width: 1742
Flags: W
LayerCount: 2
Fore
SplineSet
133 704 m 0,0,1
 133 1056 133 1056 411 1249 c 0,2,3
 744 1481 744 1481 1343 1481 c 0,4,5
 1447 1481 1447 1481 1536 1471 c 1,6,-1
 1536 997 l 1,7,8
 1405 1015 1405 1015 1252.5 1015 c 128,-1,9
 1100 1015 1100 1015 1001.5 942 c 128,-1,10
 903 869 903 869 903 710 c 0,11,12
 903 374 903 374 1262 374 c 0,13,14
 1353 374 1353 374 1536 409 c 1,15,-1
 1536 -30 l 1,16,17
 1400 -45 1400 -45 1258 -45 c 0,18,19
 523 -45 523 -45 253 307 c 0,20,21
 133 463 133 463 133 704 c 0,0,1
EndSplineSet
EndChar

StartChar: D
Encoding: 68 68 39
Width: 2319
Flags: W
LayerCount: 2
Fore
SplineSet
955 1064 m 1,0,-1
 922 360 l 1,1,2
 1186 363 1186 363 1292 405 c 0,3,4
 1490 482 1490 482 1490 718 c 0,5,6
 1490 913 1490 913 1390 992.5 c 128,-1,7
 1290 1072 1290 1072 1172 1072 c 0,8,9
 1095 1072 1095 1072 955 1064 c 1,0,-1
153 -22 m 1,10,11
 172 96 172 96 211.5 537.5 c 128,-1,12
 251 979 251 979 267 1409 c 1,13,14
 889 1461 889 1461 1287 1461 c 0,15,16
 1781 1461 1781 1461 2018 1230 c 0,17,18
 2188 1064 2188 1064 2188 783 c 0,19,20
 2188 360 2188 360 1946 178 c 0,21,22
 1781 54 1781 54 1464.5 16 c 128,-1,23
 1148 -22 1148 -22 576 -22 c 2,24,-1
 153 -22 l 1,10,11
EndSplineSet
EndChar

StartChar: E
Encoding: 69 69 40
Width: 2048
Flags: W
LayerCount: 2
Fore
SplineSet
1955 -9 m 1,0,-1
 1318 -9 l 1,1,-1
 175 -1 l 1,2,-1
 192 351 l 2,3,4
 243 1410 243 1410 243 1437 c 1,5,6
 363 1442 363 1442 400 1442 c 2,7,-1
 1412 1442 l 2,8,9
 1749 1442 1749 1442 1957 1446 c 1,10,-1
 1916 1069 l 1,11,12
 1674 1047 1674 1047 952 1047 c 1,13,14
 949 1023 949 1023 945.5 966 c 128,-1,15
 942 909 942 909 940 880 c 1,16,17
 1228 885 1228 885 1342 885 c 1,18,-1
 1562 879 l 1,19,20
 1562 835 1562 835 1548.5 727 c 128,-1,21
 1535 619 1535 619 1519 560 c 1,22,23
 1503 556 1503 556 1270 556 c 2,24,-1
 927 556 l 1,25,-1
 916 361 l 1,26,-1
 1966 349 l 1,27,28
 1966 160 1966 160 1960.5 79.5 c 128,-1,29
 1955 -1 1955 -1 1955 -9 c 1,0,-1
EndSplineSet
EndChar

StartChar: F
Encoding: 70 70 41
Width: 1912
Flags: W
LayerCount: 2
Fore
SplineSet
906 0 m 1,0,1
 177 -6 l 1,2,3
 178 48 178 48 183.5 163 c 128,-1,4
 189 278 189 278 190 324 c 2,5,-1
 210 1439 l 1,6,-1
 1178 1439 l 1,7,-1
 1816 1449 l 1,8,9
 1903 1449 1903 1449 1951 1437 c 1,10,11
 1951 1411 1951 1411 1941.5 1347.5 c 128,-1,12
 1932 1284 1932 1284 1929 1254 c 2,13,-1
 1910 1084 l 1,14,15
 1833 1073 1833 1073 1755 1071 c 1,16,17
 949 1061 l 1,18,19
 943 993 943 993 939 834 c 1,20,21
 1436 839 1436 839 1505.5 839 c 128,-1,22
 1575 839 1575 839 1633 827 c 1,23,24
 1633 756 1633 756 1588 529 c 1,25,26
 1451 515 1451 515 1288 514 c 2,27,-1
 925 512 l 1,28,-1
 906 0 l 1,0,1
EndSplineSet
EndChar

StartChar: G
Encoding: 71 71 42
Width: 2198
Flags: W
LayerCount: 2
Fore
SplineSet
1884 978 m 1,0,1
 1633 1040 1633 1040 1405 1040 c 0,2,3
 1038 1040 1038 1040 939 842 c 0,4,5
 909 782 909 782 909 705 c 0,6,7
 909 537 909 537 998 449 c 128,-1,8
 1087 361 1087 361 1240 361 c 0,9,10
 1339 361 1339 361 1405.5 401 c 128,-1,11
 1472 441 1472 441 1503 501 c 1,12,-1
 1265 501 l 1,13,-1
 1278 790 l 1,14,15
 1286 789 1286 789 1641.5 785.5 c 128,-1,16
 1997 782 1997 782 2020 777 c 1,17,-1
 2020 0 l 1,18,-1
 1832 -10 l 1,19,-1
 1802 194 l 1,20,21
 1715 87 1715 87 1511 21 c 128,-1,22
 1307 -45 1307 -45 1132 -45 c 128,-1,23
 957 -45 957 -45 811 -18 c 128,-1,24
 665 9 665 9 539 67.5 c 128,-1,25
 413 126 413 126 321.5 210.5 c 128,-1,26
 230 295 230 295 178 418 c 128,-1,27
 126 541 126 541 126 702 c 128,-1,28
 126 863 126 863 192.5 1000 c 0,29,30
 258 1137 258 1137 370 1226 c 0,31,32
 689 1481 689 1481 1325 1481 c 0,33,34
 1432 1481 1432 1481 1608.5 1462.5 c 128,-1,35
 1785 1444 1785 1444 1884 1419 c 1,36,-1
 1884 978 l 1,0,1
EndSplineSet
EndChar

StartChar: H
Encoding: 72 72 43
Width: 2421
Flags: W
LayerCount: 2
Fore
SplineSet
1519 1440 m 1,0,-1
 1631 1438 l 1,1,-1
 2237 1454 l 1,2,-1
 2201 717 l 1,3,-1
 2180 2 l 1,4,-1
 1462 -11 l 1,5,6
 1462 164 1462 164 1476 432 c 1,7,-1
 942 432 l 1,8,-1
 916 2 l 1,9,-1
 226 -17 l 1,10,11
 226 155 226 155 235 402 c 2,12,-1
 256 966 l 2,13,14
 257 997 257 997 269 1201.5 c 128,-1,15
 281 1406 281 1406 282 1444 c 1,16,17
 438 1453 438 1453 969 1453 c 2,18,-1
 988 1453 l 1,19,-1
 950 943 l 1,20,-1
 1488 943 l 1,21,-1
 1519 1440 l 1,0,-1
EndSplineSet
EndChar

StartChar: I
Encoding: 73 73 44
Width: 1183
Flags: W
LayerCount: 2
Fore
SplineSet
816 1447 m 1,0,-1
 990 1449 l 1,1,2
 994 1424 994 1424 994 1396 c 1,3,-1
 989 1262 l 1,4,-1
 962 10 l 1,5,-1
 771 5 l 1,6,7
 248 0 l 1,8,9
 245 29 245 29 245 74 c 1,10,11
 279 1434 l 1,12,13
 500 1447 500 1447 816 1447 c 1,0,-1
EndSplineSet
EndChar

StartChar: J
Encoding: 74 74 45
Width: 1363
Flags: W
LayerCount: 2
Fore
SplineSet
407 689 m 2,0,-1
 407 1441 l 1,1,2
 551 1447 551 1447 811.5 1447 c 128,-1,3
 1072 1447 1072 1447 1209 1452 c 1,4,-1
 1205 854 l 1,5,6
 1187 500 1187 500 1098 301 c 0,7,8
 1050 194 1050 194 982 120 c 0,9,10
 790 -88 790 -88 298 -129 c 1,11,12
 211 5 211 5 96 236 c 1,13,14
 261 264 261 264 334 372 c 128,-1,15
 407 480 407 480 407 689 c 2,0,-1
EndSplineSet
EndChar

StartChar: K
Encoding: 75 75 46
Width: 2332
Flags: W
LayerCount: 2
Fore
SplineSet
2154 1248 m 1,0,-1
 2154 1251 l 1,1,2
 2158 1248 l 1,3,-1
 2154 1248 l 1,0,-1
858 1450 m 2,4,-1
 955 1450 l 1,5,6
 967 1375 967 1375 967 1279 c 128,-1,7
 967 1183 967 1183 959 1054 c 128,-1,8
 951 925 951 925 950 891 c 1,9,-1
 1365 1415 l 1,10,-1
 1430 1491 l 1,11,12
 1778 1366 1778 1366 2154 1249 c 1,13,-1
 2154 1242 l 1,14,15
 2034 1114 2034 1114 1863 943 c 128,-1,16
 1692 772 1692 772 1637 716 c 1,17,-1
 2293 202 l 1,18,-1
 1738 -27 l 1,19,-1
 1632 -81 l 1,20,-1
 1459 61 l 1,21,22
 1329 170 1329 170 1163.5 320 c 128,-1,23
 998 470 998 470 939 532 c 1,24,-1
 923 76 l 1,25,-1
 923 6 l 1,26,27
 403 -10 403 -10 186 -10 c 1,28,29
 180 76 180 76 180 127 c 1,30,31
 200 789 l 1,32,33
 221 1238 221 1238 221 1310 c 128,-1,34
 221 1382 221 1382 227 1428 c 1,35,36
 272 1434 272 1434 504 1442 c 128,-1,37
 736 1450 736 1450 858 1450 c 2,4,-1
EndSplineSet
EndChar

StartChar: L
Encoding: 76 76 47
Width: 1936
Flags: W
LayerCount: 2
Fore
SplineSet
1829 -6 m 1,0,-1
 422 -6 l 2,1,2
 255 -6 255 -6 168 0 c 1,3,-1
 172 243 l 1,4,-1
 180 570 l 1,5,6
 182 598 182 598 197.5 957.5 c 128,-1,7
 213 1317 213 1317 221 1435 c 1,8,9
 372 1452 372 1452 595.5 1452 c 128,-1,10
 819 1452 819 1452 965 1450 c 1,11,-1
 942 950 l 1,12,13
 940 851 940 851 917 360 c 1,14,-1
 1688 378 l 1,15,16
 1804 378 1804 378 1877 367 c 1,17,18
 1877 303 1877 303 1861 200 c 2,19,-1
 1829 -6 l 1,0,-1
EndSplineSet
EndChar

StartChar: M
Encoding: 77 77 48
Width: 2687
Flags: W
LayerCount: 2
Fore
SplineSet
2561 3 m 1,0,-1
 1939 -9 l 1,1,2
 1901 372 1901 372 1893 518 c 2,3,-1
 1884 676 l 1,4,-1
 1470 21 l 1,5,6
 1214 21 1214 21 1177 23 c 1,7,8
 977 419 977 419 880 635 c 1,9,-1
 807 -4 l 1,10,11
 706 -7 706 -7 515.5 -7 c 128,-1,12
 325 -7 325 -7 134 4 c 1,13,-1
 147 173 l 1,14,15
 163 338 163 338 220 1437 c 1,16,-1
 225 1437 l 2,17,18
 666 1437 666 1437 973 1447 c 1,19,-1
 1009 1370 l 1,20,-1
 1331 779 l 1,21,-1
 1725 1454 l 1,22,-1
 2458 1456 l 1,23,24
 2465 1350 2465 1350 2521 580 c 2,25,-1
 2554 126 l 1,26,-1
 2561 3 l 1,0,-1
EndSplineSet
EndChar

StartChar: N
Encoding: 78 78 49
Width: 2368
Flags: W
LayerCount: 2
Fore
SplineSet
187 1431 m 1,0,-1
 1076 1450 l 1,1,2
 1087 1437 1087 1437 1273 1229.5 c 128,-1,3
 1459 1022 1459 1022 1620 839 c 1,4,-1
 1620 1279 l 1,5,6
 1622 1392 1622 1392 1626 1440 c 1,7,-1
 2222 1447 l 1,8,-1
 2224 958 l 2,9,10
 2224 777 2224 777 2220 455 c 2,11,-1
 2217 228 l 1,12,-1
 2219 62 l 1,13,14
 2198 58 2198 58 2072.5 44.5 c 128,-1,15
 1947 31 1947 31 1532 -45 c 1,16,-1
 787 623 l 1,17,18
 773 76 773 76 773 23 c 2,19,-1
 773 12 l 1,20,21
 722 11 722 11 496.5 1 c 128,-1,22
 271 -9 271 -9 149 -9 c 1,23,24
 154 64 154 64 154 171.5 c 128,-1,25
 154 279 154 279 170.5 597.5 c 128,-1,26
 187 916 187 916 187 1077 c 2,27,-1
 187 1431 l 1,0,-1
EndSplineSet
EndChar

StartChar: O
Encoding: 79 79 50
Width: 2565
Flags: W
LayerCount: 2
Fore
SplineSet
1283 361 m 0,0,1
 1459 361 1459 361 1552.5 456 c 128,-1,2
 1646 551 1646 551 1646 737.5 c 128,-1,3
 1646 924 1646 924 1551 995 c 128,-1,4
 1456 1066 1456 1066 1289 1066 c 128,-1,5
 1122 1066 1122 1066 1024.5 973.5 c 128,-1,6
 927 881 927 881 927 705 c 0,7,8
 927 361 927 361 1283 361 c 0,0,1
126 689 m 0,9,10
 126 1071 126 1071 435.5 1276 c 128,-1,11
 745 1481 745 1481 1293 1481 c 128,-1,12
 1841 1481 1841 1481 2140 1291 c 128,-1,13
 2439 1101 2439 1101 2439 753 c 0,14,15
 2439 376 2439 376 2122 165.5 c 128,-1,16
 1805 -45 1805 -45 1256 -45 c 128,-1,17
 707 -45 707 -45 416.5 150.5 c 128,-1,18
 126 346 126 346 126 689 c 0,9,10
EndSplineSet
EndChar

StartChar: P
Encoding: 80 80 51
Width: 2260
Flags: W
LayerCount: 2
Fore
SplineSet
1306 441 m 1,0,-1
 940 447 l 1,1,-1
 919 9 l 1,2,3
 474 -9 474 -9 359 -9 c 128,-1,4
 244 -9 244 -9 229 -5 c 1,5,6
 232 31 232 31 234 102 c 2,7,-1
 237 270 l 1,8,9
 242 410 242 410 265 1438 c 1,10,11
 786 1468 786 1468 1331 1468 c 0,12,13
 1710 1468 1710 1468 1914 1362 c 0,14,15
 2178 1224 2178 1224 2177 939 c 0,16,17
 2177 441 2177 441 1306 441 c 1,0,-1
1463 946 m 0,18,19
 1463 1039 1463 1039 1398.5 1058 c 128,-1,20
 1334 1077 1334 1077 1221.5 1077 c 128,-1,21
 1109 1077 1109 1077 966 1062 c 1,22,23
 952 905 952 905 952 789 c 1,24,25
 968 783 968 783 1162 783 c 0,26,27
 1463 783 1463 783 1463 946 c 0,18,19
EndSplineSet
EndChar

StartChar: Q
Encoding: 81 81 52
Width: 2516
Flags: W
LayerCount: 2
Fore
SplineSet
1284 361 m 1,0,1
 1288 363 l 1,2,3
 1288 362 l 1,4,5
 1291 362 l 2,6,7
 1538 362 1538 362 1604 594 c 0,8,9
 1622 656 1622 656 1621 727 c 0,10,11
 1621 905 1621 905 1539.5 986 c 128,-1,12
 1458 1067 1458 1067 1285 1067 c 128,-1,13
 1112 1067 1112 1067 1008 975.5 c 128,-1,14
 904 884 904 884 904 706 c 128,-1,15
 904 528 904 528 1007 444.5 c 128,-1,16
 1110 361 1110 361 1284 361 c 1,0,1
1621 -363 m 1,17,18
 1611 -363 1611 -363 1506.5 -193.5 c 128,-1,19
 1402 -24 1402 -24 1398 -19 c 1,20,21
 1234 -44 1234 -44 1096 -44 c 0,22,23
 521 -44 521 -44 264 266 c 0,24,25
 127 431 127 431 127 689 c 0,26,27
 127 1076 127 1076 432.5 1278.5 c 128,-1,28
 738 1481 738 1481 1274 1481 c 0,29,30
 1614 1481 1614 1481 1912 1381 c 0,31,32
 2262 1264 2262 1264 2382 1024 c 0,33,34
 2426 936 2426 936 2431.5 865.5 c 128,-1,35
 2437 795 2437 795 2437 756 c 0,36,37
 2437 187 2437 187 1722 43 c 1,38,-1
 1907 -217 l 1,39,-1
 1621 -363 l 1,17,18
EndSplineSet
EndChar

StartChar: R
Encoding: 82 82 53
Width: 2398
Flags: W
LayerCount: 2
Fore
SplineSet
1477 954 m 0,0,1
 1477 1070 1477 1070 1235 1070 c 0,2,3
 1157 1070 1157 1070 1005 1064 c 1,4,-1
 988 782 l 1,5,6
 1030 787 1030 787 1122.5 795 c 128,-1,7
 1215 803 1215 803 1292 814.5 c 128,-1,8
 1369 826 1369 826 1423 857.5 c 128,-1,9
 1477 889 1477 889 1477 954 c 0,0,1
1511 -86 m 1,10,11
 1474 -17 1474 -17 1364.5 209 c 128,-1,12
 1255 435 1255 435 1218 523 c 1,13,-1
 973 506 l 1,14,-1
 953 9 l 2,15,16
 953 1 953 1 946 0 c 0,17,18
 642 -5 642 -5 492 -10 c 2,19,-1
 258 -18 l 1,20,21
 258 128 258 128 278 646 c 1,22,-1
 284 811 l 1,23,-1
 314 1435 l 2,24,25
 315 1434 315 1434 326 1436 c 0,26,27
 498 1460 498 1460 948 1460 c 128,-1,28
 1398 1460 1398 1460 1514.5 1457.5 c 0,29,30
 1631 1454 1631 1454 1744 1436 c 0,31,32
 2188 1365 2188 1365 2188 1053 c 0,33,34
 2188 878 2188 878 2081.5 777.5 c 128,-1,35
 1975 677 1975 677 1831 629 c 1,36,37
 1895 556 1895 556 2076.5 308.5 c 128,-1,38
 2258 61 2258 61 2292 19 c 1,39,-1
 1511 -86 l 1,10,11
EndSplineSet
EndChar

StartChar: S
Encoding: 83 83 54
Width: 2157
Flags: W
LayerCount: 2
Fore
SplineSet
1348 -29.5 m 128,-1,1
 1201 -45 1201 -45 1010 -45 c 128,-1,2
 819 -45 819 -45 592 -10.5 c 128,-1,3
 365 24 365 24 165 90 c 1,4,5
 169 107 169 107 262 465 c 1,6,7
 262 472 262 472 270 472 c 1,8,9
 450 427 450 427 546 406 c 0,10,11
 801 350 801 350 1091 350 c 0,12,13
 1250 350 1250 350 1250 405 c 0,14,15
 1250 430 1250 430 1234 440.5 c 128,-1,16
 1218 451 1218 451 1178 457 c 128,-1,17
 1138 463 1138 463 1049 476.5 c 128,-1,18
 960 490 960 490 913 498 c 128,-1,19
 866 506 866 506 781 521 c 128,-1,20
 696 536 696 536 651.5 548 c 128,-1,21
 607 560 607 560 537.5 579.5 c 128,-1,22
 468 599 468 599 430 619 c 128,-1,23
 392 639 392 639 342 667 c 128,-1,24
 292 695 292 695 265.5 727 c 0,25,26
 238 759 238 759 212 799 c 0,27,28
 164 872 164 872 164 978 c 0,29,30
 164 1254 164 1254 418 1367.5 c 128,-1,31
 672 1481 672 1481 1172 1481 c 0,32,33
 1378 1481 1378 1481 1592.5 1438 c 128,-1,34
 1807 1395 1807 1395 1907 1346 c 1,35,36
 1851 1134 1851 1134 1808 1004 c 1,37,38
 1689 1037 1689 1037 1464 1069.5 c 128,-1,39
 1239 1102 1239 1102 1064.5 1102 c 128,-1,40
 890 1102 890 1102 890 1046 c 0,41,42
 890 1014 890 1014 934.5 998.5 c 128,-1,43
 979 983 979 983 1147.5 955.5 c 128,-1,44
 1316 928 1316 928 1374 918 c 0,45,46
 1806 844 1806 844 1928 700 c 0,47,48
 2018 593 2018 593 2018.5 470 c 128,-1,49
 2019 347 2019 347 1970.5 260 c 128,-1,50
 1922 173 1922 173 1836 116 c 128,-1,51
 1750 59 1750 59 1622.5 22.5 c 128,-1,0
 1495 -14 1495 -14 1348 -29.5 c 128,-1,1
EndSplineSet
EndChar

StartChar: T
Encoding: 84 84 55
Width: 1972
Flags: W
LayerCount: 2
Fore
SplineSet
1293 4 m 1,0,1
 609 -15 l 1,2,-1
 630 669 l 2,3,4
 638 917 638 917 645 1051 c 1,5,-1
 99 1051 l 1,6,7
 101 1093 101 1093 114 1230 c 128,-1,8
 127 1367 127 1367 138 1437 c 1,9,10
 1065 1449 1065 1449 1426.5 1449 c 128,-1,11
 1788 1449 1788 1449 1921 1446 c 1,12,13
 1890 1180 1890 1180 1850 1051 c 1,14,-1
 1329 1051 l 1,15,-1
 1323 835 l 1,16,17
 1292 108 1292 108 1292 56.5 c 128,-1,18
 1292 5 1292 5 1293 4 c 1,0,1
EndSplineSet
EndChar

StartChar: U
Encoding: 85 85 56
Width: 2435
Flags: W
LayerCount: 2
Fore
SplineSet
1191 -45 m 0,0,1
 818 -45 818 -45 612 10 c 0,2,3
 143 134 143 134 143 592 c 1,4,-1
 149 984 l 1,5,6
 152 1074 152 1074 155.5 1222 c 128,-1,7
 159 1370 159 1370 169 1435 c 1,8,-1
 653 1437 l 1,9,-1
 962 1443 l 1,10,11
 960 1415 960 1415 960 1362 c 128,-1,12
 960 1309 960 1309 959 1285 c 2,13,-1
 927 611 l 1,14,15
 927 490 927 490 1004.5 424 c 128,-1,16
 1082 358 1082 358 1213.5 358 c 128,-1,17
 1345 358 1345 358 1427.5 450 c 128,-1,18
 1510 542 1510 542 1516 710 c 2,19,-1
 1542 1424 l 1,20,21
 1803 1432 1803 1432 2316 1439 c 1,22,23
 2316 1249 2316 1249 2298 921.5 c 128,-1,24
 2280 594 2280 594 2267 545 c 0,25,26
 2202 308 2202 308 2024 176.5 c 128,-1,27
 1846 45 1846 45 1631 0 c 128,-1,28
 1416 -45 1416 -45 1191 -45 c 0,0,1
EndSplineSet
EndChar

StartChar: V
Encoding: 86 86 57
Width: 2032
Flags: W
LayerCount: 2
Fore
SplineSet
1771 1477 m 1,0,-1
 2034 1479 l 1,1,2
 2034 1473 2034 1473 1730.5 838.5 c 128,-1,3
 1427 204 1427 204 1381 112 c 1,4,-1
 1329 -7 l 1,5,6
 1283 -13 1283 -13 1053.5 -20 c 128,-1,7
 824 -27 824 -27 713 -27 c 1,8,9
 625 169 625 169 372.5 749.5 c 128,-1,10
 120 1330 120 1330 113 1348 c 2,11,-1
 69 1459 l 1,12,-1
 558 1480 l 1,13,-1
 815 1480 l 1,14,-1
 1091 711 l 1,15,-1
 1332 1470 l 1,16,-1
 1771 1477 l 1,0,-1
EndSplineSet
EndChar

StartChar: W
Encoding: 87 87 58
Width: 3026
Flags: W
LayerCount: 2
Fore
SplineSet
1819 -17 m 1,0,-1
 1563 673 l 1,1,-1
 1407 162 l 1,2,-1
 1350 -7 l 1,3,4
 1170 -17 1170 -17 678 -17 c 1,5,-1
 179 1199 l 1,6,-1
 96 1449 l 1,7,-1
 583 1464 l 1,8,-1
 843 1470 l 1,9,-1
 1076 711 l 1,10,-1
 1299 1449 l 1,11,-1
 1847 1458 l 1,12,-1
 2110 761 l 1,13,-1
 2334 1451 l 1,14,-1
 3004 1458 l 1,15,-1
 2432 3 l 1,16,17
 2378 -3 2378 -3 2152.5 -10 c 128,-1,18
 1927 -17 1927 -17 1819 -17 c 1,0,-1
EndSplineSet
EndChar

StartChar: X
Encoding: 88 88 59
Width: 2260
Flags: W
LayerCount: 2
Fore
SplineSet
2216 1350 m 1,0,1
 1624 758 1624 758 1595 732 c 1,2,3
 1783 565 1783 565 2197 172 c 1,4,-1
 1783 -23 l 1,5,-1
 1607 -88 l 1,6,-1
 1162 299 l 1,7,-1
 776 -92 l 1,8,-1
 164 123 l 1,9,-1
 316 294 l 1,10,11
 467 467 467 467 725 725 c 1,12,-1
 124 1329 l 1,13,14
 130 1330 130 1330 182 1348 c 0,15,16
 468 1444 468 1444 790 1492 c 1,17,-1
 1159 1130 l 1,18,-1
 1489 1478 l 1,19,-1
 2216 1350 l 1,0,1
EndSplineSet
EndChar

StartChar: Y
Encoding: 89 89 60
Width: 2033
Flags: W
LayerCount: 2
Fore
SplineSet
1336 1444 m 1,0,1
 1354 1447 1354 1447 1700.5 1447 c 128,-1,2
 2047 1447 2047 1447 2047 1442 c 128,-1,3
 2047 1437 2047 1437 2039 1425 c 2,4,-1
 2024 1400 l 1,5,-1
 1398 561 l 1,6,-1
 1372 8 l 1,7,-1
 1233 2 l 1,8,-1
 667 -10 l 1,9,10
 656 58 656 58 656 513 c 1,11,-1
 56 1440 l 1,12,-1
 792 1458 l 1,13,-1
 1065 1052 l 1,14,-1
 1336 1444 l 1,0,1
EndSplineSet
EndChar

StartChar: Z
Encoding: 90 90 61
Width: 1984
Flags: W
LayerCount: 2
Fore
SplineSet
1818 3 m 1,0,-1
 1381 0 l 1,1,-1
 361 0 l 2,2,3
 234 0 234 0 161 5 c 1,4,-1
 161 59 l 1,5,-1
 879 996 l 1,6,7
 301 1002 301 1002 166 1011 c 1,8,-1
 221 1443 l 1,9,10
 381 1450 381 1450 627 1450 c 128,-1,11
 873 1450 873 1450 1265 1445 c 128,-1,12
 1657 1440 1657 1440 1854 1440 c 1,13,14
 1809 1355 1809 1355 1573.5 985.5 c 128,-1,15
 1338 616 1338 616 1191 420 c 1,16,-1
 1494 420 l 1,17,-1
 1732 426 l 1,18,19
 1839 426 1839 426 1885 425 c 1,20,21
 1885 394 1885 394 1857 222.5 c 128,-1,22
 1829 51 1829 51 1818 3 c 1,0,-1
EndSplineSet
EndChar

StartChar: bracketleft
Encoding: 91 91 62
Width: 1424
Flags: W
LayerCount: 2
Fore
SplineSet
893 -171 m 1,0,1
 455 -171 455 -171 167 -156 c 1,2,3
 161 -112 161 -112 161 -22.5 c 128,-1,4
 161 67 161 67 171 371 c 128,-1,5
 181 675 181 675 184 832 c 2,6,-1
 199 1599 l 1,7,-1
 384 1601 l 1,8,-1
 1360 1601 l 1,9,-1
 1349 1236 l 1,10,-1
 936 1226 l 1,11,12
 935 1177 935 1177 924 981 c 128,-1,13
 913 785 913 785 911 671 c 2,14,-1
 901 201 l 1,15,-1
 1013 201 l 2,16,17
 1201 201 1201 201 1291 197 c 1,18,19
 1291 9 1291 9 1285 -169 c 1,20,-1
 893 -171 l 1,0,1
EndSplineSet
EndChar

StartChar: backslash
Encoding: 92 92 63
Width: 1372
Flags: W
LayerCount: 2
Fore
SplineSet
624 1634 m 1,0,1
 751 1292 751 1292 1255 65 c 1,2,-1
 1325 -119 l 1,3,-1
 822 -168 l 1,4,5
 800 -128 800 -128 781.5 -76 c 128,-1,6
 763 -24 763 -24 757 -10 c 2,7,-1
 239 1244 l 2,8,9
 204 1330 204 1330 171 1403 c 1,10,-1
 99 1588 l 1,11,-1
 624 1634 l 1,0,1
EndSplineSet
EndChar

StartChar: bracketright
Encoding: 93 93 64
Width: 1425
Flags: W
LayerCount: 2
Fore
SplineSet
296 -167 m 1,0,-1
 130 -165 l 1,1,-1
 128 29 l 1,2,-1
 133 196 l 1,3,-1
 545 214 l 1,4,5
 546 343 546 343 558 719 c 128,-1,6
 570 1095 570 1095 573 1239 c 1,7,-1
 182 1241 l 1,8,-1
 182 1604 l 1,9,-1
 1307 1604 l 1,10,11
 1314 1550 1314 1550 1314 1439.5 c 128,-1,12
 1314 1329 1314 1329 1302.5 1021 c 128,-1,13
 1291 713 1291 713 1288 596 c 2,14,-1
 1269 -160 l 1,15,-1
 296 -167 l 1,0,-1
EndSplineSet
EndChar

StartChar: asciicircum
Encoding: 94 94 65
Width: 1227
Flags: W
LayerCount: 2
Fore
SplineSet
754 92 m 1,0,1
 702 263 702 263 632 528 c 1,2,-1
 401 88 l 1,3,4
 394 88 394 88 258 125.5 c 128,-1,5
 122 163 122 163 64 176 c 1,6,7
 116 271 116 271 276.5 577.5 c 128,-1,8
 437 884 437 884 496 972 c 1,9,-1
 873 960 l 1,10,-1
 1135 214 l 1,11,-1
 1160 135 l 1,12,-1
 754 92 l 1,0,1
EndSplineSet
EndChar

StartChar: underscore
Encoding: 95 95 66
Width: 1191
Flags: W
LayerCount: 2
Fore
SplineSet
638 291 m 1,0,-1
 1094 294 l 1,1,-1
 1083 -13 l 1,2,-1
 95 -10 l 1,3,-1
 110 291 l 1,4,5
 638 291 l 1,0,-1
EndSplineSet
EndChar

StartChar: grave
Encoding: 96 96 67
Width: 664
Flags: W
LayerCount: 2
Fore
SplineSet
25 1560 m 1,0,1
 371 1670 371 1670 372 1670 c 2,2,-1
 375 1670 l 1,3,-1
 595 1251 l 1,4,-1
 442 1196 l 1,5,-1
 25 1560 l 1,0,1
EndSplineSet
EndChar

StartChar: a
Encoding: 97 97 68
Width: 1808
Flags: W
LayerCount: 2
Fore
SplineSet
1047 27 m 128,-1,1
 926 -37 926 -37 780 -37 c 128,-1,2
 634 -37 634 -37 525 -6.5 c 128,-1,3
 416 24 416 24 323.5 84 c 128,-1,4
 231 144 231 144 175 246 c 128,-1,5
 119 348 119 348 119 483.5 c 128,-1,6
 119 619 119 619 169.5 733.5 c 128,-1,7
 220 848 220 848 306 920 c 0,8,9
 482 1070 482 1070 735 1070 c 0,10,11
 910 1070 910 1070 1021 1026 c 128,-1,12
 1132 982 1132 982 1217 868 c 1,13,-1
 1219 1081 l 1,14,-1
 1671 1043 l 1,15,-1
 1668 24 l 1,16,-1
 1292 -4 l 1,17,-1
 1231 193 l 1,18,0
 1168 91 1168 91 1047 27 c 128,-1,1
705 497.5 m 128,-1,20
 705 404 705 404 762 335.5 c 128,-1,21
 819 267 819 267 925 267 c 128,-1,22
 1031 267 1031 267 1089.5 327.5 c 128,-1,23
 1148 388 1148 388 1148 494 c 128,-1,24
 1148 600 1148 600 1089 663 c 128,-1,25
 1030 726 1030 726 925.5 726 c 128,-1,26
 821 726 821 726 763 658.5 c 128,-1,19
 705 591 705 591 705 497.5 c 128,-1,20
EndSplineSet
EndChar

StartChar: b
Encoding: 98 98 69
Width: 1909
Flags: W
LayerCount: 2
Fore
SplineSet
762 1438 m 1,0,-1
 760 1341 l 2,1,2
 760 1298 760 1298 751.5 1134 c 128,-1,3
 743 970 743 970 742 943 c 1,4,5
 825 1000 825 1000 936.5 1035 c 128,-1,6
 1048 1070 1048 1070 1156 1070 c 0,7,8
 1485 1070 1485 1070 1673 868 c 0,9,10
 1798 733 1798 733 1798 528 c 0,11,12
 1798 414 1798 414 1741.5 309 c 128,-1,13
 1685 204 1685 204 1591.5 128.5 c 128,-1,14
 1498 53 1498 53 1370.5 8 c 128,-1,15
 1243 -37 1243 -37 1089 -37 c 128,-1,16
 935 -37 935 -37 786 22 c 128,-1,17
 637 81 637 81 548 190 c 1,18,-1
 548 194 l 1,19,20
 544 182 544 182 494 104 c 128,-1,21
 444 26 444 26 437.5 23 c 128,-1,22
 431 20 431 20 327 3 c 128,-1,23
 223 -14 223 -14 195 -14 c 128,-1,24
 167 -14 167 -14 143 6 c 1,25,-1
 196 1269 l 1,26,-1
 196 1403 l 1,27,28
 541 1449 541 1449 626.5 1449 c 128,-1,29
 712 1449 712 1449 762 1438 c 1,0,-1
1135 330 m 128,-1,31
 1201 406 1201 406 1201 507.5 c 128,-1,32
 1201 609 1201 609 1137.5 681.5 c 128,-1,33
 1074 754 1074 754 960 754 c 0,34,35
 884 754 884 754 828 716 c 0,36,37
 722 644 722 644 722 503 c 0,38,39
 722 402 722 402 783 328 c 128,-1,40
 844 254 844 254 956.5 254 c 128,-1,30
 1069 254 1069 254 1135 330 c 128,-1,31
EndSplineSet
EndChar

StartChar: c
Encoding: 99 99 70
Width: 1638
Flags: W
LayerCount: 2
Fore
SplineSet
1190 718 m 0,0,1
 742 718 742 718 742 521 c 0,2,3
 742 415 742 415 831.5 357.5 c 128,-1,4
 921 300 921 300 1094.5 300 c 128,-1,5
 1268 300 1268 300 1433 328 c 1,6,-1
 1440 13 l 1,7,8
 1250 -37 1250 -37 1026 -37 c 128,-1,9
 802 -37 802 -37 650 -2.5 c 128,-1,10
 498 32 498 32 412.5 73.5 c 0,11,12
 326 116 326 116 260 172 c 0,13,14
 118 292 118 292 119 492 c 0,15,16
 119 616 119 616 168 716 c 0,17,18
 258 899 258 899 482 984.5 c 128,-1,19
 706 1070 706 1070 976 1070 c 128,-1,20
 1246 1070 1246 1070 1488 1010 c 1,21,-1
 1463 689 l 1,22,23
 1310 718 1310 718 1190 718 c 0,0,1
EndSplineSet
EndChar

StartChar: d
Encoding: 100 100 71
Width: 1898
Flags: W
LayerCount: 2
Fore
SplineSet
1214 942 m 1,0,1
 1219 1213 1219 1213 1232 1425 c 1,2,3
 1263 1426 1263 1426 1488.5 1435.5 c 128,-1,4
 1714 1445 1714 1445 1749 1445 c 2,5,-1
 1752 1445 l 1,6,-1
 1752 38 l 1,7,8
 1742 33 1742 33 1694 25 c 2,9,-1
 1580 6 l 2,10,11
 1514 -5 1514 -5 1475 -15 c 1,12,13
 1362 183 1362 183 1344 220 c 1,14,15
 1200 30 1200 30 980 -17 c 0,16,17
 886 -37 886 -37 736 -37 c 128,-1,18
 586 -37 586 -37 438.5 27.5 c 128,-1,19
 291 92 291 92 205 211.5 c 0,20,21
 119 332 119 332 119 464 c 0,22,23
 119 812 119 812 415 971 c 0,24,25
 599 1070 599 1070 820 1070 c 0,26,27
 929 1070 929 1070 1033.5 1034.5 c 128,-1,28
 1138 999 1138 999 1214 942 c 1,0,1
1122 330 m 128,-1,30
 1188 406 1188 406 1188 507.5 c 128,-1,31
 1188 609 1188 609 1124.5 681.5 c 128,-1,32
 1061 754 1061 754 947 754 c 0,33,34
 872 754 872 754 816 716 c 0,35,36
 710 644 710 644 709 503 c 0,37,38
 709 402 709 402 770 328 c 128,-1,39
 831 254 831 254 943.5 254 c 128,-1,29
 1056 254 1056 254 1122 330 c 128,-1,30
EndSplineSet
EndChar

StartChar: e
Encoding: 101 101 72
Width: 1636
Flags: W
LayerCount: 2
Fore
SplineSet
1048 626 m 1,0,1
 1047 720 1047 720 1004.5 759 c 128,-1,2
 962 798 962 798 880.5 798 c 128,-1,3
 799 798 799 798 749 749.5 c 128,-1,4
 699 701 699 701 687 628 c 1,5,-1
 1048 626 l 1,0,1
1219 -0.5 m 128,-1,7
 1060 -36 1060 -36 910.5 -36 c 128,-1,8
 761 -36 761 -36 657 -22 c 128,-1,9
 553 -8 553 -8 451 28.5 c 128,-1,10
 349 65 349 65 276.5 121.5 c 128,-1,11
 204 178 204 178 159 268.5 c 128,-1,12
 114 359 114 359 114 485.5 c 128,-1,13
 114 612 114 612 160 718 c 128,-1,14
 206 824 206 824 279 889 c 0,15,16
 482 1070 482 1070 867 1070 c 0,17,18
 1050 1070 1050 1070 1215 999.5 c 0,19,20
 1380 928 1380 928 1450 784 c 0,21,22
 1490 703 1490 703 1490 605 c 1,23,-1
 1478 440 l 1,24,-1
 667 444 l 1,25,26
 691 353 691 353 783.5 301 c 128,-1,27
 876 249 876 249 1036 249 c 128,-1,28
 1196 249 1196 249 1405 336 c 1,29,-1
 1459 336 l 1,30,-1
 1440 82 l 1,31,6
 1378 35 1378 35 1219 -0.5 c 128,-1,7
EndSplineSet
EndChar

StartChar: f
Encoding: 102 102 73
Width: 1393
Flags: W
LayerCount: 2
Fore
SplineSet
921 747 m 1,0,1
 894 162 894 162 894 124 c 2,2,-1
 891 -4 l 1,3,-1
 385 -8 l 2,4,5
 339 -8 339 -8 294 -5 c 1,6,-1
 290 84 l 1,7,8
 293 254 293 254 322 745 c 1,9,-1
 182 745 l 2,10,11
 123 745 123 745 104 750 c 1,12,13
 108 855 108 855 126 981 c 1,14,-1
 335 981 l 1,15,16
 352 1383 352 1383 802 1487 c 0,17,18
 940 1519 940 1519 1096 1519 c 128,-1,19
 1252 1519 1252 1519 1410 1498 c 1,20,21
 1410 1339 1410 1339 1398 1176 c 1,22,23
 1314 1188 1314 1188 1239 1188 c 128,-1,24
 1164 1188 1164 1188 1102.5 1173.5 c 128,-1,25
 1041 1159 1041 1159 1005.5 1129 c 128,-1,26
 970 1099 970 1099 952.5 1065.5 c 128,-1,27
 935 1032 935 1032 922 981 c 1,28,-1
 1166 981 l 2,29,30
 1275 981 1275 981 1350 971 c 1,31,32
 1350 871 1350 871 1331 747 c 1,33,-1
 921 747 l 1,0,1
EndSplineSet
EndChar

StartChar: g
Encoding: 103 103 74
Width: 1900
Flags: W
LayerCount: 2
Fore
SplineSet
325 -476 m 1,0,-1
 378 -168 l 1,1,-1
 425 -168 l 1,2,3
 582 -218 582 -218 699.5 -218 c 128,-1,4
 817 -218 817 -218 884 -203 c 0,5,6
 1127 -149 1127 -149 1141 74 c 1,7,8
 988 -10 988 -10 779.5 -10 c 128,-1,9
 571 -10 571 -10 398.5 73 c 128,-1,10
 226 156 226 156 156 310 c 0,11,12
 118 394 118 394 119 491 c 0,13,14
 119 648 119 648 208.5 781.5 c 128,-1,15
 298 915 298 915 453.5 992.5 c 128,-1,16
 609 1070 609 1070 794 1070 c 0,17,18
 1033 1070 1033 1070 1219 944 c 1,19,-1
 1229 1047 l 1,20,-1
 1763 1005 l 1,21,-1
 1708 19 l 2,22,23
 1703 -87 1703 -87 1646 -180 c 0,24,25
 1541 -352 1541 -352 1293 -453 c 128,-1,26
 1045 -554 1045 -554 778.5 -554 c 128,-1,27
 512 -554 512 -554 325 -476 c 1,0,-1
765.5 681 m 128,-1,29
 701 602 701 602 701 500.5 c 128,-1,30
 701 399 701 399 757 329 c 0,31,32
 812 259 812 259 896 259 c 0,33,34
 1048 259 1048 259 1109.5 335 c 128,-1,35
 1171 411 1171 411 1171 512.5 c 128,-1,36
 1171 614 1171 614 1113.5 687 c 128,-1,37
 1056 760 1056 760 943 760 c 128,-1,28
 830 760 830 760 765.5 681 c 128,-1,29
EndSplineSet
EndChar

StartChar: h
Encoding: 104 104 75
Width: 1931
Flags: W
LayerCount: 2
Fore
SplineSet
640 1470 m 1,0,-1
 756 1477 l 1,1,2
 767 1444 767 1444 767 1384 c 128,-1,3
 767 1324 767 1324 747 936 c 1,4,5
 1015 1070 1015 1070 1260 1070 c 128,-1,6
 1505 1070 1505 1070 1658.5 939.5 c 128,-1,7
 1812 809 1812 809 1812 607 c 1,8,-1
 1794 1 l 1,9,-1
 1191 -4 l 1,10,-1
 1212 521 l 1,11,12
 1212 708 1212 708 991 708 c 0,13,14
 832 708 832 708 780 572 c 0,15,16
 738 462 738 462 738 247 c 2,17,-1
 738 11 l 1,18,19
 681 3 681 3 629 1 c 1,20,-1
 135 -1 l 1,21,22
 131 43 131 43 131 96 c 1,23,-1
 178 1430 l 1,24,25
 263 1434 263 1434 640 1470 c 1,0,-1
EndSplineSet
EndChar

StartChar: i
Encoding: 105 105 76
Width: 944
Flags: W
LayerCount: 2
Fore
SplineSet
737 1 m 1,0,1
 310 -5 310 -5 157 4 c 1,2,3
 157 64 157 64 176 490 c 128,-1,4
 195 916 195 916 205 1010 c 1,5,6
 448 1026 448 1026 589.5 1026 c 128,-1,7
 731 1026 731 1026 779 1023 c 1,8,-1
 737 1 l 1,0,1
610 1605 m 0,9,10
 731 1605 731 1605 788.5 1547.5 c 128,-1,11
 846 1490 846 1490 846 1409 c 128,-1,12
 846 1328 846 1328 781 1278 c 0,13,14
 678 1198 678 1198 481 1198 c 128,-1,15
 284 1198 284 1198 237.5 1246 c 128,-1,16
 191 1294 191 1294 191 1370 c 0,17,18
 190 1446 190 1446 246 1501 c 0,19,20
 352 1605 352 1605 610 1605 c 0,9,10
EndSplineSet
EndChar

StartChar: j
Encoding: 106 106 77
Width: 1087
Flags: W
LayerCount: 2
Fore
SplineSet
-63 -439 m 1,0,-1
 -28 -119 l 1,1,2
 48 -123 48 -123 96 -123 c 0,3,4
 203 -123 203 -123 273 -67 c 128,-1,5
 343 -11 343 -11 353 184 c 0,6,7
 371 540 371 540 380 1000 c 1,8,9
 727 1026 727 1026 831.5 1026 c 128,-1,10
 936 1026 936 1026 965 1023 c 1,11,-1
 936 103 l 1,12,13
 920 -202 920 -202 750 -325 c 128,-1,14
 580 -448 580 -448 267 -448 c 0,15,16
 86 -448 86 -448 -63 -439 c 1,0,-1
1026 1410 m 0,17,18
 1026 1340 1026 1340 976 1290 c 0,19,20
 882 1198 882 1198 695 1198 c 128,-1,21
 508 1198 508 1198 439.5 1246.5 c 128,-1,22
 371 1295 371 1295 371 1415 c 0,23,24
 371 1485 371 1485 454 1545.5 c 128,-1,25
 537 1606 537 1606 738 1606 c 0,26,27
 1026 1606 1026 1606 1026 1410 c 0,17,18
EndSplineSet
EndChar

StartChar: k
Encoding: 107 107 78
Width: 1768
Flags: W
LayerCount: 2
Fore
SplineSet
1156 -28 m 1,0,1
 1107 11 1107 11 970.5 193.5 c 128,-1,2
 834 376 834 376 803 412 c 1,3,-1
 718 342 l 1,4,-1
 704 102 l 1,5,-1
 701 -2 l 1,6,-1
 130 -11 l 1,7,-1
 194 1454 l 1,8,9
 692 1482 692 1482 776 1481 c 1,10,-1
 758 1111 l 1,11,12
 740 793 740 793 738 709 c 1,13,-1
 1026 979 l 1,14,-1
 1599 989 l 2,15,16
 1642 989 1642 989 1720 987 c 1,17,-1
 1631 907 l 1,18,-1
 1384 671 l 1,19,20
 1298 598 1298 598 1258 561 c 1,21,22
 1338 476 1338 476 1475 319.5 c 128,-1,23
 1612 163 1612 163 1636 138 c 128,-1,24
 1660 113 1660 113 1693 78 c 128,-1,25
 1726 43 1726 43 1742 27 c 1,26,-1
 1156 -28 l 1,0,1
EndSplineSet
EndChar

StartChar: l
Encoding: 108 108 79
Width: 892
Flags: W
LayerCount: 2
Fore
SplineSet
195 1438 m 1,0,-1
 786 1466 l 1,1,2
 770 1132 770 1132 753.5 655.5 c 128,-1,3
 737 179 737 179 730 -1 c 1,4,-1
 146 -17 l 1,5,-1
 176 928 l 1,6,7
 195 1381 195 1381 195 1438 c 1,0,-1
EndSplineSet
EndChar

StartChar: m
Encoding: 109 109 80
Width: 2822
Flags: W
LayerCount: 2
Fore
SplineSet
2090 499 m 2,0,1
 2090 749 2090 749 1918 749 c 0,2,3
 1825 749 1825 749 1787 702 c 0,4,5
 1711 610 1711 610 1711 323 c 2,6,-1
 1711 9 l 1,7,-1
 1114 -9 l 1,8,-1
 1114 72 l 1,9,-1
 1124 529 l 1,10,11
 1124 667 1124 667 1081.5 718.5 c 128,-1,12
 1039 770 1039 770 942 770 c 0,13,14
 844 770 844 770 800 702 c 0,15,16
 739 610 739 610 740 342 c 1,17,-1
 742 -9 l 1,18,-1
 131 -11 l 1,19,-1
 137 93 l 1,20,21
 147 348 147 348 155 667 c 128,-1,22
 163 986 163 986 163 988 c 1,23,-1
 488 1029 l 1,24,-1
 595 823 l 1,25,26
 762 1070 762 1070 1138 1070 c 0,27,28
 1304 1070 1304 1070 1407.5 1018 c 128,-1,29
 1511 966 1511 966 1593 851 c 1,30,31
 1770 1070 1770 1070 2129 1070 c 0,32,33
 2403 1070 2403 1070 2553 925.5 c 128,-1,34
 2703 781 2703 781 2703 540 c 1,35,-1
 2685 -1 l 1,36,-1
 2090 -11 l 1,37,-1
 2090 499 l 2,0,1
EndSplineSet
EndChar

StartChar: n
Encoding: 110 110 81
Width: 1925
Flags: W
LayerCount: 2
Fore
SplineSet
1143 640.5 m 0,0,1
 1086 709 1086 709 1010 709 c 0,2,3
 815 709 815 709 764 542 c 0,4,5
 733 441 733 441 733 303 c 1,6,-1
 728 0 l 1,7,-1
 131 -10 l 1,8,9
 132 96 132 96 159 958 c 1,10,-1
 494 1029 l 1,11,-1
 601 823 l 1,12,13
 689 952 689 952 846.5 1011 c 128,-1,14
 1004 1070 1004 1070 1183 1070 c 0,15,16
 1424 1070 1424 1070 1586 973 c 0,17,18
 1806 841 1806 841 1807 540 c 0,19,20
 1807 500 1807 500 1800 325.5 c 128,-1,21
 1793 151 1793 151 1789 -3 c 1,22,-1
 1193 -7 l 1,23,-1
 1199 469 l 1,24,25
 1199 572 1199 572 1143 640.5 c 0,0,1
EndSplineSet
EndChar

StartChar: o
Encoding: 111 111 82
Width: 1801
Flags: W
LayerCount: 2
Fore
SplineSet
1084.5 315 m 128,-1,1
 1146 394 1146 394 1146 513 c 128,-1,2
 1146 632 1146 632 1080.5 702.5 c 128,-1,3
 1015 773 1015 773 900 773 c 128,-1,4
 785 773 785 773 726.5 691.5 c 128,-1,5
 668 610 668 610 668 500 c 0,6,7
 668 236 668 236 904 236 c 0,8,0
 1023 236 1023 236 1084.5 315 c 128,-1,1
114 492 m 0,9,10
 114 1070 114 1070 956 1070 c 0,11,12
 1270 1070 1270 1070 1476 928 c 0,13,14
 1576 860 1576 860 1631.5 757 c 128,-1,15
 1687 654 1687 654 1687 539 c 0,16,17
 1687 238 1687 238 1484.5 100.5 c 128,-1,18
 1282 -37 1282 -37 888 -37 c 0,19,20
 114 -37 114 -37 114 492 c 0,9,10
EndSplineSet
EndChar

StartChar: p
Encoding: 112 112 83
Width: 1918
Flags: W
LayerCount: 2
Fore
SplineSet
1139 330 m 128,-1,1
 1205 406 1205 406 1205 507.5 c 128,-1,2
 1205 609 1205 609 1141.5 681.5 c 128,-1,3
 1078 754 1078 754 964 754 c 0,4,5
 888 754 888 754 832 716 c 0,6,7
 726 644 726 644 726 503 c 0,8,9
 726 402 726 402 787 328 c 128,-1,10
 848 254 848 254 960.5 254 c 128,-1,0
 1073 254 1073 254 1139 330 c 128,-1,1
695 -311 m 1,11,12
 277 -353 277 -353 146 -353 c 2,13,-1
 136 -353 l 1,14,15
 133 -236 133 -236 133 -232 c 2,16,-1
 183 994 l 1,17,18
 203 1009 203 1009 264 1018 c 2,19,-1
 496 1053 l 1,20,-1
 604 854 l 1,21,22
 782 1070 782 1070 1196 1070 c 0,23,24
 1367 1070 1367 1070 1507 1004 c 128,-1,25
 1647 938 1647 938 1727 821 c 128,-1,26
 1807 704 1807 704 1807 566.5 c 128,-1,27
 1807 429 1807 429 1750.5 316 c 128,-1,28
 1694 203 1694 203 1599.5 126.5 c 128,-1,29
 1505 50 1505 50 1380.5 6.5 c 128,-1,30
 1256 -37 1256 -37 1130 -37 c 0,31,32
 880 -37 880 -37 709 72 c 1,33,-1
 709 65 l 2,34,35
 709 64 709 64 702 -76 c 128,-1,36
 695 -216 695 -216 695 -311 c 1,11,12
EndSplineSet
EndChar

StartChar: q
Encoding: 113 113 84
Width: 1913
Flags: W
LayerCount: 2
Fore
SplineSet
918 241 m 0,0,1
 1072 241 1072 241 1186 330 c 1,2,3
 1192 437 1192 437 1194 699 c 1,4,5
 1087 760 1087 760 951 760 c 0,6,7
 848 760 848 760 777.5 673 c 128,-1,8
 707 586 707 586 707 474.5 c 128,-1,9
 707 363 707 363 762 302 c 128,-1,10
 817 241 817 241 918 241 c 0,0,1
1175 74 m 1,11,12
 991 -37 991 -37 740.5 -37 c 128,-1,13
 490 -37 490 -37 308 96 c 0,14,15
 220 160 220 160 169.5 259.5 c 0,16,17
 119 358 119 358 119 462 c 0,18,19
 119 763 119 763 404 947 c 0,20,21
 594 1070 594 1070 901 1070 c 128,-1,22
 1208 1070 1208 1070 1581 908 c 1,23,-1
 1668 995 l 1,24,-1
 1723 986 l 2,25,26
 1749 981 1749 981 1786 976 c 1,27,28
 1775 891 1775 891 1758.5 447.5 c 128,-1,29
 1742 4 1742 4 1733 -177 c 1,30,-1
 1733 -295 l 1,31,32
 1708 -298 1708 -298 1656.5 -301.5 c 128,-1,33
 1605 -305 1605 -305 1583 -307 c 1,34,-1
 1333 -347 l 1,35,-1
 1171 -354 l 1,36,37
 1165 -326 1165 -326 1165 -217 c 128,-1,38
 1165 -108 1165 -108 1175 74 c 1,11,12
EndSplineSet
EndChar

StartChar: r
Encoding: 114 114 85
Width: 1263
Flags: W
LayerCount: 2
Fore
SplineSet
249 -9 m 1,0,-1
 150 -11 l 1,1,2
 144 35 144 35 144 56 c 2,3,4
 181 959 l 1,5,-1
 458 1018 l 1,6,-1
 574 817 l 1,7,8
 764 1062 764 1062 955 1062 c 0,9,10
 1034 1062 1034 1062 1118.5 1030 c 128,-1,11
 1203 998 1203 998 1230 962 c 1,12,-1
 1125 672 l 1,13,14
 1014 718 1014 718 907.5 718 c 0,15,16
 802 718 802 718 734 658 c 0,17,18
 730 654 730 654 726 652 c 1,19,-1
 724 649 l 1,20,-1
 682 12 l 1,21,-1
 249 -9 l 1,0,-1
EndSplineSet
EndChar

StartChar: s
Encoding: 115 115 86
Width: 1565
Flags: W
LayerCount: 2
Fore
SplineSet
192 334 m 1,0,1
 507 268 507 268 710 268 c 128,-1,2
 913 268 913 268 913 298.5 c 128,-1,3
 913 329 913 329 868.5 343.5 c 128,-1,4
 824 358 824 358 623.5 392 c 128,-1,5
 423 426 423 426 341 458 c 0,6,7
 125 540 125 540 125 705 c 0,8,9
 126 850 126 850 236 930 c 0,10,11
 427 1070 427 1070 856 1070 c 0,12,13
 1113 1070 1113 1070 1363 1007 c 1,14,-1
 1315 727 l 1,15,16
 1247 744 1247 744 1083.5 761 c 128,-1,17
 920 778 920 778 795.5 778 c 128,-1,18
 671 778 671 778 671 744 c 0,19,20
 671 722 671 722 696.5 713 c 128,-1,21
 722 704 722 704 868 685 c 128,-1,22
 1014 666 1014 666 1077 653 c 0,23,24
 1314 605 1314 605 1395 491 c 0,25,26
 1447 419 1447 419 1447 333.5 c 128,-1,27
 1447 248 1447 248 1429 197 c 0,28,29
 1388 82 1388 82 1229.5 22.5 c 128,-1,30
 1071 -37 1071 -37 748 -37 c 0,31,32
 579 -37 579 -37 397 -14.5 c 128,-1,33
 215 8 215 8 126 57 c 1,34,-1
 192 334 l 1,0,1
EndSplineSet
EndChar

StartChar: t
Encoding: 116 116 87
Width: 1535
Flags: W
LayerCount: 2
Fore
SplineSet
1397 44 m 1,0,1
 1300 6 1300 6 1156.5 -15 c 128,-1,2
 1013 -36 1013 -36 887.5 -36 c 128,-1,3
 762 -36 762 -36 651 -7 c 0,4,5
 298 83 298 83 298 419 c 0,6,7
 298 425 298 425 298 430 c 2,8,-1
 298 442 l 1,9,10
 301 471 301 471 304 602.5 c 128,-1,11
 307 734 307 734 309 747 c 1,12,-1
 207 747 l 2,13,14
 120 747 120 747 89 756 c 1,15,-1
 151 985 l 1,16,-1
 333 985 l 1,17,18
 347 1090 347 1090 354.5 1222 c 128,-1,19
 362 1354 362 1354 366 1388 c 1,20,21
 735 1422 735 1422 950 1422 c 0,22,23
 956 1422 956 1422 962 1422 c 1,24,25
 963 1406 963 1406 963 1390 c 2,26,-1
 944 982 l 1,27,-1
 1333 982 l 2,28,29
 1380 982 1380 982 1421 970 c 1,30,-1
 1368 757 l 1,31,32
 1337 747 1337 747 1260 747 c 2,33,-1
 925 747 l 1,34,-1
 915 456 l 1,35,36
 915 360 915 360 962.5 322 c 128,-1,37
 1010 284 1010 284 1101.5 284 c 128,-1,38
 1193 284 1193 284 1361 332 c 0,39,40
 1394 342 1394 342 1399 343 c 1,41,42
 1402 314 1402 314 1402 205 c 128,-1,43
 1402 96 1402 96 1397 44 c 1,0,1
EndSplineSet
EndChar

StartChar: u
Encoding: 117 117 88
Width: 1918
Flags: W
LayerCount: 2
Fore
SplineSet
720 507 m 0,0,1
 720 245 720 245 935 245 c 0,2,3
 1051 244 1051 244 1111 322 c 0,4,5
 1155 380 1155 380 1168 437 c 0,6,7
 1200 576 1200 576 1200 847 c 2,8,-1
 1200 1007 l 1,9,10
 1325 1011 1325 1011 1769 1021 c 1,11,12
 1771 968 1771 968 1771 940 c 1,13,-1
 1721 30 l 1,14,-1
 1406 -17 l 1,15,16
 1340 115 1340 115 1310 190 c 1,17,18
 1211 78 1211 78 1060.5 20.5 c 128,-1,19
 910 -37 910 -37 746 -37 c 0,20,21
 387 -36 387 -36 214 142 c 0,22,23
 118 241 118 241 118 407.5 c 128,-1,24
 118 574 118 574 129 761 c 128,-1,25
 140 948 140 948 141 994 c 1,26,27
 176 997 176 997 328 1002 c 128,-1,28
 480 1007 480 1007 548 1011 c 2,29,-1
 744 1023 l 1,30,31
 720 562 720 562 720 507 c 0,0,1
EndSplineSet
EndChar

StartChar: v
Encoding: 118 118 89
Width: 1672
Flags: W
LayerCount: 2
Fore
SplineSet
452 90 m 1,0,1
 227 695 227 695 94 996 c 1,2,3
 611 1018 611 1018 639.5 1018 c 128,-1,4
 668 1018 668 1018 670 1018 c 1,5,-1
 696 928 l 1,6,7
 788 619 788 619 851 404 c 1,8,9
 1045 912 1045 912 1096 1016 c 1,10,11
 1141 1018 1141 1018 1273.5 1018 c 128,-1,12
 1406 1018 1406 1018 1637 1009 c 1,13,-1
 1559 864 l 1,14,-1
 1111 0 l 1,15,16
 807 -11 807 -11 568 -11 c 1,17,-1
 493 -9 l 1,18,-1
 452 90 l 1,0,1
EndSplineSet
EndChar

StartChar: w
Encoding: 119 119 90
Width: 2355
Flags: W
LayerCount: 2
Fore
SplineSet
1941 162 m 128,-1,1
 1925 120 1925 120 1906 73 c 128,-1,2
 1887 26 1887 26 1877 -2 c 1,3,4
 1569 -11 1569 -11 1433.5 -11 c 128,-1,5
 1298 -11 1298 -11 1262 -12 c 1,6,7
 1243 90 1243 90 1169 458 c 1,8,-1
 1053 13 l 1,9,10
 709 -5 709 -5 544 -5 c 2,11,-1
 433 -5 l 1,12,13
 225 682 225 682 115 995 c 1,14,15
 165 996 165 996 234 998 c 128,-1,16
 303 1000 303 1000 354 1001 c 128,-1,17
 405 1002 405 1002 457 1004 c 2,18,-1
 557 1009 l 1,19,20
 622 1009 622 1009 668 1012 c 1,21,-1
 779 388 l 1,22,-1
 912 892 l 1,23,-1
 942 1015 l 1,24,-1
 1264 1018 l 2,25,26
 1367 1018 1367 1018 1466 1012 c 1,27,28
 1495 868 1495 868 1603 394 c 1,29,-1
 1754 1012 l 1,30,-1
 1890 1022 l 1,31,-1
 2274 1024 l 1,32,33
 2188 822 2188 822 2072.5 513 c 128,-1,0
 1957 204 1957 204 1941 162 c 128,-1,1
EndSplineSet
EndChar

StartChar: x
Encoding: 120 120 91
Width: 1869
Flags: W
LayerCount: 2
Fore
SplineSet
1784 -1 m 1,0,-1
 1194 -14 l 1,1,2
 1143 -14 1143 -14 1070 -19 c 1,3,4
 1050 -4 1050 -4 998.5 57 c 128,-1,5
 947 118 947 118 899 184 c 1,6,7
 875 157 875 157 765 37 c 2,8,-1
 732 1 l 1,9,10
 687 -2 687 -2 653 -2 c 1,11,12
 116 18 l 1,13,14
 121 23 121 23 150.5 54.5 c 128,-1,15
 180 86 180 86 200 104 c 2,16,-1
 619 478 l 1,17,18
 271 832 271 832 97 978 c 1,19,-1
 837 1044 l 1,20,-1
 870 995 l 1,21,22
 966 863 966 863 990 827 c 1,23,-1
 1115 966 l 1,24,-1
 1155 1017 l 1,25,26
 1197 1018 1197 1018 1286 1018 c 1,27,-1
 1746 1008 l 1,28,29
 1609 907 1609 907 1450 748.5 c 128,-1,30
 1291 590 1291 590 1250 552 c 1,31,-1
 1784 -1 l 1,0,-1
EndSplineSet
EndChar

StartChar: y
Encoding: 121 121 92
Width: 1707
Flags: W
LayerCount: 2
Fore
SplineSet
665 -144 m 1,0,-1
 581 7 l 2,1,2
 497 158 497 158 296 559 c 128,-1,3
 95 960 95 960 71 1000 c 1,4,-1
 655 1025 l 1,5,-1
 936 374 l 1,6,7
 955 425 955 425 1041.5 691 c 128,-1,8
 1128 957 1128 957 1155 1024 c 1,9,10
 1191 1027 1191 1027 1222 1027 c 1,11,12
 1673 1010 l 1,13,14
 1568 758 1568 758 1373.5 313.5 c 0,15,16
 1179 -132 1179 -132 1150 -188 c 0,17,18
 1075 -334 1075 -334 977 -438 c 0,19,20
 765 -664 765 -664 394 -664 c 1,21,-1
 221 -384 l 1,22,23
 281 -384 281 -384 399 -338 c 0,24,25
 626 -248 626 -248 665 -144 c 1,0,-1
EndSplineSet
EndChar

StartChar: z
Encoding: 122 122 93
Width: 1442
Flags: W
LayerCount: 2
Fore
SplineSet
995 373 m 1,0,-1
 1308 380 l 1,1,-1
 1316 374 l 1,2,-1
 1180 0 l 1,3,-1
 314 0 l 1,4,5
 260 4 260 4 157 4 c 1,6,-1
 574 746 l 1,7,-1
 123 735 l 1,8,9
 148 803 148 803 202 923 c 128,-1,10
 256 1043 256 1043 269 1073 c 1,11,-1
 1344 1058 l 1,12,-1
 1344 1050 l 1,13,14
 1241 845 1241 845 995 373 c 1,0,-1
EndSplineSet
EndChar

StartChar: braceleft
Encoding: 123 123 94
Width: 1121
Flags: W
LayerCount: 2
Fore
SplineSet
648 761 m 1,0,1
 865 692 865 692 865 479 c 0,2,3
 865 197 865 197 907 142.5 c 128,-1,4
 949 88 949 88 1040 88 c 1,5,-1
 1031 -111 l 1,6,7
 897 -142 897 -142 781 -142 c 0,8,9
 568 -142 568 -142 450 -35 c 128,-1,10
 332 72 332 72 332 278 c 2,11,-1
 332 301 l 2,12,13
 332 435 332 435 315 488 c 0,14,15
 282 592 282 592 164 592 c 1,16,-1
 164 890 l 1,17,18
 278 890 278 890 314 975 c 0,19,20
 339 1035 339 1035 345.5 1130.5 c 128,-1,21
 352 1226 352 1226 358 1282 c 0,22,23
 371 1401 371 1401 442.5 1482 c 128,-1,24
 514 1563 514 1563 699 1563 c 0,25,26
 724 1563 724 1563 879 1560 c 128,-1,27
 1034 1557 1034 1557 1039 1556 c 1,28,-1
 1072 1302 l 1,29,30
 910 1302 910 1302 868 1199 c 0,31,32
 844 1140 844 1140 835.5 1033.5 c 128,-1,33
 827 927 827 927 814 879 c 128,-1,34
 801 831 801 831 760 798.5 c 128,-1,35
 719 766 719 766 648 761 c 1,0,1
EndSplineSet
EndChar

StartChar: bar
Encoding: 124 124 95
Width: 595
Flags: W
LayerCount: 2
Fore
SplineSet
121 -91 m 1,0,1
 250 1263 250 1263 269 1532 c 1,2,-1
 612 1516 l 1,3,-1
 462 -109 l 1,4,-1
 121 -97 l 1,5,-1
 121 -91 l 1,0,1
EndSplineSet
EndChar

StartChar: braceright
Encoding: 125 125 96
Width: 1121
Flags: W
LayerCount: 2
Fore
SplineSet
156 1548 m 1,0,1
 173 1552 173 1552 315.5 1557.5 c 128,-1,2
 458 1563 458 1563 531 1563 c 0,3,4
 814 1563 814 1563 845 1331 c 0,5,6
 855 1260 855 1260 855 1159 c 2,7,-1
 855 1136 l 2,8,9
 855 1002 855 1002 872 949 c 0,10,11
 905 845 905 845 1023 845 c 1,12,-1
 1023 547 l 1,13,14
 915 546 915 546 876 460 c 0,15,16
 853 409 853 409 834 307.5 c 128,-1,17
 815 206 815 206 800 150 c 0,18,19
 768 29 768 29 668.5 -53 c 128,-1,20
 569 -135 569 -135 350 -135 c 0,21,22
 259 -135 259 -135 148 -119 c 1,23,-1
 115 135 l 1,24,25
 278 135 278 135 311 237 c 0,26,27
 326 283 326 283 329 339 c 128,-1,28
 332 395 332 395 334.5 453 c 128,-1,29
 337 511 337 511 351 561 c 128,-1,30
 365 611 365 611 411.5 648 c 128,-1,31
 458 685 458 685 539 696 c 1,32,33
 419 712 419 712 370.5 776 c 128,-1,34
 322 840 322 840 322 954 c 128,-1,35
 322 1068 322 1068 320 1110 c 0,36,37
 315 1250 315 1250 284 1290 c 0,38,39
 238 1350 238 1350 147 1349 c 1,40,-1
 156 1548 l 1,0,1
EndSplineSet
EndChar

StartChar: asciitilde
Encoding: 126 126 97
Width: 1265
Flags: W
LayerCount: 2
Fore
SplineSet
830 758 m 0,0,1
 895 758 895 758 895 845 c 1,2,-1
 1130 837 l 1,3,4
 1130 669 1130 669 1012 572 c 0,5,6
 950 521 950 521 877.5 521 c 128,-1,7
 805 521 805 521 720 555 c 128,-1,8
 635 589 635 589 555.5 623 c 128,-1,9
 476 657 476 657 429 657 c 0,10,11
 348 657 348 657 348 569 c 1,12,-1
 114 562 l 1,13,14
 114 708 114 708 194.5 803.5 c 128,-1,15
 275 899 275 899 392.5 899 c 128,-1,16
 510 899 510 899 643.5 833 c 128,-1,17
 777 767 777 767 797.5 762.5 c 128,-1,18
 818 758 818 758 830 758 c 0,0,1
EndSplineSet
EndChar

StartChar: cent
Encoding: 162 162 100
Width: 1613
Flags: W
LayerCount: 2
Fore
SplineSet
932 -242 m 1,0,-1
 1082 -245 l 1,1,-1
 1095 -36 l 1,2,3
 1280 -29 1280 -29 1440 13 c 1,4,-1
 1433 328 l 1,5,6
 1278 302 1278 302 1116 300 c 1,7,-1
 1142 718 l 1,8,9
 1165 718 1165 718 1237 718 c 128,-1,10
 1309 718 1309 718 1463 689 c 1,11,-1
 1488 1010 l 1,12,13
 1332 1049 1332 1049 1164 1062 c 1,14,-1
 1175 1244 l 1,15,-1
 1018 1244 l 1,16,-1
 1008 1070 l 1,17,18
 992 1070 992 1070 976 1070 c 0,19,20
 706 1070 706 1070 482 984.5 c 0,21,22
 258 898 258 898 168 716 c 0,23,24
 119 616 119 616 119 492 c 0,25,26
 118 292 118 292 260 172 c 0,27,28
 487 -21 487 -21 944 -36 c 1,29,-1
 932 -242 l 1,0,-1
964 310 m 1,30,31
 884 324 884 324 832 358 c 0,32,33
 742 416 742 416 742 521 c 0,34,35
 742 665 742 665 987 706 c 1,36,-1
 964 310 l 1,30,31
EndSplineSet
EndChar

StartChar: sterling
Encoding: 163 163 101
Width: 1910
Flags: W
LayerCount: 2
Fore
SplineSet
1589 337 m 2,0,-1
 1773 337 l 1,1,-1
 1752 -27 l 1,2,-1
 1644 -27 l 2,3,4
 414 -27 414 -27 406 -25 c 1,5,6
 304 -25 304 -25 258 4.5 c 128,-1,7
 212 34 212 34 212 71.5 c 128,-1,8
 212 109 212 109 231 141 c 0,9,10
 310 270 310 270 345.5 381 c 128,-1,11
 381 492 381 492 392 621 c 1,12,-1
 208 621 l 1,13,-1
 107 623 l 1,14,-1
 122 853 l 1,15,-1
 402 853 l 1,16,-1
 417 1042 l 2,17,18
 428 1177 428 1177 528 1280.5 c 128,-1,19
 628 1384 628 1384 787 1437.5 c 128,-1,20
 946 1491 946 1491 1137 1491 c 0,21,22
 1472 1491 1472 1491 1775 1332 c 1,23,-1
 1743 1048 l 1,24,25
 1553 1122 1553 1122 1404.5 1122 c 128,-1,26
 1256 1122 1256 1122 1173 1056.5 c 128,-1,27
 1090 991 1090 991 1090 859 c 2,28,-1
 1090 850 l 1,29,-1
 1447 848 l 1,30,-1
 1463 719 l 1,31,-1
 1473 619 l 1,32,-1
 1064 621 l 1,33,34
 1063 610 1063 610 1062 571.5 c 128,-1,35
 1061 533 1061 533 1056 489 c 0,36,37
 1046 394 1046 394 973 332 c 1,38,39
 1338 337 1338 337 1589 337 c 2,0,-1
EndSplineSet
EndChar

StartChar: currency
Encoding: 164 164 102
Width: 1277
Flags: W
LayerCount: 2
Fore
SplineSet
952 689.5 m 128,-1,1
 983 755 983 755 983 850 c 128,-1,2
 983 945 983 945 912 1027.5 c 128,-1,3
 841 1110 841 1110 710 1110 c 128,-1,4
 579 1110 579 1110 502.5 1020.5 c 128,-1,5
 426 931 426 931 426 814.5 c 128,-1,6
 426 698 426 698 496.5 617 c 128,-1,7
 567 536 567 536 695 536 c 0,8,9
 787 536 787 536 854 580 c 128,-1,0
 921 624 921 624 952 689.5 c 128,-1,1
458 390 m 1,10,-1
 340 244 l 1,11,-1
 166 395 l 1,12,-1
 281 528 l 1,13,14
 183 658 183 658 183 816 c 128,-1,15
 183 974 183 974 290 1105 c 1,16,-1
 163 1247 l 1,17,-1
 352 1394 l 1,18,-1
 482 1247 l 1,19,20
 589 1297 589 1297 716.5 1297 c 128,-1,21
 844 1297 844 1297 952 1243 c 1,22,-1
 1097 1404 l 1,23,-1
 1276 1253 l 1,24,-1
 1131 1087 l 1,25,26
 1223 984 1223 984 1223 823 c 128,-1,27
 1223 662 1223 662 1133 555 c 1,28,-1
 1262 438 l 1,29,-1
 1123 268 l 1,30,-1
 963 408 l 1,31,32
 852 337 852 337 700.5 337 c 128,-1,33
 549 337 549 337 458 390 c 1,10,-1
EndSplineSet
EndChar

StartChar: yen
Encoding: 165 165 103
Width: 2152
Flags: W
LayerCount: 2
Fore
SplineSet
1471 298 m 1,0,-1
 1751 298 l 1,1,-1
 1748 95 l 1,2,-1
 1460 98 l 1,3,-1
 1453 -23 l 2,4,5
 1453 -25 1453 -25 1363 -25 c 128,-1,6
 1273 -25 1273 -25 734 -38 c 1,7,-1
 734 103 l 1,8,-1
 445 103 l 1,9,-1
 418 108 l 1,10,-1
 422 298 l 1,11,-1
 735 298 l 1,12,-1
 737 411 l 1,13,-1
 423 411 l 1,14,-1
 430 618 l 1,15,-1
 673 618 l 1,16,-1
 167 1432 l 1,17,-1
 170 1454 l 1,18,-1
 633 1452 l 2,19,20
 815 1451 815 1451 858 1448 c 1,21,-1
 1146 955 l 1,22,-1
 1452 1449 l 1,23,-1
 2079 1449 l 1,24,-1
 2081 1406 l 1,25,-1
 1546 630 l 1,26,-1
 1766 630 l 1,27,-1
 1754 414 l 1,28,-1
 1476 414 l 1,29,-1
 1471 298 l 1,0,-1
EndSplineSet
EndChar

StartChar: brokenbar
Encoding: 166 166 104
Width: 725
Flags: W
LayerCount: 2
Fore
SplineSet
129 -15 m 1,0,-1
 154 612 l 1,1,-1
 154 668 l 1,2,-1
 505 668 l 1,3,-1
 485 -13 l 1,4,-1
 447 -15 l 1,5,-1
 129 -15 l 1,0,-1
159 894 m 1,6,-1
 184 1521 l 1,7,-1
 184 1577 l 1,8,-1
 535 1577 l 1,9,-1
 515 896 l 1,10,-1
 477 894 l 1,11,-1
 159 894 l 1,6,-1
EndSplineSet
EndChar

StartChar: section
Encoding: 167 167 105
Width: 1475
Flags: W
LayerCount: 2
Fore
SplineSet
822 1197 m 0,0,1
 652 1197 652 1197 651 1130 c 0,2,3
 651 1102 651 1102 684 1078.5 c 128,-1,4
 717 1055 717 1055 787 1044.5 c 128,-1,5
 857 1034 857 1034 901.5 1027 c 128,-1,6
 946 1020 946 1020 1012.5 1008.5 c 128,-1,7
 1079 997 1079 997 1114.5 989 c 128,-1,8
 1150 981 1150 981 1200 968 c 128,-1,9
 1250 955 1250 955 1276 942.5 c 128,-1,10
 1302 930 1302 930 1335 912.5 c 128,-1,11
 1368 895 1368 895 1384 876 c 128,-1,12
 1400 857 1400 857 1422.5 824.5 c 128,-1,13
 1445 792 1445 792 1445 706 c 128,-1,14
 1445 620 1445 620 1390 565.5 c 128,-1,15
 1335 511 1335 511 1194 484 c 1,16,17
 1253 466 1253 466 1292 420 c 0,18,19
 1362 338 1362 338 1362 210 c 0,20,21
 1362 2 1362 2 1140 -90 c 0,22,23
 959 -165 959 -165 620 -165 c 128,-1,24
 281 -165 281 -165 64 -68 c 1,25,-1
 135 228 l 1,26,27
 476 141 476 141 694.5 141 c 128,-1,28
 913 141 913 141 913 211 c 0,29,30
 914 272 914 272 754 294 c 0,31,32
 432 340 432 340 319 392 c 0,33,34
 272 414 272 414 234 442 c 0,35,36
 150 507 150 507 149 624 c 0,37,38
 149 692 149 692 182.5 753 c 128,-1,39
 216 814 216 814 280 845 c 1,40,41
 227 883 227 883 189.5 957.5 c 128,-1,42
 152 1032 152 1032 152 1122 c 128,-1,43
 152 1212 152 1212 203.5 1285.5 c 0,44,45
 254 1358 254 1358 346 1400 c 0,46,47
 523 1480 523 1480 806 1480.5 c 128,-1,48
 1089 1481 1089 1481 1395 1411 c 1,49,-1
 1343 1149 l 1,50,51
 1270 1165 1270 1165 1096 1181 c 128,-1,52
 922 1197 922 1197 822 1197 c 0,0,1
569.5 726 m 128,-1,54
 555 705 555 705 555 691 c 0,55,56
 555 678 555 678 565 670 c 0,57,58
 599 645 599 645 724.5 629 c 128,-1,59
 850 613 850 613 878 609 c 1,60,-1
 882 609 l 2,61,62
 904 609 904 609 928 630.5 c 128,-1,63
 952 652 952 652 952 675 c 128,-1,64
 952 698 952 698 910.5 713 c 128,-1,65
 869 728 869 728 786 742 c 2,66,-1
 613 771 l 2,67,68
 611 771 611 771 597.5 759 c 128,-1,53
 584 747 584 747 569.5 726 c 128,-1,54
EndSplineSet
EndChar

StartChar: dieresis
Encoding: 168 168 106
Width: 1189
Flags: W
LayerCount: 2
Fore
SplineSet
1101 1219 m 1,0,-1
 721 1219 l 1,1,-1
 729 1576 l 1,2,-1
 1101 1576 l 1,3,-1
 1101 1219 l 1,0,-1
93 1218 m 2,4,5
 89 1218 89 1218 89 1225 c 2,6,-1
 102 1576 l 1,7,-1
 475 1578 l 1,8,-1
 470 1220 l 1,9,-1
 93 1218 l 2,4,5
EndSplineSet
EndChar

StartChar: copyright
Encoding: 169 169 107
Width: 2072
Flags: W
LayerCount: 2
Fore
SplineSet
1333 1119 m 1,0,-1
 1359 899 l 1,1,-1
 1335 899 l 1,2,3
 1329 905 1329 905 1315 912 c 128,-1,4
 1301 919 1301 919 1288.5 926 c 128,-1,5
 1276 933 1276 933 1265.5 937.5 c 128,-1,6
 1255 942 1255 942 1240 948 c 0,7,8
 1181 974 1181 974 1090.5 974 c 128,-1,9
 1000 974 1000 974 943.5 898 c 128,-1,10
 887 822 887 822 887 700.5 c 128,-1,11
 887 579 887 579 965 514.5 c 128,-1,12
 1043 450 1043 450 1137.5 450 c 128,-1,13
 1232 450 1232 450 1307 493 c 1,14,-1
 1322 493 l 1,15,16
 1331 359 1331 359 1331 340.5 c 128,-1,17
 1331 322 1331 322 1330 322 c 0,18,19
 1212 246 1212 246 1072 246 c 0,20,21
 892 246 892 246 752 360 c 0,22,23
 591 491 591 491 592 726 c 0,24,25
 592 832 592 832 646 940 c 128,-1,26
 700 1048 700 1048 811.5 1117 c 128,-1,27
 923 1186 923 1186 1081 1191 c 128,-1,28
 1239 1196 1239 1196 1333 1119 c 1,0,-1
983 108 m 0,29,30
 1181 108 1181 108 1342.5 184.5 c 128,-1,31
 1504 261 1504 261 1598.5 403.5 c 128,-1,32
 1693 546 1693 546 1693 718 c 128,-1,33
 1693 890 1693 890 1615 1022 c 128,-1,34
 1537 1154 1537 1154 1397.5 1230 c 128,-1,35
 1258 1306 1258 1306 1075.5 1306 c 128,-1,36
 893 1306 893 1306 734 1233 c 128,-1,37
 575 1160 575 1160 479 1022 c 128,-1,38
 383 884 383 884 383 709 c 0,39,40
 384 461 384 461 546 287 c 0,41,42
 622 205 622 205 735.5 156.5 c 128,-1,43
 849 108 849 108 983 108 c 0,29,30
1108 1493 m 0,44,45
 1270 1493 1270 1493 1421.5 1435.5 c 128,-1,46
 1573 1378 1573 1378 1680 1279 c 128,-1,47
 1787 1180 1787 1180 1848.5 1042 c 128,-1,48
 1910 904 1910 904 1910 755 c 128,-1,49
 1910 606 1910 606 1862 480 c 0,50,51
 1772 240 1772 240 1529.5 92.5 c 128,-1,52
 1287 -55 1287 -55 960 -55 c 0,53,54
 536 -54 536 -54 302 266 c 0,55,56
 158 462 158 462 158 729.5 c 128,-1,57
 158 997 158 997 342 1194 c 0,58,59
 622 1493 622 1493 1108 1493 c 0,44,45
EndSplineSet
EndChar

StartChar: ordfeminine
Encoding: 170 170 108
Width: 1304
Flags: W
LayerCount: 2
Fore
SplineSet
316 632 m 0,0,1
 134 742 134 742 134.5 978.5 c 128,-1,2
 135 1215 135 1215 252.5 1338 c 128,-1,3
 370 1461 370 1461 534 1461 c 0,4,5
 647 1461 647 1461 718.5 1427 c 128,-1,6
 790 1393 790 1393 845 1305 c 1,7,-1
 847 1478 l 1,8,-1
 1139 1448 l 1,9,-1
 1137 619 l 1,10,-1
 894 596 l 1,11,-1
 854 756 l 1,12,13
 814 673 814 673 735.5 621.5 c 128,-1,14
 657 570 657 570 538 570 c 128,-1,15
 419 570 419 570 316 632 c 0,0,1
554 858.5 m 128,-1,17
 594 815 594 815 659.5 815 c 128,-1,18
 725 815 725 815 762.5 864.5 c 128,-1,19
 800 914 800 914 800 1000.5 c 128,-1,20
 800 1087 800 1087 762 1138 c 128,-1,21
 724 1189 724 1189 657.5 1189 c 128,-1,22
 591 1189 591 1189 552.5 1131 c 128,-1,23
 514 1073 514 1073 514 987.5 c 128,-1,16
 514 902 514 902 554 858.5 c 128,-1,17
EndSplineSet
EndChar

StartChar: guillemotleft
Encoding: 171 171 109
Width: 2032
Flags: W
LayerCount: 2
Fore
SplineSet
956 825 m 1,0,1
 1026 864 1026 864 1287.5 977 c 128,-1,2
 1549 1090 1549 1090 1639 1131 c 1,3,4
 1670 1138 1670 1138 1679 1138 c 128,-1,5
 1688 1138 1688 1138 1690 1123 c 2,6,-1
 1712 804 l 1,7,8
 1712 783 1712 783 1701 781 c 1,9,-1
 1324 621 l 1,10,11
 1327 619 1327 619 1701 392 c 1,12,13
 1708 386 1708 386 1709 379 c 1,14,-1
 1589 60 l 1,15,16
 1583 41 1583 41 1567.5 41 c 128,-1,17
 1552 41 1552 41 1535 53 c 2,18,-1
 959 458 l 1,19,20
 951 468 951 468 951 489 c 2,21,-1
 951 549 l 2,22,23
 951 797 951 797 944 804 c 1,24,-1
 944 806 l 1,25,26
 948 825 948 825 956 825 c 1,0,1
120 825 m 1,27,28
 203 871 203 871 476.5 989.5 c 128,-1,29
 750 1108 750 1108 784.5 1123 c 128,-1,30
 819 1138 819 1138 836.5 1138 c 128,-1,31
 854 1138 854 1138 855 1123 c 2,32,-1
 876 804 l 1,33,34
 876 783 876 783 865 781 c 1,35,-1
 489 621 l 1,36,37
 498 615 498 615 683 502.5 c 128,-1,38
 868 390 868 390 870.5 386 c 128,-1,39
 873 382 873 382 873 380 c 2,40,-1
 754 60 l 2,41,42
 748 41 748 41 732 41 c 128,-1,43
 716 41 716 41 699 53 c 2,44,-1
 123 458 l 1,45,46
 115 468 115 468 115 489 c 2,47,-1
 115 549 l 2,48,49
 115 797 115 797 108 804 c 1,50,-1
 108 806 l 1,51,52
 112 825 112 825 120 825 c 1,27,28
EndSplineSet
EndChar

StartChar: logicalnot
Encoding: 172 172 110
Width: 1216
Flags: W
LayerCount: 2
Fore
SplineSet
603 374 m 1,0,-1
 284 367 l 1,1,-1
 113 367 l 1,2,-1
 140 732 l 1,3,-1
 606 736 l 1,4,5
 814 741 814 741 964 741 c 2,6,-1
 1051 741 l 1,7,-1
 1045 539 l 1,8,9
 1045 428 1045 428 1022 83 c 1,10,-1
 737 90 l 1,11,-1
 713 93 l 1,12,-1
 732 374 l 1,13,-1
 603 374 l 1,0,-1
EndSplineSet
EndChar

StartChar: uni00AD
Encoding: 173 173 111
Width: 1042
Flags: W
LayerCount: 2
Fore
SplineSet
1012 -2 m 1,0,1
 960 -4 960 -4 765 -4 c 128,-1,2
 570 -4 570 -4 188 -12 c 1,3,-1
 44 -12 l 1,4,-1
 47 259 l 1,5,-1
 587 263 l 1,6,-1
 1014 263 l 1,7,-1
 1012 -2 l 1,0,1
EndSplineSet
EndChar

StartChar: registered
Encoding: 174 174 112
Width: 2071
Flags: W
LayerCount: 2
Fore
SplineSet
984 747 m 1,0,1
 1052 747 1052 747 1117 798.5 c 128,-1,2
 1182 850 1182 850 1182 894 c 0,3,4
 1182 997 1182 997 1063 997 c 0,5,6
 1040 997 1040 997 1000 991 c 1,7,-1
 984 747 l 1,0,1
1024 1141 m 0,8,9
 1439 1141 1439 1141 1438 897 c 0,10,11
 1438 810 1438 810 1379 757.5 c 128,-1,12
 1320 705 1320 705 1231 689 c 1,13,-1
 1483 346 l 1,14,15
 1470 340 1470 340 1244 243 c 1,16,-1
 979 658 l 1,17,-1
 971 297 l 1,18,-1
 699 289 l 1,19,20
 699 292 699 292 699 334.5 c 128,-1,21
 699 377 699 377 726 944 c 1,22,-1
 726 956 l 1,23,24
 730 1006 730 1006 732 1050 c 128,-1,25
 734 1094 734 1094 735 1110 c 1,26,27
 910 1141 910 1141 1024 1141 c 0,8,9
983 79 m 0,28,29
 1186 79 1186 79 1350 159 c 128,-1,30
 1514 239 1514 239 1603.5 383 c 128,-1,31
 1693 527 1693 527 1693 679 c 128,-1,32
 1693 831 1693 831 1642.5 937.5 c 128,-1,33
 1592 1044 1592 1044 1513 1117.5 c 128,-1,34
 1434 1191 1434 1191 1322.5 1234 c 128,-1,35
 1211 1277 1211 1277 1074.5 1277 c 0,36,37
 938 1278 938 1278 808 1232 c 0,38,39
 536 1137 536 1137 432 908 c 0,40,41
 383 801 383 801 383 687 c 0,42,43
 384 429 384 429 554 251 c 0,44,45
 630 172 630 172 741 125.5 c 128,-1,46
 852 79 852 79 983 79 c 0,28,29
1341 -23 m 128,-1,48
 1163 -84 1163 -84 974.5 -84 c 128,-1,49
 786 -84 786 -84 637 -24 c 128,-1,50
 488 36 488 36 386 138 c 0,51,52
 157 368 157 368 158 701 c 0,53,54
 158 848 158 848 226.5 993.5 c 128,-1,55
 295 1139 295 1139 423.5 1243 c 128,-1,56
 552 1347 552 1347 727 1405.5 c 128,-1,57
 902 1464 902 1464 1084 1464 c 0,58,59
 1439 1464 1439 1464 1674.5 1253 c 128,-1,60
 1910 1042 1910 1042 1910 706 c 0,61,62
 1910 557 1910 557 1842.5 406 c 128,-1,63
 1775 255 1775 255 1647 146.5 c 128,-1,47
 1519 38 1519 38 1341 -23 c 128,-1,48
EndSplineSet
EndChar

StartChar: macron
Encoding: 175 175 113
Width: 1389
Flags: W
LayerCount: 2
Fore
SplineSet
269 890 m 1,0,-1
 1132 908 l 1,1,2
 1130 847 1130 847 1118 636 c 2,3,-1
 1116 602 l 1,4,5
 827 593 827 593 384 586 c 2,6,-1
 257 584 l 1,7,-1
 269 890 l 1,0,-1
EndSplineSet
EndChar

StartChar: degree
Encoding: 176 176 114
Width: 1007
Flags: W
LayerCount: 2
Fore
SplineSet
758 1016 m 0,0,1
 758 1214 758 1214 606 1214 c 0,2,3
 521 1214 521 1214 466 1147.5 c 128,-1,4
 411 1081 411 1081 411 994 c 0,5,6
 412 851 412 851 498 809 c 0,7,8
 524 796 524 796 557 796 c 0,9,10
 654 796 654 796 706 864 c 128,-1,11
 758 932 758 932 758 1016 c 0,0,1
587 558 m 0,12,13
 389 558 389 558 260 674 c 128,-1,14
 131 790 131 790 131 990 c 0,15,16
 131 1113 131 1113 194 1218 c 128,-1,17
 257 1323 257 1323 369 1385.5 c 128,-1,18
 481 1448 481 1448 616 1448 c 0,19,20
 802 1448 802 1448 926 1333.5 c 128,-1,21
 1050 1219 1050 1219 1050 1034.5 c 128,-1,22
 1050 850 1050 850 926 708 c 0,23,24
 868 640 868 640 779.5 599 c 128,-1,25
 691 558 691 558 587 558 c 0,12,13
EndSplineSet
EndChar

StartChar: plusminus
Encoding: 177 177 115
Width: 1045
Flags: W
LayerCount: 2
Fore
SplineSet
783 13 m 1,0,-1
 89 7 l 1,1,-1
 115 223 l 1,2,-1
 1005 229 l 1,3,-1
 995 13 l 1,4,-1
 783 13 l 1,0,-1
708 392 m 1,5,-1
 399 397 l 1,6,-1
 423 660 l 1,7,8
 362 659 362 659 150 659 c 1,9,-1
 182 955 l 1,10,-1
 451 958 l 1,11,-1
 472 1235 l 1,12,13
 546 1235 546 1235 641 1238 c 2,14,-1
 736 1241 l 1,15,-1
 764 1241 l 1,16,-1
 745 963 l 1,17,18
 854 969 854 969 1012 969 c 1,19,-1
 994 668 l 1,20,-1
 721 665 l 1,21,-1
 708 392 l 1,5,-1
EndSplineSet
EndChar

StartChar: uni00B2
Encoding: 178 178 116
Width: 1060
Flags: W
LayerCount: 2
Fore
SplineSet
221 645 m 0,0,1
 65 645 65 645 65 678 c 0,2,3
 65 692 65 692 108 735 c 1,4,-1
 210 847 l 2,5,6
 422 1080 422 1080 422 1199 c 0,7,8
 422 1280 422 1280 324 1280 c 0,9,10
 256 1280 256 1280 155 1237 c 2,11,-1
 127 1225 l 1,12,-1
 107 1238 l 1,13,14
 157 1399 157 1399 169 1421 c 1,15,16
 218 1446 218 1446 339 1469.5 c 128,-1,17
 460 1493 460 1493 594.5 1493 c 128,-1,18
 729 1493 729 1493 835 1444.5 c 128,-1,19
 941 1396 941 1396 941 1272 c 0,20,21
 941 1221 941 1221 882.5 1154 c 128,-1,22
 824 1087 824 1087 715 980 c 2,23,-1
 573 839 l 1,24,-1
 940 857 l 1,25,26
 987 857 987 857 987 844 c 0,27,28
 987 837 987 837 974 820 c 1,29,-1
 839 663 l 1,30,31
 819 653 819 653 793 649 c 128,-1,32
 767 645 767 645 221 645 c 0,0,1
EndSplineSet
EndChar

StartChar: acute
Encoding: 180 180 117
Width: 694
Flags: W
LayerCount: 2
Fore
SplineSet
670 1552 m 1,0,1
 241 1207 241 1207 238 1207 c 0,2,3
 224 1207 224 1207 63 1247 c 1,4,5
 115 1334 115 1334 206 1472 c 128,-1,6
 297 1610 297 1610 326 1650 c 1,7,8
 447 1618 447 1618 670 1552 c 1,0,1
EndSplineSet
EndChar

StartChar: paragraph
Encoding: 182 182 118
Width: 1486
Flags: W
LayerCount: 2
Fore
SplineSet
800 -62 m 1,0,-1
 451 -70 l 1,1,2
 473 669 l 1,3,4
 301 723 301 723 189 826 c 128,-1,5
 77 929 77 929 77 1085 c 0,6,7
 77 1183 77 1183 130.5 1255.5 c 128,-1,8
 184 1328 184 1328 276 1368 c 0,9,10
 454 1446 454 1446 695 1446 c 2,11,-1
 723 1446 l 1,12,13
 1223 1433 1223 1433 1451 1412 c 1,14,-1
 1456 1161 l 1,15,16
 1398 1161 1398 1161 1283 1167 c 1,17,18
 1279 1100 1279 1100 1276 868 c 128,-1,19
 1273 636 1273 636 1269 537 c 2,20,-1
 1260 296 l 2,21,22
 1259 255 1259 255 1248 -71 c 1,23,-1
 900 -75 l 1,24,-1
 943 1166 l 1,25,-1
 826 1173 l 1,26,-1
 810 305 l 1,27,-1
 800 -62 l 1,0,-1
EndSplineSet
EndChar

StartChar: periodcentered
Encoding: 183 183 119
AltUni2: 002219.ffffffff.0
Width: 561
Flags: W
LayerCount: 2
Fore
SplineSet
156 811 m 2,0,-1
 156 815 l 1,1,2
 171 1174 171 1174 177 1188.5 c 128,-1,3
 183 1203 183 1203 200 1203 c 0,4,5
 339 1203 339 1203 565 1205 c 0,6,7
 588 1205 588 1205 586 1181 c 2,8,-1
 558 867 l 2,9,10
 553 820 553 820 546.5 813.5 c 128,-1,11
 540 807 540 807 482 805.5 c 128,-1,12
 424 804 424 804 167 804 c 0,13,14
 156 804 156 804 156 811 c 2,0,-1
EndSplineSet
EndChar

StartChar: cedilla
Encoding: 184 184 120
Width: 545
Flags: W
LayerCount: 2
Fore
SplineSet
337 -156 m 0,0,1
 531 -156 531 -156 531 -365 c 0,2,3
 531 -484 531 -484 451 -547 c 128,-1,4
 371 -610 371 -610 247.5 -610 c 128,-1,5
 124 -610 124 -610 21 -537 c 1,6,-1
 61 -394 l 1,7,8
 150 -448 150 -448 208 -448 c 128,-1,9
 266 -448 266 -448 293 -421 c 128,-1,10
 320 -394 320 -394 320 -362 c 0,11,12
 320 -297 320 -297 250 -287 c 2,13,-1
 91 -266 l 1,14,-1
 154 -17 l 1,15,-1
 333 -17 l 1,16,-1
 285 -159 l 1,17,18
 312 -156 312 -156 337 -156 c 0,0,1
EndSplineSet
EndChar

StartChar: ordmasculine
Encoding: 186 186 121
Width: 1029
Flags: W
LayerCount: 2
Fore
SplineSet
730.5 1187.5 m 128,-1,1
 679 1245 679 1245 607.5 1245 c 128,-1,2
 536 1245 536 1245 483 1180 c 128,-1,3
 430 1115 430 1115 430 1006.5 c 128,-1,4
 430 898 430 898 482.5 841 c 128,-1,5
 535 784 535 784 606 784 c 128,-1,6
 677 784 677 784 729.5 847.5 c 128,-1,7
 782 911 782 911 782 1020.5 c 128,-1,0
 782 1130 782 1130 730.5 1187.5 c 128,-1,1
1002.5 773.5 m 128,-1,9
 935 660 935 660 824 603 c 0,10,11
 712 546 712 546 590 546 c 0,12,13
 359 546 359 546 244.5 674.5 c 128,-1,14
 130 803 130 803 130 976 c 0,15,16
 130 1239 130 1239 301 1380 c 0,17,18
 423 1481 423 1481 627 1481 c 0,19,20
 741 1481 741 1481 828.5 1443 c 128,-1,21
 916 1405 916 1405 968 1341 c 0,22,23
 1070 1214 1070 1214 1070 1050.5 c 128,-1,8
 1070 887 1070 887 1002.5 773.5 c 128,-1,9
EndSplineSet
EndChar

StartChar: guillemotright
Encoding: 187 187 122
Width: 2011
Flags: W
LayerCount: 2
Fore
SplineSet
1010 861 m 1,0,1
 1022 861 1022 861 1022 842 c 2,2,-1
 1015 521 l 2,3,4
 1015 499 1015 499 1004 492 c 2,5,-1
 365 93 l 1,6,7
 336 81 336 81 322.5 81 c 128,-1,8
 309 81 309 81 302 100 c 2,9,-1
 177 411 l 1,10,11
 175 419 175 419 175 425 c 128,-1,12
 175 431 175 431 198.5 442.5 c 128,-1,13
 222 454 222 454 392.5 550 c 128,-1,14
 563 646 563 646 579 655 c 1,15,-1
 199 827 l 1,16,17
 184 829 184 829 187 850 c 2,18,-1
 226 1171 l 1,19,20
 229 1187 229 1187 246 1187 c 128,-1,21
 263 1187 263 1187 287 1178 c 0,22,23
 589 1064 589 1064 1010 861 c 1,0,1
1945 812 m 2,24,-1
 1945 541 l 2,25,26
 1945 522 1945 522 1934.5 510 c 128,-1,27
 1924 498 1924 498 1891 475 c 2,28,-1
 1335 83 l 1,29,30
 1306 71 1306 71 1292.5 71 c 128,-1,31
 1279 71 1279 71 1272 90 c 2,32,-1
 1147 401 l 1,33,34
 1145 409 1145 409 1145 415 c 128,-1,35
 1145 421 1145 421 1168 432.5 c 128,-1,36
 1191 444 1191 444 1330.5 544.5 c 128,-1,37
 1470 645 1470 645 1489 655 c 1,38,-1
 1159 817 l 1,39,40
 1144 819 1144 819 1147 840 c 2,41,-1
 1186 1161 l 1,42,43
 1189 1177 1189 1177 1206 1177 c 128,-1,44
 1223 1177 1223 1177 1264 1161.5 c 128,-1,45
 1305 1146 1305 1146 1364.5 1122 c 128,-1,46
 1424 1098 1424 1098 1485 1070.5 c 128,-1,47
 1546 1043 1546 1043 1618 1011 c 128,-1,48
 1690 979 1690 979 1804 922 c 128,-1,49
 1918 865 1918 865 1931.5 859 c 128,-1,50
 1945 853 1945 853 1945 812 c 2,24,-1
EndSplineSet
EndChar

StartChar: onequarter
Encoding: 188 188 123
Width: 2325
Flags: W
LayerCount: 2
Fore
SplineSet
1516 391 m 1,0,-1
 1727 391 l 1,1,-1
 1777 823 l 1,2,-1
 1516 391 l 1,0,-1
2097 400 m 1,3,-1
 2249 403 l 1,4,-1
 2241 189 l 1,5,-1
 2068 189 l 1,6,-1
 2051 24 l 1,7,8
 2051 11 2051 11 2034.5 6 c 128,-1,9
 2018 1 2018 1 1890 -4 c 128,-1,10
 1762 -9 1762 -9 1732.5 -9 c 128,-1,11
 1703 -9 1703 -9 1694 -4 c 128,-1,12
 1685 1 1685 1 1686 14 c 2,13,-1
 1702 187 l 1,14,-1
 1287 185 l 2,15,16
 1165 185 1165 185 1150 192.5 c 128,-1,17
 1135 200 1135 200 1135 207 c 1,18,-1
 1649 955 l 2,19,20
 1662 973 1662 973 1712 973 c 2,21,-1
 2096 973 l 1,22,23
 2116 975 2116 975 2120 975 c 0,24,25
 2142 975 2142 975 2142 955 c 1,26,-1
 2097 400 l 1,3,-1
696 482 m 128,-1,28
 847 739 847 739 925.5 867 c 128,-1,29
 1004 995 1004 995 1108.5 1179 c 128,-1,30
 1213 1363 1213 1363 1233.5 1399.5 c 128,-1,31
 1254 1436 1254 1436 1263 1445 c 128,-1,32
 1272 1454 1272 1454 1289 1454 c 2,33,-1
 1297 1454 l 1,34,35
 1327 1445 1327 1445 1413.5 1415 c 128,-1,36
 1500 1385 1500 1385 1535 1379.5 c 128,-1,37
 1570 1374 1570 1374 1577 1371.5 c 128,-1,38
 1584 1369 1584 1369 1584 1362 c 1,39,-1
 777 13 l 2,40,41
 773 6 773 6 766.5 -11.5 c 128,-1,42
 760 -29 760 -29 745 -29 c 128,-1,43
 730 -29 730 -29 708 -22 c 2,44,-1
 581 18 l 1,45,46
 562 18 562 18 510 38 c 128,-1,47
 458 58 458 58 458 77 c 0,48,49
 458 84 458 84 464 95 c 0,50,27
 545 225 545 225 696 482 c 128,-1,28
631 1420 m 1,51,52
 637 1420 637 1420 637 1412 c 2,53,-1
 573 562 l 1,54,-1
 218 551 l 1,55,56
 179 551 179 551 168 573 c 1,57,-1
 166 568 l 1,58,-1
 166 580 l 2,59,60
 166 577 166 577 168 573 c 1,61,62
 171 587 171 587 197.5 860.5 c 128,-1,63
 224 1134 224 1134 231 1196 c 1,64,-1
 68 1169 l 1,65,-1
 48 1349 l 1,66,-1
 625 1428 l 2,67,68
 631 1428 631 1428 631 1421 c 2,69,-1
 631 1420 l 1,51,52
EndSplineSet
EndChar

StartChar: onehalf
Encoding: 189 189 124
Width: 2358
Flags: W
LayerCount: 2
Fore
SplineSet
1660 551 m 0,0,1
 1660 632 1660 632 1562 632 c 0,2,3
 1494 632 1494 632 1393 589 c 2,4,-1
 1365 577 l 1,5,-1
 1345 590 l 1,6,7
 1395 751 1395 751 1407 773 c 1,8,9
 1456 798 1456 798 1577 821.5 c 128,-1,10
 1698 845 1698 845 1832.5 845 c 128,-1,11
 1967 845 1967 845 2073 796.5 c 128,-1,12
 2179 748 2179 748 2179 624 c 0,13,14
 2179 573 2179 573 2120.5 506 c 128,-1,15
 2062 439 2062 439 1953 332 c 2,16,-1
 1811 191 l 1,17,-1
 2178 209 l 1,18,19
 2225 209 2225 209 2225 196 c 0,20,21
 2225 189 2225 189 2212 172 c 1,22,-1
 2077 15 l 1,23,24
 2058 4 2058 4 2017 1 c 1,25,26
 1608 -3 1608 -3 1455.5 -3 c 128,-1,27
 1303 -3 1303 -3 1303 30 c 0,28,29
 1303 44 1303 44 1346 87 c 1,30,-1
 1448 199 l 2,31,32
 1660 432 1660 432 1660 551 c 0,0,1
464 95 m 0,33,34
 545 225 545 225 696 482 c 128,-1,35
 847 739 847 739 925.5 867 c 128,-1,36
 1004 995 1004 995 1108.5 1179 c 128,-1,37
 1213 1363 1213 1363 1233.5 1399.5 c 128,-1,38
 1254 1436 1254 1436 1263 1445 c 128,-1,39
 1272 1454 1272 1454 1289 1454 c 2,40,-1
 1297 1454 l 1,41,42
 1327 1445 1327 1445 1413.5 1415 c 128,-1,43
 1500 1385 1500 1385 1535 1379.5 c 128,-1,44
 1570 1374 1570 1374 1577 1371.5 c 128,-1,45
 1584 1369 1584 1369 1584 1362 c 1,46,-1
 777 13 l 2,47,48
 773 6 773 6 766.5 -11.5 c 128,-1,49
 760 -29 760 -29 745 -29 c 128,-1,50
 730 -29 730 -29 708 -22 c 2,51,-1
 581 18 l 1,52,53
 562 18 562 18 510 38 c 128,-1,54
 458 58 458 58 458 77 c 0,55,56
 458 84 458 84 464 95 c 0,33,34
168 573 m 1,57,-1
 166 568 l 1,58,-1
 166 580 l 2,59,60
 166 577 166 577 168 573 c 1,57,-1
631 1420 m 1,61,62
 637 1420 637 1420 637 1412 c 2,63,-1
 573 562 l 1,64,-1
 218 551 l 1,65,66
 179 551 179 551 168 573 c 1,67,68
 171 587 171 587 197.5 860.5 c 128,-1,69
 224 1134 224 1134 231 1196 c 1,70,-1
 68 1169 l 1,71,-1
 48 1349 l 1,72,-1
 625 1428 l 2,73,74
 631 1428 631 1428 631 1421 c 2,75,-1
 631 1420 l 1,61,62
EndSplineSet
EndChar

StartChar: threequarters
Encoding: 190 190 125
Width: 2633
Flags: W
LayerCount: 2
Fore
SplineSet
1824 391 m 1,0,-1
 2035 391 l 1,1,-1
 2085 823 l 1,2,-1
 1824 391 l 1,0,-1
1004 482 m 128,-1,4
 1155 739 1155 739 1233.5 867 c 128,-1,5
 1312 995 1312 995 1416.5 1179 c 128,-1,6
 1521 1363 1521 1363 1541.5 1399.5 c 128,-1,7
 1562 1436 1562 1436 1571 1445 c 128,-1,8
 1580 1454 1580 1454 1597 1454 c 2,9,-1
 1605 1454 l 1,10,11
 1635 1445 1635 1445 1721.5 1415 c 128,-1,12
 1808 1385 1808 1385 1850 1378 c 128,-1,13
 1892 1371 1892 1371 1892 1362 c 1,14,-1
 1085 13 l 2,15,16
 1081 6 1081 6 1074.5 -11.5 c 128,-1,17
 1068 -29 1068 -29 1053 -29 c 128,-1,18
 1038 -29 1038 -29 1016 -22 c 2,19,-1
 889 18 l 1,20,21
 870 18 870 18 818 38 c 128,-1,22
 766 58 766 58 766 77 c 0,23,24
 766 84 766 84 772 95 c 0,25,3
 853 225 853 225 1004 482 c 128,-1,4
2405 400 m 1,26,-1
 2557 403 l 1,27,-1
 2549 189 l 1,28,-1
 2376 189 l 1,29,-1
 2359 24 l 1,30,31
 2359 11 2359 11 2342.5 6 c 128,-1,32
 2326 1 2326 1 2198 -4 c 128,-1,33
 2070 -9 2070 -9 2040.5 -9 c 128,-1,34
 2011 -9 2011 -9 2002 -4 c 128,-1,35
 1993 1 1993 1 1994 14 c 2,36,-1
 2010 187 l 1,37,-1
 1595 185 l 2,38,39
 1473 185 1473 185 1458 192.5 c 128,-1,40
 1443 200 1443 200 1443 207 c 1,41,-1
 1957 955 l 2,42,43
 1970 973 1970 973 2020 973 c 2,44,-1
 2404 973 l 1,45,46
 2424 975 2424 975 2428 975 c 0,47,48
 2450 975 2450 975 2450 955 c 1,49,-1
 2405 400 l 1,26,-1
942 831 m 0,50,51
 942 704 942 704 842.5 622.5 c 128,-1,52
 743 541 743 541 560 541 c 0,53,54
 479 541 479 541 398.5 559.5 c 128,-1,55
 318 578 318 578 268 604 c 1,56,-1
 268 816 l 1,57,58
 370 785 370 785 445 785 c 0,59,60
 480 785 480 785 500 810 c 128,-1,61
 520 835 520 835 520 867.5 c 128,-1,62
 520 900 520 900 501.5 922.5 c 128,-1,63
 483 945 483 945 449 945 c 2,64,-1
 335 945 l 1,65,-1
 351 1124 l 1,66,-1
 425 1124 l 2,67,68
 467 1124 467 1124 489.5 1148 c 128,-1,69
 512 1172 512 1172 512 1205.5 c 128,-1,70
 512 1239 512 1239 492 1264.5 c 128,-1,71
 472 1290 472 1290 439 1290 c 0,72,73
 360 1290 360 1290 263 1259 c 1,74,-1
 263 1446 l 1,75,76
 417 1485 417 1485 541 1485 c 128,-1,77
 665 1485 665 1485 745.5 1462 c 128,-1,78
 826 1439 826 1439 876.5 1384.5 c 128,-1,79
 927 1330 927 1330 927 1250 c 0,80,81
 927 1136 927 1136 793 1049 c 1,82,83
 942 983 942 983 942 831 c 0,50,51
EndSplineSet
EndChar

StartChar: AE
Encoding: 198 198 133
Width: 2842
Flags: W
LayerCount: 2
Fore
SplineSet
2760 349 m 1,0,-1
 2746 -2 l 1,1,2
 1128 -2 l 1,3,-1
 1151 174 l 1,4,-1
 752 174 l 1,5,-1
 646 -14 l 1,6,-1
 -52 23 l 1,7,8
 9 95 9 95 438.5 734.5 c 128,-1,9
 868 1374 868 1374 911 1435 c 1,10,-1
 1314 1441 l 1,11,-1
 1314 1444 l 1,12,-1
 1957 1442 l 1,13,-1
 2721 1444 l 1,14,-1
 2710 1062 l 1,15,-1
 1866 1047 l 1,16,17
 1863 1023 1863 1023 1859.5 966 c 128,-1,18
 1856 909 1856 909 1854 880 c 1,19,20
 2128 883 2128 883 2262 883 c 2,21,22
 2454 883 l 1,23,-1
 2433 560 l 1,24,25
 2417 556 2417 556 2184 556 c 2,26,-1
 1854 556 l 1,27,-1
 1856 349 l 1,28,-1
 2760 349 l 1,0,-1
1169 545 m 1,29,30
 1187 814 1187 814 1205 1022 c 1,31,-1
 920 541 l 1,32,-1
 1169 545 l 1,29,30
EndSplineSet
EndChar

StartChar: Eth
Encoding: 208 208 143
Width: 1548
Flags: W
LayerCount: 2
Fore
SplineSet
153 -22 m 1,0,1
 173 105 173 105 214 563 c 1,2,-1
 166 563 l 2,3,4
 69 563 69 563 57.5 573 c 128,-1,5
 46 583 46 583 47 591 c 2,6,-1
 84 869 l 1,7,-1
 238 872 l 1,8,9
 257 1143 257 1143 267 1409 c 1,10,11
 889 1461 889 1461 1287 1461 c 0,12,13
 1781 1461 1781 1461 2018 1230 c 0,14,15
 2188 1064 2188 1064 2188 783 c 0,16,17
 2188 360 2188 360 1946 178 c 0,18,19
 1781 54 1781 54 1464.5 16 c 128,-1,20
 1148 -22 1148 -22 576 -22 c 2,21,-1
 153 -22 l 1,0,1
931 559 m 1,22,-1
 922 360 l 1,23,24
 1186 363 1186 363 1292 405 c 0,25,26
 1490 482 1490 482 1490 718 c 0,27,28
 1490 913 1490 913 1390 992.5 c 128,-1,29
 1290 1072 1290 1072 1172 1072 c 0,30,31
 1095 1072 1095 1072 955 1064 c 1,32,-1
 946 873 l 1,33,-1
 1135 873 l 2,34,35
 1146 873 1146 873 1155 866 c 128,-1,36
 1164 859 1164 859 1163 844 c 2,37,-1
 1147 559 l 1,38,-1
 931 559 l 1,22,-1
EndSplineSet
EndChar

StartChar: multiply
Encoding: 215 215 150
Width: 1130
Flags: W
LayerCount: 2
Fore
SplineSet
751 249 m 1,0,-1
 548 461 l 1,1,-1
 324 227 l 1,2,-1
 131 446 l 1,3,-1
 357 685 l 1,4,5
 312 735 312 735 225 822.5 c 128,-1,6
 138 910 138 910 116 933 c 1,7,-1
 354 1140 l 1,8,-1
 561 903 l 1,9,-1
 775 1128 l 1,10,-1
 985 910 l 1,11,12
 885 808 885 808 768 695 c 1,13,-1
 973 482 l 1,14,-1
 751 249 l 1,0,-1
EndSplineSet
EndChar

StartChar: Oslash
Encoding: 216 216 151
Width: 2565
Flags: W
LayerCount: 2
Fore
SplineSet
1828 1627 m 1,0,1
 1755 1472 1755 1472 1442.5 804.5 c 128,-1,2
 1130 137 1130 137 1043.5 -45 c 128,-1,3
 957 -227 957 -227 951.5 -245.5 c 128,-1,4
 946 -264 946 -264 932 -264 c 128,-1,5
 918 -264 918 -264 905 -257 c 2,6,-1
 756 -174 l 1,7,8
 756 -155 756 -155 789 -92 c 128,-1,9
 822 -29 822 -29 831 -10 c 2,10,-1
 1643 1703 l 1,11,-1
 1650 1703 l 1,12,-1
 1823 1637 l 2,13,14
 1828 1634 1828 1634 1828 1627 c 1,0,1
1283 361 m 0,15,16
 1459 361 1459 361 1552.5 456 c 128,-1,17
 1646 551 1646 551 1646 737.5 c 128,-1,18
 1646 924 1646 924 1551 995 c 128,-1,19
 1456 1066 1456 1066 1289 1066 c 128,-1,20
 1122 1066 1122 1066 1024.5 973.5 c 128,-1,21
 927 881 927 881 927 705 c 0,22,23
 927 361 927 361 1283 361 c 0,15,16
126 689 m 0,24,25
 126 1071 126 1071 435.5 1276 c 128,-1,26
 745 1481 745 1481 1293 1481 c 128,-1,27
 1841 1481 1841 1481 2140 1291 c 128,-1,28
 2439 1101 2439 1101 2439 753 c 0,29,30
 2439 376 2439 376 2122 165.5 c 128,-1,31
 1805 -45 1805 -45 1256 -45 c 128,-1,32
 707 -45 707 -45 416.5 150.5 c 128,-1,33
 126 346 126 346 126 689 c 0,24,25
EndSplineSet
EndChar

StartChar: Thorn
Encoding: 222 222 157
Width: 2120
Flags: W
LayerCount: 2
Fore
SplineSet
866 -311 m 1,0,1
 715 -326 715 -326 511 -339.5 c 128,-1,2
 307 -353 307 -353 239 -353 c 2,3,-1
 229 -353 l 1,4,5
 226 -236 226 -236 226 -232 c 2,6,-1
 282 1418 l 1,7,-1
 817 1441 l 1,8,9
 865 1454 865 1454 907.5 1454 c 128,-1,10
 950 1454 950 1454 947 1420 c 2,11,-1
 925 1124 l 1,12,13
 1090 1148 1090 1148 1264 1148 c 128,-1,14
 1438 1148 1438 1148 1583 1107 c 128,-1,15
 1728 1066 1728 1066 1816 992 c 0,16,17
 1990 845 1990 845 1990 612.5 c 128,-1,18
 1990 380 1990 380 1810 230 c 0,19,20
 1522 -10 1522 -10 880 -10 c 1,21,-1
 866 -311 l 1,0,1
1273.5 765 m 128,-1,23
 1188 831 1188 831 920 831 c 1,24,-1
 895 272 l 1,25,26
 1212 280 1212 280 1309 413 c 0,27,28
 1359 481 1359 481 1359 590 c 128,-1,22
 1359 699 1359 699 1273.5 765 c 128,-1,23
EndSplineSet
EndChar

StartChar: germandbls
Encoding: 223 223 158
Width: 2121
Flags: W
LayerCount: 2
Fore
SplineSet
942 -112 m 1,0,-1
 859 189 l 1,1,2
 1041 220 1041 220 1133 284 c 128,-1,3
 1225 348 1225 348 1225 422.5 c 128,-1,4
 1225 497 1225 497 1139.5 554 c 128,-1,5
 1054 611 1054 611 913 621 c 1,6,-1
 913 810 l 1,7,8
 1089 837 1089 837 1178.5 899 c 128,-1,9
 1268 961 1268 961 1268 1018 c 128,-1,10
 1268 1075 1268 1075 1223.5 1107 c 128,-1,11
 1179 1139 1179 1139 1124.5 1139 c 128,-1,12
 1070 1139 1070 1139 1029 1131 c 128,-1,13
 988 1123 988 1123 942 1104.5 c 128,-1,14
 896 1086 896 1086 863 1048 c 128,-1,15
 830 1010 830 1010 824 958 c 2,16,-1
 745 257 l 1,17,-1
 717 -26 l 1,18,-1
 167 14 l 1,19,-1
 121 22 l 1,20,-1
 146 337 l 1,21,22
 177 751 177 751 227.5 928 c 128,-1,23
 278 1105 278 1105 342 1184 c 0,24,25
 448 1312 448 1312 556 1358 c 0,26,27
 726 1430 726 1430 889.5 1448 c 128,-1,28
 1053 1466 1053 1466 1216.5 1466 c 128,-1,29
 1380 1466 1380 1466 1540.5 1429 c 128,-1,30
 1701 1392 1701 1392 1796.5 1308.5 c 128,-1,31
 1892 1225 1892 1225 1892 1107 c 0,32,33
 1892 1022 1892 1022 1832 935.5 c 128,-1,34
 1772 849 1772 849 1613 803 c 1,35,36
 1792 776 1792 776 1900 679.5 c 128,-1,37
 2008 583 2008 583 2008 459.5 c 128,-1,38
 2008 336 2008 336 1921.5 229 c 128,-1,39
 1835 122 1835 122 1687 51 c 0,40,41
 1381 -96 1381 -96 942 -112 c 1,0,-1
EndSplineSet
EndChar

StartChar: ae
Encoding: 230 230 165
Width: 2612
Flags: W
LayerCount: 2
Fore
SplineSet
1678 625 m 1,0,-1
 2039 625 l 1,1,2
 2034 718 2034 718 1991 757 c 128,-1,3
 1948 796 1948 796 1866.5 796 c 128,-1,4
 1785 796 1785 796 1736.5 747.5 c 128,-1,5
 1688 699 1688 699 1678 625 c 1,0,-1
806.5 404.5 m 128,-1,7
 735 367 735 367 735 316.5 c 128,-1,8
 735 266 735 266 772 237.5 c 128,-1,9
 809 209 809 209 875 209 c 0,10,11
 1024 209 1024 209 1190 323 c 1,12,13
 1164 379 1164 379 1155 440 c 1,14,15
 1053 442 1053 442 1010 442 c 0,16,6
 878 442 878 442 806.5 404.5 c 128,-1,7
1116 622 m 1,17,18
 1063 776 1063 776 813 776 c 0,19,20
 612 776 612 776 325 671 c 1,21,-1
 281 671 l 1,22,-1
 210 939 l 1,23,24
 316 991 316 991 495.5 1030.5 c 128,-1,25
 675 1070 675 1070 842.5 1070 c 128,-1,26
 1010 1070 1010 1070 1159.5 1028.5 c 128,-1,27
 1309 987 1309 987 1377 904 c 1,28,29
 1455 987 1455 987 1593 1028.5 c 128,-1,30
 1731 1070 1731 1070 1831 1070 c 0,31,32
 2243 1070 2243 1070 2410 835 c 0,33,34
 2482 734 2482 734 2482 587 c 1,35,-1
 2476 441 l 1,36,-1
 1665 441 l 1,37,38
 1693 350 1693 350 1787 299 c 128,-1,39
 1881 248 1881 248 2040.5 248 c 128,-1,40
 2200 248 2200 248 2407 337 c 1,41,-1
 2461 337 l 1,42,-1
 2452 83 l 1,43,44
 2391 35 2391 35 2231.5 -1 c 128,-1,45
 2072 -37 2072 -37 1895.5 -37 c 128,-1,46
 1719 -37 1719 -37 1568 9.5 c 128,-1,47
 1417 56 1417 56 1315 145 c 1,48,49
 1194 40 1194 40 1044 1.5 c 128,-1,50
 894 -37 894 -37 675.5 -37 c 128,-1,51
 457 -37 457 -37 319 40 c 128,-1,52
 181 117 181 117 181 277 c 128,-1,53
 181 437 181 437 348 529.5 c 128,-1,54
 515 622 515 622 817 622 c 2,55,-1
 1116 622 l 1,17,18
EndSplineSet
EndChar

StartChar: eth
Encoding: 240 240 175
Width: 1829
Flags: W
LayerCount: 2
Fore
SplineSet
963 803 m 0,0,1
 695 803 695 803 695 543 c 0,2,3
 695 418 695 418 769.5 341.5 c 128,-1,4
 844 265 844 265 945 265 c 128,-1,5
 1046 265 1046 265 1103.5 319.5 c 128,-1,6
 1161 374 1161 374 1161 489.5 c 128,-1,7
 1161 605 1161 605 1062 786 c 1,8,9
 998 803 998 803 963 803 c 0,0,1
781 1710 m 1,10,11
 948 1614 948 1614 1018 1551 c 1,12,-1
 1322 1618 l 1,13,-1
 1472 1470 l 1,14,-1
 1178 1403 l 1,15,16
 1465 1157 1465 1157 1588 957 c 128,-1,17
 1711 757 1711 757 1711 550 c 0,18,19
 1711 269 1711 269 1504.5 108.5 c 128,-1,20
 1298 -52 1298 -52 888 -52 c 0,21,22
 404 -52 404 -52 210 210 c 0,23,24
 102 357 102 357 102 549 c 0,25,26
 102 667 102 667 158.5 767.5 c 128,-1,27
 215 868 215 868 312 936 c 0,28,29
 518 1082 518 1082 822 1082 c 0,30,31
 883 1082 883 1082 957 1074 c 1,32,33
 925 1129 925 1129 876.5 1193 c 128,-1,34
 828 1257 828 1257 792 1282 c 1,35,-1
 538 1210 l 1,36,-1
 395 1366 l 1,37,38
 395 1368 395 1368 396 1368 c 2,39,-1
 662 1441 l 1,40,41
 634 1481 634 1481 541 1565.5 c 128,-1,42
 448 1650 448 1650 446 1652 c 1,43,44
 514 1667 514 1667 637 1688.5 c 128,-1,45
 760 1710 760 1710 779 1710 c 2,46,-1
 781 1710 l 1,10,11
EndSplineSet
EndChar

StartChar: divide
Encoding: 247 247 182
Width: 1362
Flags: W
LayerCount: 2
Fore
SplineSet
117 803 m 1,0,-1
 1333 806 l 1,1,-1
 1331 530 l 1,2,-1
 96 527 l 1,3,-1
 117 803 l 1,0,-1
545 -78 m 1,4,-1
 545 -38 l 1,5,-1
 561 328 l 1,6,-1
 976 328 l 1,7,-1
 955 -76 l 1,8,-1
 545 -78 l 1,4,-1
963 929 m 1,9,10
 624 926 624 926 595 926 c 128,-1,11
 566 926 566 926 566 933 c 2,12,-1
 581 1327 l 1,13,-1
 996 1327 l 1,14,-1
 963 929 l 1,9,10
EndSplineSet
EndChar

StartChar: oslash
Encoding: 248 248 183
Width: 1801
Flags: W
LayerCount: 2
Fore
SplineSet
1375 1199 m 1,0,-1
 562 -250 l 1,1,-1
 448 -174 l 1,2,-1
 1246 1253 l 1,3,4
 1249 1253 1249 1253 1311.5 1226.5 c 128,-1,5
 1374 1200 1374 1200 1375 1199 c 1,0,-1
1084.5 315 m 128,-1,7
 1146 394 1146 394 1146 513 c 128,-1,8
 1146 632 1146 632 1080.5 702.5 c 128,-1,9
 1015 773 1015 773 900 773 c 128,-1,10
 785 773 785 773 726.5 691.5 c 128,-1,11
 668 610 668 610 668 500 c 0,12,13
 668 236 668 236 904 236 c 0,14,6
 1023 236 1023 236 1084.5 315 c 128,-1,7
114 492 m 0,15,16
 114 1070 114 1070 956 1070 c 0,17,18
 1270 1070 1270 1070 1476 928 c 0,19,20
 1576 860 1576 860 1631.5 757 c 128,-1,21
 1687 654 1687 654 1687 539 c 0,22,23
 1687 238 1687 238 1484.5 100.5 c 128,-1,24
 1282 -37 1282 -37 888 -37 c 0,25,26
 114 -37 114 -37 114 492 c 0,15,16
EndSplineSet
EndChar

StartChar: thorn
Encoding: 254 254 189
Width: 1913
Flags: W
LayerCount: 2
Fore
SplineSet
691 -311 m 1,0,1
 273 -353 273 -353 142 -353 c 2,2,-1
 132 -353 l 1,3,4
 129 -236 129 -236 129 -232 c 2,5,-1
 193 1308 l 1,6,-1
 217 1339 l 1,7,8
 217 1345 217 1345 385 1387.5 c 128,-1,9
 553 1430 553 1430 595.5 1442 c 128,-1,10
 638 1454 638 1454 679.5 1454 c 128,-1,11
 721 1454 721 1454 720 1420 c 2,12,-1
 713 951 l 1,13,14
 891 1070 891 1070 1192 1070 c 0,15,16
 1363 1070 1363 1070 1503 1004 c 128,-1,17
 1643 938 1643 938 1723 821 c 128,-1,18
 1803 704 1803 704 1803 567 c 128,-1,19
 1803 430 1803 430 1746.5 317.5 c 128,-1,20
 1690 205 1690 205 1595.5 128.5 c 128,-1,21
 1501 52 1501 52 1376.5 9 c 128,-1,22
 1252 -34 1252 -34 1126 -34 c 0,23,24
 875 -34 875 -34 705 72 c 1,25,-1
 705 65 l 2,26,27
 705 64 705 64 698 -76 c 128,-1,28
 691 -216 691 -216 691 -311 c 1,0,1
986 751 m 0,29,30
 760 751 760 751 728 557 c 0,31,32
 720 511 720 511 720 450 c 0,33,34
 720 329 720 329 783 281 c 128,-1,35
 846 233 846 233 958 233 c 128,-1,36
 1070 233 1070 233 1141 321 c 128,-1,37
 1212 409 1212 409 1212 519.5 c 128,-1,38
 1212 630 1212 630 1148.5 690.5 c 128,-1,39
 1085 751 1085 751 986 751 c 0,29,30
EndSplineSet
EndChar

StartChar: Hbar
Encoding: 294 294 223
Width: 2421
Flags: W
LayerCount: 2
Fore
SplineSet
1498 1134 m 1,0,-1
 961 1134 l 1,1,-1
 950 943 l 1,2,-1
 1488 943 l 1,3,4
 1486 953 1486 953 1498 1134 c 1,0,-1
1519 1440 m 1,5,-1
 1631 1438 l 1,6,-1
 2237 1454 l 1,7,8
 2233 1384 2233 1384 2228 1315 c 1,9,-1
 2420 1315 l 1,10,-1
 2413 1138 l 1,11,12
 2322 1137 2322 1137 2219 1137 c 1,13,14
 2201 798 2201 798 2201 717 c 1,15,-1
 2180 2 l 1,16,-1
 1462 -11 l 1,17,18
 1462 164 1462 164 1476 432 c 1,19,-1
 942 432 l 1,20,-1
 916 2 l 1,21,-1
 226 -17 l 1,22,23
 226 160 226 160 235 402 c 2,24,-1
 262 1133 l 1,25,-1
 62 1133 l 1,26,-1
 74 1306 l 1,27,-1
 273 1306 l 1,28,29
 277 1397 277 1397 279 1413.5 c 128,-1,30
 281 1430 281 1430 282 1444 c 1,31,32
 438 1453 438 1453 969 1453 c 2,33,-1
 988 1453 l 1,34,-1
 974 1310 l 1,35,-1
 1509 1312 l 1,36,-1
 1519 1440 l 1,5,-1
EndSplineSet
EndChar

StartChar: dotlessi
Encoding: 305 305 234
Width: 944
Flags: W
LayerCount: 2
Fore
SplineSet
205 1020 m 1,0,1
 369 1031 369 1031 511.5 1031 c 128,-1,2
 654 1031 654 1031 779 1023 c 1,3,-1
 737 1 l 1,4,5
 681 -1 681 -1 551 -1 c 128,-1,6
 421 -1 421 -1 157 4 c 1,7,8
 157 26 157 26 163.5 170.5 c 128,-1,9
 170 315 170 315 181 598.5 c 128,-1,10
 192 882 192 882 205 1020 c 1,0,1
EndSplineSet
EndChar

StartChar: kgreenlandic
Encoding: 312 312 241
Width: 1768
Flags: W
LayerCount: 2
Fore
SplineSet
1146 -18 m 1,0,-1
 833 331 l 1,1,-1
 718 241 l 1,2,-1
 713 -2 l 1,3,-1
 130 -11 l 1,4,-1
 165 995 l 1,5,-1
 336 995 l 1,6,-1
 753 990 l 1,7,-1
 738 638 l 1,8,9
 931 853 931 853 1047 978 c 1,10,-1
 1599 989 l 2,11,12
 1642 989 1642 989 1720 987 c 1,13,14
 1672 937 1672 937 1532 786.5 c 128,-1,15
 1392 636 1392 636 1263 509 c 1,16,17
 1449 311 1449 311 1762 7 c 1,18,-1
 1146 -18 l 1,0,-1
EndSplineSet
EndChar

StartChar: Lslash
Encoding: 321 321 247
Width: 1936
Flags: W
LayerCount: 2
Fore
SplineSet
1829 -6 m 1,0,-1
 419 -6 l 2,1,2
 250 -6 250 -6 158 0 c 1,3,4
 161 40 161 40 168.5 271.5 c 128,-1,5
 176 503 176 503 178 521 c 1,6,-1
 41 486 l 1,7,-1
 34 827 l 1,8,9
 85 839 85 839 193 865 c 1,10,11
 212 1310 212 1310 221 1435 c 1,12,13
 372 1452 372 1452 595.5 1452 c 128,-1,14
 819 1452 819 1452 965 1450 c 1,15,-1
 946 1047 l 1,16,17
 1292 1131 1292 1131 1350 1145 c 1,18,-1
 1350 1111 l 2,19,20
 1350 1086 1350 1086 1336 944 c 128,-1,21
 1322 802 1322 802 1314 768 c 1,22,23
 1191 738 1191 738 1091.5 717.5 c 128,-1,24
 992 697 992 697 927 683 c 1,25,26
 924 642 924 642 916 536.5 c 128,-1,27
 908 431 908 431 903 360 c 1,28,-1
 1688 378 l 1,29,30
 1804 378 1804 378 1877 367 c 1,31,32
 1877 303 1877 303 1861 200 c 2,33,-1
 1829 -6 l 1,0,-1
EndSplineSet
EndChar

StartChar: lslash
Encoding: 322 322 248
Width: 892
Flags: W
LayerCount: 2
Fore
SplineSet
983 1096 m 1,0,-1
 997 739 l 1,1,2
 974 734 974 734 754 671 c 1,3,-1
 730 -1 l 1,4,-1
 146 -17 l 1,5,-1
 162 499 l 1,6,7
 59 469 59 469 18 457 c 1,8,-1
 -3 818 l 1,9,10
 51 833 51 833 174 868 c 1,11,-1
 176 928 l 1,12,13
 195 1381 195 1381 195 1438 c 1,14,15
 235 1440 235 1440 460 1450.5 c 128,-1,16
 685 1461 685 1461 786 1466 c 1,17,-1
 779 1343 l 1,18,-1
 768 1035 l 1,19,20
 925 1079 925 1079 983 1096 c 1,0,-1
EndSplineSet
EndChar

StartChar: OE
Encoding: 338 338 261
Width: 3373
Flags: W
LayerCount: 2
Fore
SplineSet
1662 1046 m 1,0,-1
 1420 1046 l 2,1,2
 1190 1046 1190 1046 1083 986 c 0,3,4
 1040 961 1040 961 1008 925 c 0,5,6
 942 850 942 850 942 687 c 128,-1,7
 942 524 942 524 1035.5 430 c 128,-1,8
 1129 336 1129 336 1302 336 c 0,9,10
 1546 336 1546 336 1641 342 c 1,11,-1
 1662 1046 l 1,0,-1
1265 1439 m 1,12,-1
 3243 1446 l 1,13,14
 3243 1376 3243 1376 3236 1238 c 128,-1,15
 3229 1100 3229 1100 3221 1036 c 1,16,17
 3126 1035 3126 1035 2838 1034 c 128,-1,18
 2550 1033 2550 1033 2389 1031 c 1,19,-1
 2377 871 l 1,20,21
 2727 875 2727 875 2850.5 875 c 128,-1,22
 2974 875 2974 875 3044 877 c 1,23,24
 3044 793 3044 793 2999 545 c 1,25,26
 2868 550 2868 550 2610 550 c 2,27,-1
 2548 550 l 2,28,29
 2493 550 2493 550 2365 548 c 1,30,-1
 2354 350 l 1,31,-1
 3261 350 l 1,32,33
 3261 142 3261 142 3252 -3 c 1,34,-1
 1102 1 l 2,35,36
 776 0 776 0 526 116 c 0,37,38
 352 196 352 196 246.5 341.5 c 128,-1,39
 141 487 141 487 141 698 c 0,40,41
 141 1022 141 1022 425 1220 c 0,42,43
 741 1440 741 1440 1265 1439 c 1,12,-1
EndSplineSet
EndChar

StartChar: oe
Encoding: 339 339 262
Width: 2665
Flags: W
LayerCount: 2
Fore
SplineSet
1146 519 m 1,0,1
 1146 522 l 2,2,3
 1146 632 1146 632 1080.5 702.5 c 128,-1,4
 1015 773 1015 773 900 773 c 128,-1,5
 785 773 785 773 726.5 691.5 c 128,-1,6
 668 610 668 610 668 500 c 0,7,8
 668 236 668 236 904 236 c 0,9,10
 1025 236 1025 236 1081 310.5 c 128,-1,11
 1137 385 1137 385 1146 519 c 1,0,1
2470 80 m 1,12,13
 2407 32 2407 32 2248 -3 c 128,-1,14
 2089 -38 2089 -38 1933 -38 c 2,15,-1
 1924 -38 l 1,16,17
 1763 -37 1763 -37 1625.5 -2 c 128,-1,18
 1488 33 1488 33 1409 96 c 1,19,20
 1239 -37 1239 -37 888 -37 c 0,21,22
 114 -37 114 -37 114 492 c 0,23,24
 114 852 114 852 443 988 c 0,25,26
 642 1070 642 1070 945 1070 c 0,27,28
 1089 1070 1089 1070 1221 1028 c 128,-1,29
 1353 986 1353 986 1434 914 c 1,30,31
 1515 984 1515 984 1649 1028 c 128,-1,32
 1783 1072 1783 1072 1906 1072 c 0,33,34
 2096 1072 2096 1072 2266 990 c 0,35,36
 2379 936 2379 936 2449.5 837.5 c 128,-1,37
 2520 739 2520 739 2520 600 c 1,38,-1
 2508 438 l 1,39,-1
 1697 442 l 1,40,41
 1721 351 1721 351 1813.5 299 c 128,-1,42
 1906 247 1906 247 2066 247 c 128,-1,43
 2226 247 2226 247 2435 334 c 1,44,-1
 2489 334 l 1,45,-1
 2470 80 l 1,12,13
1717 624 m 1,46,-1
 2078 624 l 1,47,48
 2077 717 2077 717 2034.5 756.5 c 128,-1,49
 1992 796 1992 796 1910.5 796 c 128,-1,50
 1829 796 1829 796 1779 747.5 c 128,-1,51
 1729 699 1729 699 1717 624 c 1,46,-1
EndSplineSet
EndChar

StartChar: uni0237
Encoding: 567 567 340
Width: 1087
Flags: W
LayerCount: 2
Fore
SplineSet
-63 -438 m 1,0,1
 -28 -119 l 1,2,3
 48 -123 48 -123 96.5 -123 c 128,-1,4
 145 -123 145 -123 187.5 -112.5 c 128,-1,5
 230 -102 230 -102 268 -71 c 0,6,7
 343 -11 343 -11 353 184 c 0,8,9
 371 540 371 540 380 1000 c 1,10,11
 383 1000 383 1000 596.5 1009.5 c 128,-1,12
 810 1019 810 1019 900 1026 c 1,13,-1
 903 1026 l 2,14,15
 936 1026 936 1026 965 1023 c 1,16,-1
 936 103 l 1,17,18
 920 -202 920 -202 746 -328 c 0,19,20
 580 -448 580 -448 267 -448 c 1,21,22
 86 -448 86 -448 -63 -439 c 1,23,-1
 -63 -438 l 1,0,1
EndSplineSet
EndChar

StartChar: circumflex
Encoding: 710 710 341
Width: 1104
Flags: W
LayerCount: 2
Fore
SplineSet
165 1369 m 2,0,-1
 165 1382 l 2,1,2
 165 1387 165 1387 228 1457 c 0,3,4
 292 1527 292 1527 524 1798 c 0,5,6
 529 1803 529 1803 532.5 1803 c 128,-1,7
 536 1803 536 1803 538 1801 c 1,8,-1
 686 1801 l 2,9,10
 688 1801 688 1801 818 1603.5 c 128,-1,11
 948 1406 948 1406 948 1396 c 128,-1,12
 948 1386 948 1386 945 1382 c 1,13,-1
 945 1380 l 2,14,15
 945 1365 945 1365 890 1331 c 128,-1,16
 835 1297 835 1297 776.5 1269 c 128,-1,17
 718 1241 718 1241 707 1241 c 1,18,-1
 580 1506 l 1,19,20
 384 1252 384 1252 380 1246 c 1,21,-1
 380 1243 l 1,22,23
 361 1243 361 1243 339 1256.5 c 128,-1,24
 317 1270 317 1270 241 1309.5 c 128,-1,25
 165 1349 165 1349 165 1369 c 2,0,-1
EndSplineSet
EndChar

StartChar: caron
Encoding: 711 711 342
Width: 1094
Flags: W
LayerCount: 2
Fore
SplineSet
131 1677 m 1,0,-1
 134 1691 l 1,1,2
 134 1714 134 1714 248.5 1775 c 128,-1,3
 363 1836 363 1836 385 1836 c 0,4,5
 387 1836 387 1836 399 1812 c 2,6,-1
 521 1558 l 1,7,8
 729 1827 729 1827 733 1833 c 1,9,-1
 733 1836 l 1,10,11
 753 1836 753 1836 776 1822 c 128,-1,12
 799 1808 799 1808 879.5 1765 c 128,-1,13
 960 1722 960 1722 960 1703 c 2,14,-1
 960 1689 l 2,15,16
 960 1683 960 1683 887.5 1602.5 c 128,-1,17
 815 1522 815 1522 580 1249 c 0,18,19
 576 1245 576 1245 571 1245 c 2,20,-1
 408 1245 l 1,21,22
 406 1246 406 1246 268.5 1450.5 c 128,-1,23
 131 1655 131 1655 131 1677 c 1,0,-1
EndSplineSet
EndChar

StartChar: breve
Encoding: 728 728 343
Width: 834
Flags: W
LayerCount: 2
Fore
SplineSet
285 1465 m 1,0,-1
 282 1434 l 1,1,2
 282 1397 282 1397 310 1368 c 128,-1,3
 338 1339 338 1339 402 1339 c 128,-1,4
 466 1339 466 1339 497.5 1368.5 c 128,-1,5
 529 1398 529 1398 529 1463 c 1,6,-1
 738 1465 l 1,7,8
 738 1311 738 1311 639.5 1231 c 128,-1,9
 541 1151 541 1151 397.5 1151 c 128,-1,10
 254 1151 254 1151 164 1219.5 c 128,-1,11
 74 1288 74 1288 74 1394 c 0,12,13
 74 1429 74 1429 84 1465 c 1,14,-1
 285 1465 l 1,0,-1
EndSplineSet
EndChar

StartChar: dotaccent
Encoding: 729 729 344
Width: 579
Flags: W
LayerCount: 2
Fore
SplineSet
73 1396 m 2,0,-1
 73 1400 l 1,1,2
 88 1759 88 1759 94 1773.5 c 128,-1,3
 100 1788 100 1788 117 1788 c 0,4,5
 256 1788 256 1788 482 1790 c 0,6,7
 505 1790 505 1790 503 1766 c 2,8,-1
 475 1452 l 2,9,10
 470 1405 470 1405 463 1399 c 128,-1,11
 456 1393 456 1393 445 1392 c 0,12,13
 341 1389 341 1389 84 1389 c 0,14,15
 73 1389 73 1389 73 1396 c 2,0,-1
EndSplineSet
EndChar

StartChar: ring
Encoding: 730 730 345
Width: 710
Flags: W
LayerCount: 2
Fore
SplineSet
457 1472 m 0,0,1
 458 1594 458 1594 364 1594 c 0,2,3
 312 1594 312 1594 278.5 1552.5 c 128,-1,4
 245 1511 245 1511 245 1460 c 0,5,6
 245 1338 245 1338 334 1338 c 0,7,8
 393 1338 393 1338 425 1379.5 c 128,-1,9
 457 1421 457 1421 457 1472 c 0,0,1
557 1280.5 m 128,-1,11
 478 1192 478 1192 354.5 1192 c 128,-1,12
 231 1192 231 1192 152 1263.5 c 128,-1,13
 73 1335 73 1335 73 1453.5 c 128,-1,14
 73 1572 73 1572 159.5 1654.5 c 128,-1,15
 246 1737 246 1737 365 1737 c 128,-1,16
 484 1737 484 1737 560 1667 c 128,-1,17
 636 1597 636 1597 636 1483 c 128,-1,10
 636 1369 636 1369 557 1280.5 c 128,-1,11
EndSplineSet
EndChar

StartChar: ogonek
Encoding: 731 731 346
Width: 544
Flags: W
LayerCount: 2
Fore
SplineSet
50 -386 m 1,0,1
 58 -275 58 -275 128.5 -181.5 c 128,-1,2
 199 -88 199 -88 304 -17 c 1,3,-1
 483 -17 l 1,4,5
 445 -56 445 -56 399.5 -136.5 c 128,-1,6
 354 -217 354 -217 354 -284 c 0,7,8
 354 -392 354 -392 495 -412 c 1,9,-1
 475 -565 l 1,10,11
 400 -588 400 -588 302.5 -588 c 128,-1,12
 205 -588 205 -588 127.5 -537.5 c 128,-1,13
 50 -487 50 -487 50 -386 c 1,0,1
EndSplineSet
EndChar

StartChar: tilde
Encoding: 732 732 347
Width: 1120
Flags: W
LayerCount: 2
Fore
SplineSet
372 1403 m 0,0,1
 293 1403 293 1403 293 1293 c 1,2,-1
 63 1284 l 1,3,4
 63 1469 63 1469 162 1586.5 c 128,-1,5
 261 1704 261 1704 405 1704 c 0,6,7
 500 1704 500 1704 557 1682 c 128,-1,8
 614 1660 614 1660 660 1595.5 c 128,-1,9
 706 1531 706 1531 737.5 1531 c 128,-1,10
 769 1531 769 1531 787 1544 c 128,-1,11
 805 1557 805 1557 812.5 1597.5 c 128,-1,12
 820 1638 820 1638 830 1638 c 2,13,-1
 1060 1628 l 1,14,15
 1060 1478 1060 1478 963 1349 c 0,16,17
 918 1289 918 1289 850.5 1251.5 c 128,-1,18
 783 1214 783 1214 708.5 1214 c 128,-1,19
 634 1214 634 1214 573 1246 c 128,-1,20
 512 1278 512 1278 452 1366 c 0,21,22
 427 1403 427 1403 372 1403 c 0,0,1
EndSplineSet
EndChar

StartChar: hungarumlaut
Encoding: 733 733 348
Width: 1092
Flags: W
LayerCount: 2
Fore
SplineSet
226 1159 m 1,0,-1
 89 1241 l 1,1,-1
 240 1690 l 1,2,-1
 488 1528 l 1,3,-1
 226 1159 l 1,0,-1
624 1153 m 1,4,-1
 511 1253 l 1,5,6
 728 1705 l 1,7,-1
 978 1521 l 1,8,-1
 624 1153 l 1,4,-1
EndSplineSet
EndChar

StartChar: uni030F
Encoding: 783 783 349
Width: 1151
Flags: W
LayerCount: 2
Fore
SplineSet
915 1157 m 1,0,-1
 637 1547 l 1,1,-1
 900 1717 l 1,2,-1
 1060 1244 l 1,3,-1
 915 1157 l 1,0,-1
494 1151 m 1,4,-1
 120 1539 l 1,5,-1
 384 1734 l 1,6,-1
 615 1256 l 1,7,-1
 494 1151 l 1,4,-1
EndSplineSet
EndChar

StartChar: uni0311
Encoding: 785 785 350
Width: 681
Flags: W
LayerCount: 2
Fore
SplineSet
478 1205 m 0,0,1
 478 1312 478 1312 356 1312 c 0,2,3
 288 1312 288 1312 256.5 1271.5 c 128,-1,4
 225 1231 225 1231 225 1183 c 1,5,-1
 57 1203 l 1,6,7
 57 1334 57 1334 149.5 1411 c 128,-1,8
 242 1488 242 1488 381 1488 c 0,9,10
 583 1488 583 1488 641 1298 c 0,11,12
 657 1246 657 1246 657 1189 c 1,13,-1
 476 1179 l 1,14,15
 478 1193 478 1193 478 1205 c 0,0,1
EndSplineSet
EndChar

StartChar: endash
Encoding: 8211 8211 360
Width: 1031
Flags: W
LayerCount: 2
Fore
SplineSet
930 523 m 1,0,-1
 591 523 l 1,1,-1
 246 517 l 1,2,-1
 99 517 l 1,3,-1
 112 784 l 1,4,-1
 932 790 l 1,5,-1
 930 523 l 1,0,-1
EndSplineSet
EndChar

StartChar: emdash
Encoding: 8212 8212 361
Width: 1409
Flags: W
LayerCount: 2
Fore
SplineSet
705 814 m 1,0,-1
 1275 820 l 1,1,-1
 1255 524 l 1,2,-1
 1017 524 l 1,3,-1
 83 517 l 1,4,-1
 96 814 l 1,5,-1
 705 814 l 1,0,-1
EndSplineSet
EndChar

StartChar: quoteleft
Encoding: 8216 8216 362
Width: 611
Flags: W
LayerCount: 2
Fore
SplineSet
458 1592 m 0,0,1
 498 1592 498 1592 523 1585 c 1,2,-1
 515 1432 l 1,3,4
 395 1416 395 1416 376 1274 c 1,5,-1
 515 1274 l 1,6,-1
 501 914 l 1,7,-1
 92 914 l 1,8,-1
 96 1243 l 2,9,10
 99 1446 99 1446 273 1542 c 0,11,12
 364 1592 364 1592 458 1592 c 0,0,1
EndSplineSet
EndChar

StartChar: quoteright
Encoding: 8217 8217 363
Width: 611
Flags: W
LayerCount: 2
Fore
SplineSet
154 914 m 0,0,1
 114 914 114 914 89 921 c 1,2,-1
 97 1074 l 1,3,4
 217 1090 217 1090 236 1232 c 1,5,-1
 97 1232 l 1,6,-1
 111 1592 l 1,7,-1
 520 1592 l 1,8,-1
 516 1263 l 2,9,10
 513 1060 513 1060 339 964 c 0,11,12
 248 914 248 914 154 914 c 0,0,1
EndSplineSet
EndChar

StartChar: quotesinglbase
Encoding: 8218 8218 364
Width: 621
Flags: W
LayerCount: 2
Fore
SplineSet
161 -331 m 0,0,1
 121 -331 121 -331 96 -324 c 1,2,-1
 104 -171 l 1,3,4
 224 -155 224 -155 243 -13 c 1,5,-1
 104 -13 l 1,6,-1
 98 347 l 1,7,-1
 527 347 l 1,8,-1
 523 18 l 2,9,10
 520 -185 520 -185 346 -281 c 0,11,12
 255 -331 255 -331 161 -331 c 0,0,1
EndSplineSet
EndChar

StartChar: quotedblleft
Encoding: 8220 8220 365
Width: 1211
Flags: W
LayerCount: 2
Fore
SplineSet
458 1576 m 0,0,1
 498 1576 498 1576 523 1569 c 1,2,-1
 515 1416 l 1,3,4
 395 1400 395 1400 376 1258 c 1,5,-1
 515 1258 l 1,6,-1
 501 898 l 1,7,-1
 92 898 l 1,8,-1
 96 1227 l 2,9,10
 99 1430 99 1430 273 1526 c 0,11,12
 364 1576 364 1576 458 1576 c 0,0,1
1058 1576 m 0,13,14
 1098 1576 1098 1576 1123 1569 c 1,15,-1
 1115 1416 l 1,16,17
 995 1400 995 1400 976 1258 c 1,18,-1
 1115 1258 l 1,19,-1
 1101 898 l 1,20,-1
 692 898 l 1,21,-1
 696 1227 l 2,22,23
 699 1430 699 1430 873 1526 c 0,24,25
 964 1576 964 1576 1058 1576 c 0,13,14
EndSplineSet
EndChar

StartChar: quotedblright
Encoding: 8221 8221 366
Width: 1211
Flags: W
LayerCount: 2
Fore
SplineSet
754 898 m 0,0,1
 714 898 714 898 689 905 c 1,2,-1
 697 1058 l 1,3,4
 817 1074 817 1074 836 1216 c 1,5,-1
 697 1216 l 1,6,-1
 711 1576 l 1,7,-1
 1120 1576 l 1,8,-1
 1116 1247 l 2,9,10
 1113 1044 1113 1044 939 948 c 0,11,12
 848 898 848 898 754 898 c 0,0,1
154 898 m 0,13,14
 114 898 114 898 89 905 c 1,15,-1
 97 1058 l 1,16,17
 217 1074 217 1074 236 1216 c 1,18,-1
 97 1216 l 1,19,-1
 111 1576 l 1,20,-1
 520 1576 l 1,21,-1
 516 1247 l 2,22,23
 513 1044 513 1044 339 948 c 0,24,25
 248 898 248 898 154 898 c 0,13,14
EndSplineSet
EndChar

StartChar: daggerdbl
Encoding: 8225 8225 368
Width: 1215
Flags: W
LayerCount: 2
Fore
SplineSet
839 561 m 1,0,-1
 1113 564 l 1,1,-1
 1104 292 l 1,2,3
 978 291 978 291 829 291 c 1,4,-1
 817 0 l 1,5,-1
 356 4 l 1,6,-1
 366 290 l 1,7,-1
 87 290 l 1,8,-1
 94 557 l 1,9,-1
 377 557 l 1,10,-1
 385 757 l 1,11,-1
 105 757 l 1,12,-1
 112 1024 l 1,13,-1
 394 1024 l 1,14,-1
 412 1462 l 1,15,-1
 875 1465 l 1,16,-1
 856 1028 l 1,17,-1
 1131 1031 l 1,18,-1
 1122 759 l 1,19,20
 847 759 l 1,21,-1
 839 561 l 1,0,-1
EndSplineSet
EndChar

StartChar: bullet
Encoding: 8226 8226 369
Width: 1017
Flags: W
LayerCount: 2
Fore
SplineSet
91 669.5 m 128,-1,1
 91 808 91 808 155 905 c 128,-1,2
 219 1002 219 1002 325 1054 c 128,-1,3
 431 1106 431 1106 574 1106 c 128,-1,4
 717 1106 717 1106 822 1000.5 c 128,-1,5
 927 895 927 895 927 740 c 0,6,7
 927 539 927 539 796.5 419 c 128,-1,8
 666 299 666 299 477.5 299 c 128,-1,9
 289 299 289 299 190 415 c 128,-1,0
 91 531 91 531 91 669.5 c 128,-1,1
EndSplineSet
EndChar

StartChar: guilsinglleft
Encoding: 8249 8249 370
Width: 1049
Flags: W
LayerCount: 2
Fore
SplineSet
81 761 m 1,0,1
 179 808 179 808 495.5 925.5 c 128,-1,2
 812 1043 812 1043 856.5 1060 c 128,-1,3
 901 1077 901 1077 919 1077 c 128,-1,4
 937 1077 937 1077 938 1064 c 0,5,6
 956 833 956 833 977 740 c 1,7,8
 977 718 977 718 965 717 c 1,9,-1
 525 555 l 1,10,11
 548 543 548 543 747.5 442.5 c 128,-1,12
 947 342 947 342 968 330.5 c 128,-1,13
 989 319 989 319 989 314 c 128,-1,14
 989 309 989 309 987 301 c 1,15,16
 936 211 936 211 862 -10 c 0,17,18
 855 -29 855 -29 837.5 -29 c 128,-1,19
 820 -29 820 -29 799 -17 c 2,20,-1
 99 391 l 1,21,22
 89 401 89 401 89 421 c 0,23,24
 89 550 89 550 79 644.5 c 128,-1,25
 69 739 69 739 68 740 c 1,26,-1
 68 742 l 1,27,28
 70 761 70 761 81 761 c 1,0,1
EndSplineSet
EndChar

StartChar: guilsinglright
Encoding: 8250 8250 371
Width: 1048
Flags: W
LayerCount: 2
Fore
SplineSet
981 737 m 1,0,-1
 971 411 l 1,1,-1
 907 365 l 1,2,-1
 251 -17 l 1,3,4
 222 -29 222 -29 213 -29 c 1,5,-1
 63 301 l 1,6,7
 61 309 61 309 61 315 c 0,8,9
 61 322 61 322 82 332 c 0,10,11
 433 508 433 508 525 555 c 1,12,-1
 85 717 l 1,13,-1
 112 1061 l 1,14,15
 115 1077 115 1077 128.5 1077 c 128,-1,16
 142 1077 142 1077 173 1068 c 1,17,18
 261 1032 261 1032 538 923 c 128,-1,19
 815 814 815 814 907 767 c 1,20,-1
 981 737 l 1,0,-1
EndSplineSet
EndChar

StartChar: fraction
Encoding: 8260 8260 372
Width: 1341
Flags: W
LayerCount: 2
Fore
SplineSet
1238 1486 m 1,0,-1
 457 -123 l 1,1,-1
 424 -182 l 1,2,-1
 44 -163 l 1,3,4
 149 48 149 48 336.5 434.5 c 128,-1,5
 524 821 524 821 598 970 c 2,6,-1
 926 1630 l 1,7,-1
 1301 1619 l 1,8,-1
 1265 1549 l 1,9,-1
 1238 1486 l 1,0,-1
EndSplineSet
EndChar

StartChar: Euro
Encoding: 8364 8364 373
Width: 1628
Flags: W
LayerCount: 2
Fore
SplineSet
1576 -30 m 1,0,1
 1441 -45 1441 -45 1283.5 -45 c 128,-1,2
 1126 -45 1126 -45 990.5 -28 c 128,-1,3
 855 -11 855 -11 721.5 30 c 128,-1,4
 588 71 588 71 484 134 c 128,-1,5
 380 197 380 197 302.5 296 c 128,-1,6
 225 395 225 395 194 520 c 1,7,-1
 50 520 l 1,8,-1
 60 655 l 1,9,-1
 174 655 l 1,10,11
 173 670 173 670 173 697.5 c 128,-1,12
 173 725 173 725 174 736 c 1,13,-1
 47 736 l 1,14,-1
 58 875 l 1,15,-1
 193 875 l 1,16,17
 306 1322 306 1322 952 1430 c 0,18,19
 1148 1462 1148 1462 1317.5 1462.5 c 128,-1,20
 1487 1463 1487 1463 1576 1453 c 1,21,-1
 1576 1047 l 1,22,23
 1471 1063 1471 1063 1378 1063 c 0,24,25
 1207 1063 1207 1063 1100.5 1012 c 128,-1,26
 994 961 994 961 963 876 c 1,27,-1
 1272 876 l 1,28,-1
 1267 741 l 1,29,30
 1051 739 1051 739 944 739 c 1,31,32
 943 730 943 730 943 706 c 128,-1,33
 943 682 943 682 946 656 c 1,34,-1
 1260 656 l 1,35,-1
 1263 521 l 1,36,37
 1175 519 1175 519 967 519 c 1,38,39
 1056 364 1056 364 1333 364 c 0,40,41
 1447 364 1447 364 1576 389 c 1,42,-1
 1576 -30 l 1,0,1
EndSplineSet
EndChar

StartChar: trademark
Encoding: 8482 8482 374
Width: 2402
Flags: W
LayerCount: 2
Fore
SplineSet
619 482 m 1,0,-1
 318 469 l 1,1,2
 284 469 284 469 286 492 c 2,3,-1
 356 1217 l 1,4,-1
 63 1219 l 2,5,6
 55 1219 55 1219 51 1224.5 c 128,-1,7
 47 1230 47 1230 48 1235 c 2,8,-1
 86 1464 l 1,9,-1
 1065 1464 l 1,10,-1
 1043 1217 l 1,11,-1
 713 1217 l 1,12,13
 712 1207 712 1207 698 1101.5 c 128,-1,14
 684 996 684 996 674 903 c 2,15,-1
 633 503 l 2,16,17
 631 486 631 486 619 482 c 1,0,-1
2174 1446 m 1,18,-1
 2190 1448 l 1,19,20
 2218 1448 2218 1448 2223 1412 c 2,21,-1
 2355 532 l 1,22,-1
 2348 511 l 2,23,24
 2344 500 2344 500 2213.5 487 c 128,-1,25
 2083 474 2083 474 2055 474 c 128,-1,26
 2027 474 2027 474 2023 498 c 2,27,-1
 1938 980 l 1,28,-1
 1714 604 l 1,29,30
 1688 574 1688 574 1663.5 574 c 128,-1,31
 1639 574 1639 574 1624 604 c 2,32,-1
 1431 979 l 1,33,-1
 1340 483 l 1,34,35
 1337 476 1337 476 1322 476 c 2,36,-1
 1062 487 l 1,37,38
 1045 493 1045 493 1044.5 498.5 c 128,-1,39
 1044 504 1044 504 1234 1451 c 1,40,-1
 1525 1440 l 1,41,-1
 1700 1043 l 1,42,-1
 1912 1446 l 1,43,-1
 2174 1446 l 1,18,-1
EndSplineSet
EndChar

StartChar: product
Encoding: 8719 8719 375
Width: 2161
Flags: W
LayerCount: 2
Fore
SplineSet
821 1453 m 2,0,-1
 2089 1453 l 1,1,-1
 2045 563 l 1,2,3
 2044 511 2044 511 2043 442 c 128,-1,4
 2042 373 2042 373 2038.5 258 c 128,-1,5
 2035 143 2035 143 2032 2 c 1,6,-1
 1597 -34 l 2,7,8
 1388 -51 1388 -51 1314 -51 c 1,9,-1
 1314 101 l 2,10,11
 1314 257 1314 257 1366 942 c 1,12,-1
 832 942 l 1,13,-1
 768 2 l 1,14,-1
 208 -24 l 1,15,-1
 78 -17 l 1,16,17
 78 161 78 161 87 402 c 2,18,-1
 108 966 l 1,19,20
 119 1165 119 1165 138 1350 c 1,21,-1
 142 1410 l 1,22,-1
 154 1424 l 1,23,24
 206 1432 206 1432 464 1442.5 c 128,-1,25
 722 1453 722 1453 821 1453 c 2,0,-1
EndSplineSet
EndChar

StartChar: integral
Encoding: 8747 8747 376
Width: 1328
Flags: W
LayerCount: 2
Fore
SplineSet
359 245 m 2,0,-1
 417 981 l 1,1,2
 439 1273 439 1273 592 1395 c 128,-1,3
 745 1517 745 1517 1019 1517 c 0,4,5
 1132 1517 1132 1517 1279 1498 c 1,6,-1
 1277 1176 l 1,7,8
 1189 1185 1189 1185 1154 1185 c 0,9,10
 1069 1185 1069 1185 1040 1144.5 c 128,-1,11
 1011 1104 1011 1104 1004 981 c 2,12,-1
 964 264 l 2,13,14
 948 -35 948 -35 781 -177 c 128,-1,15
 614 -319 614 -319 369 -319 c 0,16,17
 215 -319 215 -319 47 -264 c 1,18,-1
 60 -13 l 1,19,20
 105 -20 105 -20 147 -20 c 0,21,22
 261 -20 261 -20 304.5 42 c 128,-1,23
 348 104 348 104 359 245 c 2,0,-1
EndSplineSet
EndChar

StartChar: uniFB01
Encoding: 64257 64257 377
Width: 2256
Flags: W
LayerCount: 2
Fore
SplineSet
1923 1605 m 0,0,1
 2044 1605 2044 1605 2101.5 1547.5 c 128,-1,2
 2159 1490 2159 1490 2159 1409 c 128,-1,3
 2159 1328 2159 1328 2094 1278 c 0,4,5
 1991 1198 1991 1198 1794 1198 c 128,-1,6
 1597 1198 1597 1198 1550.5 1246 c 128,-1,7
 1504 1294 1504 1294 1504 1370 c 128,-1,8
 1504 1446 1504 1446 1560 1501 c 0,9,10
 1666 1605 1666 1605 1923 1605 c 0,0,1
1116 981 m 1,11,-1
 1619 985 l 1,12,13
 1897 985 1897 985 2092 973 c 1,14,-1
 2051 1 l 1,15,16
 1624 -5 1624 -5 1470 4 c 1,17,18
 1470 118 1470 118 1502 747 c 1,19,-1
 921 747 l 1,20,21
 894 162 894 162 894 124 c 2,22,-1
 891 -4 l 1,23,-1
 385 -8 l 2,24,25
 339 -8 339 -8 294 -5 c 1,26,-1
 290 84 l 1,27,28
 293 254 293 254 322 745 c 1,29,-1
 182 745 l 2,30,31
 123 745 123 745 104 750 c 1,32,33
 108 855 108 855 126 981 c 1,34,-1
 335 981 l 1,35,36
 359 1519 359 1519 1062 1519 c 0,37,38
 1172 1519 1172 1519 1330 1498 c 1,39,-1
 1358 1176 l 1,40,41
 1252 1188 1252 1188 1203.5 1188 c 128,-1,42
 1155 1188 1155 1188 1116.5 1183 c 128,-1,43
 1078 1178 1078 1178 1052 1171 c 128,-1,44
 1026 1164 1026 1164 1005.5 1148.5 c 128,-1,45
 985 1133 985 1133 974 1122 c 128,-1,46
 963 1111 963 1111 951.5 1083.5 c 128,-1,47
 940 1056 940 1056 932 1022 c 128,-1,48
 924 988 924 988 922 981 c 1,49,-1
 1116 981 l 1,11,-1
EndSplineSet
EndChar

StartChar: uniFB02
Encoding: 64258 64258 378
Width: 2285
Flags: W
LayerCount: 2
Fore
SplineSet
921 747 m 1,0,1
 894 162 894 162 894 124 c 2,2,-1
 891 -4 l 1,3,-1
 385 -8 l 2,4,5
 339 -8 339 -8 294 -5 c 1,6,-1
 290 84 l 1,7,8
 293 254 293 254 322 745 c 1,9,-1
 141 745 l 2,10,11
 125 745 125 745 104 750 c 1,12,13
 108 855 108 855 126 981 c 1,14,-1
 335 981 l 1,15,16
 352 1360 352 1360 704 1486 c 0,17,18
 917 1562 917 1562 1256.5 1562.5 c 128,-1,19
 1596 1563 1596 1563 2178 1486 c 1,20,-1
 2128 142 l 1,21,-1
 2130 -2 l 1,22,-1
 1539 -17 l 1,23,-1
 1578 1226 l 1,24,25
 1388 1247 1388 1247 1287 1247 c 0,26,27
 1117 1247 1117 1247 1028 1188.5 c 128,-1,28
 939 1130 939 1130 922 981 c 1,29,-1
 1166 981 l 2,30,31
 1275 981 1275 981 1350 971 c 1,32,33
 1350 871 1350 871 1331 747 c 1,34,-1
 921 747 l 1,0,1
EndSplineSet
EndChar

StartChar: uniFB00
Encoding: 64256 64256 379
Width: 2588
Flags: W
LayerCount: 2
Fore
SplineSet
921 747 m 1,0,1
 894 162 894 162 894 124 c 2,2,-1
 891 -4 l 1,3,-1
 385 -8 l 2,4,5
 339 -8 339 -8 294 -5 c 1,6,-1
 290 84 l 1,7,8
 293 254 293 254 322 745 c 1,9,-1
 141 745 l 2,10,11
 125 745 125 745 104 750 c 1,12,13
 108 855 108 855 126 981 c 1,14,-1
 335 981 l 1,15,16
 347 1255 347 1255 540 1387 c 128,-1,17
 733 1519 733 1519 1082 1519 c 0,18,19
 1232 1519 1232 1519 1390 1498 c 1,20,-1
 1388 1176 l 1,21,22
 1281 1188 1281 1188 1186.5 1188 c 128,-1,23
 1092 1188 1092 1188 1023.5 1152.5 c 128,-1,24
 955 1117 955 1117 922 981 c 1,25,-1
 1309 981 l 2,26,27
 1524 981 1524 981 1558 976 c 1,28,29
 1570 1252 1570 1252 1779.5 1385.5 c 128,-1,30
 1989 1519 1989 1519 2335 1519 c 0,31,32
 2476 1519 2476 1519 2633 1498 c 1,33,-1
 2629 1176 l 1,34,35
 2523 1188 2523 1188 2455 1188 c 128,-1,36
 2387 1188 2387 1188 2325.5 1173.5 c 128,-1,37
 2264 1159 2264 1159 2228.5 1129 c 128,-1,38
 2193 1099 2193 1099 2175.5 1065.5 c 128,-1,39
 2158 1032 2158 1032 2145 981 c 1,40,-1
 2389 981 l 2,41,42
 2498 981 2498 981 2573 971 c 1,43,44
 2573 871 2573 871 2554 747 c 1,45,-1
 2144 747 l 1,46,47
 2117 162 2117 162 2117 124 c 2,48,-1
 2114 -4 l 1,49,-1
 1608 -4 l 2,50,51
 1562 -4 1562 -4 1517 -1 c 1,52,-1
 1513 84 l 1,53,54
 1516 254 1516 254 1545 745 c 1,55,-1
 1498 745 l 2,56,57
 1349 745 1349 745 921 747 c 1,0,1
EndSplineSet
EndChar

StartChar: Dcroat
Encoding: 272 272 380
Width: 1548
Flags: W
LayerCount: 2
Fore
SplineSet
166 563 m 2,0,1
 44 563 44 563 47 591 c 2,2,-1
 84 869 l 1,3,-1
 237 872 l 1,4,5
 258 1159 258 1159 267 1409 c 1,6,7
 889 1461 889 1461 1287 1461 c 0,8,9
 1781 1461 1781 1461 2018 1230 c 0,10,11
 2188 1064 2188 1064 2188 783 c 0,12,13
 2188 360 2188 360 1946 178 c 0,14,15
 1781 54 1781 54 1464.5 16 c 128,-1,16
 1148 -22 1148 -22 576 -22 c 2,17,-1
 153 -22 l 1,18,19
 176 117 176 117 214 563 c 1,20,-1
 166 563 l 2,0,1
931 559 m 1,21,-1
 922 360 l 1,22,23
 1186 363 1186 363 1292 405 c 0,24,25
 1490 482 1490 482 1490 718 c 0,26,27
 1490 913 1490 913 1390 992.5 c 128,-1,28
 1290 1072 1290 1072 1172 1072 c 0,29,30
 1095 1072 1095 1072 955 1064 c 1,31,-1
 946 873 l 1,32,-1
 1107 873 l 2,33,34
 1146 873 1146 873 1155 866 c 128,-1,35
 1164 859 1164 859 1163 844 c 2,36,-1
 1147 559 l 1,37,-1
 931 559 l 1,21,-1
EndSplineSet
EndChar

StartChar: uniFB04
Encoding: 64260 64260 385
Width: 3402
Flags: W
LayerCount: 2
Fore
SplineSet
921 746 m 1,0,1
 894 161 894 161 894 124 c 2,2,-1
 891 -4 l 1,3,-1
 385 -8 l 2,4,5
 335 -8 335 -8 290 -5 c 1,6,-1
 290 84 l 1,7,8
 293 254 293 254 322 745 c 1,9,-1
 141 745 l 2,10,11
 125 745 125 745 104 750 c 1,12,13
 108 855 108 855 126 981 c 1,14,-1
 335 981 l 1,15,16
 359 1519 359 1519 1066 1519 c 0,17,18
 1166 1519 1166 1519 1324 1498 c 1,19,20
 1324 1335 1324 1335 1352 1176 c 1,21,22
 1245 1188 1245 1188 1184 1188 c 0,23,24
 1037 1188 1037 1188 987.5 1132 c 128,-1,25
 938 1076 938 1076 922 981 c 1,26,-1
 1522 981 l 1,27,28
 1568 1570 1568 1570 2505 1570 c 0,29,30
 2824 1570 2824 1570 3294 1486 c 1,31,-1
 3245 142 l 1,32,-1
 3247 -2 l 1,33,-1
 2656 -17 l 1,34,-1
 2695 1216 l 1,35,36
 2518 1237 2518 1237 2411 1237 c 128,-1,37
 2304 1237 2304 1237 2232 1209 c 128,-1,38
 2160 1181 2160 1181 2134.5 1128 c 128,-1,39
 2109 1075 2109 1075 2109 981 c 1,40,-1
 2323 981 l 2,41,42
 2392 981 2392 981 2467 971 c 1,43,-1
 2448 747 l 1,44,-1
 2108 747 l 1,45,46
 2081 162 2081 162 2081 124 c 2,47,-1
 2078 -4 l 1,48,-1
 1572 -8 l 2,49,50
 1526 -8 1526 -8 1481 -5 c 1,51,-1
 1477 84 l 1,52,53
 1480 256 1480 256 1509 746 c 1,54,-1
 921 746 l 1,0,1
EndSplineSet
EndChar

StartChar: approxequal
Encoding: 8776 8776 391
Width: 1253
Flags: W
LayerCount: 2
Fore
SplineSet
1049 528 m 1,0,-1
 1192 293 l 1,1,2
 1065 169 1065 169 918 169 c 0,3,4
 830 169 830 169 644 229.5 c 128,-1,5
 458 290 458 290 376 290 c 0,6,7
 250 290 250 290 180 189 c 1,8,-1
 64 416 l 1,9,10
 186 585 186 585 341 585 c 0,11,12
 398 585 398 585 500 552 c 128,-1,13
 602 519 602 519 710.5 486 c 128,-1,14
 819 453 819 453 891 453 c 0,15,16
 1000 453 1000 453 1049 528 c 1,0,-1
1049 1038 m 1,17,-1
 1192 803 l 1,18,19
 1065 679 1065 679 918 679 c 0,20,21
 830 679 830 679 644 739.5 c 128,-1,22
 458 800 458 800 376 800 c 0,23,24
 250 800 250 800 180 699 c 1,25,-1
 64 926 l 1,26,27
 186 1095 186 1095 341 1095 c 0,28,29
 398 1095 398 1095 500 1062 c 128,-1,30
 602 1029 602 1029 710.5 996 c 128,-1,31
 819 963 819 963 891 963 c 0,32,33
 1000 963 1000 963 1049 1038 c 1,17,-1
EndSplineSet
EndChar

StartChar: dagger
Encoding: 8224 8224 392
Width: 1209
Flags: W
LayerCount: 2
Fore
SplineSet
842 1028 m 1,0,-1
 1117 1031 l 1,1,-1
 1108 759 l 1,2,3
 833 759 l 1,4,-1
 803 0 l 1,5,-1
 342 4 l 1,6,-1
 371 757 l 1,7,-1
 91 757 l 1,8,-1
 98 1024 l 1,9,-1
 380 1024 l 1,10,-1
 398 1462 l 1,11,-1
 861 1465 l 1,12,-1
 842 1028 l 1,0,-1
EndSplineSet
EndChar

StartChar: ellipsis
Encoding: 8230 8230 393
Width: 1771
Flags: W
LayerCount: 2
Fore
SplineSet
1252 -42 m 2,0,-1
 1252 -38 l 1,1,2
 1267 321 1267 321 1273 335.5 c 128,-1,3
 1279 350 1279 350 1296 350 c 0,4,5
 1435 350 1435 350 1661 352 c 0,6,7
 1684 352 1684 352 1682 328 c 2,8,-1
 1654 14 l 2,9,10
 1649 -33 1649 -33 1642 -39 c 128,-1,11
 1635 -45 1635 -45 1624 -46 c 0,12,13
 1520 -49 1520 -49 1263 -49 c 0,14,15
 1252 -49 1252 -49 1252 -42 c 2,0,-1
673 -42 m 2,16,-1
 673 -38 l 1,17,18
 688 321 688 321 694 335.5 c 128,-1,19
 700 350 700 350 717 350 c 0,20,21
 856 350 856 350 1082 352 c 0,22,23
 1105 352 1105 352 1103 328 c 2,24,-1
 1075 14 l 2,25,26
 1070 -33 1070 -33 1063 -39 c 128,-1,27
 1056 -45 1056 -45 1045 -46 c 0,28,29
 942 -49 942 -49 684 -49 c 0,30,31
 673 -49 673 -49 673 -42 c 2,16,-1
94 -42 m 2,32,-1
 94 -38 l 1,33,34
 109 321 109 321 115 335.5 c 128,-1,35
 121 350 121 350 138 350 c 0,36,37
 277 350 277 350 503 352 c 0,38,39
 526 352 526 352 524 328 c 2,40,-1
 496 14 l 2,41,42
 491 -33 491 -33 484.5 -39.5 c 128,-1,43
 478 -46 478 -46 420 -47.5 c 128,-1,44
 362 -49 362 -49 105 -49 c 0,45,46
 94 -49 94 -49 94 -42 c 2,32,-1
EndSplineSet
EndChar

StartChar: florin
Encoding: 402 402 394
Width: 1438
Flags: W
LayerCount: 2
Fore
SplineSet
357 245 m 1,0,-1
 389 745 l 1,1,-1
 211 745 l 1,2,3
 205 749 205 749 192 754 c 1,4,-1
 206 981 l 1,5,-1
 415 981 l 1,6,7
 443 1262 443 1262 620.5 1390 c 128,-1,8
 798 1518 798 1518 1110 1518 c 0,9,10
 1236 1518 1236 1518 1387 1498 c 1,11,-1
 1385 1176 l 1,12,13
 1292 1186 1292 1186 1223.5 1186 c 128,-1,14
 1155 1186 1155 1186 1111.5 1163 c 128,-1,15
 1068 1140 1068 1140 1046 1097.5 c 128,-1,16
 1024 1055 1024 1055 1002 981 c 1,17,-1
 1359 981 l 1,18,-1
 1329 747 l 1,19,-1
 989 747 l 1,20,-1
 962 264 l 2,21,22
 942 -107 942 -107 710 -260 c 0,23,24
 576 -348 576 -348 398.5 -348 c 128,-1,25
 221 -348 221 -348 45 -274 c 1,26,-1
 58 -73 l 1,27,28
 108 -83 108 -83 144.5 -83 c 128,-1,29
 181 -83 181 -83 220.5 -73.5 c 128,-1,30
 260 -64 260 -64 288 -31.5 c 128,-1,31
 316 1 316 1 333 57 c 128,-1,32
 350 113 350 113 357 245 c 1,0,-1
EndSplineSet
EndChar

StartChar: greaterequal
Encoding: 8805 8805 395
Width: 1188
Flags: W
LayerCount: 2
Fore
SplineSet
1076 -1 m 1,0,-1
 85 2 l 1,1,-1
 98 241 l 1,2,-1
 1078 241 l 1,3,-1
 1076 -1 l 1,0,-1
1096 1062 m 1,4,-1
 1098 606 l 1,5,-1
 190 338 l 1,6,-1
 96 675 l 1,7,8
 106 678 106 678 396 750 c 128,-1,9
 686 822 686 822 712 836 c 1,10,-1
 92 958 l 1,11,-1
 140 1299 l 1,12,13
 273 1259 273 1259 664 1166 c 128,-1,14
 1055 1073 1055 1073 1096 1062 c 1,4,-1
EndSplineSet
EndChar

StartChar: infinity
Encoding: 8734 8734 396
Width: 2001
Flags: W
LayerCount: 2
Fore
SplineSet
1137 771 m 1,0,1
 1210 716 1210 716 1246 692 c 0,2,3
 1342 626 1342 626 1410.5 625.5 c 128,-1,4
 1479 625 1479 625 1516 668.5 c 128,-1,5
 1553 712 1553 712 1553 771 c 128,-1,6
 1553 830 1553 830 1516.5 873 c 128,-1,7
 1480 916 1480 916 1421 916 c 128,-1,8
 1362 916 1362 916 1308 886 c 128,-1,9
 1254 856 1254 856 1204 819.5 c 128,-1,10
 1154 783 1154 783 1151.5 781 c 128,-1,11
 1149 779 1149 779 1137 771 c 1,0,1
1001 549 m 1,12,13
 896 444 896 444 763 386.5 c 128,-1,14
 630 329 630 329 523 329 c 0,15,16
 327 329 327 329 209.5 438 c 128,-1,17
 92 547 92 547 92 771 c 128,-1,18
 92 995 92 995 209.5 1104 c 128,-1,19
 327 1213 327 1213 501 1213 c 0,20,21
 630 1213 630 1213 763 1155 c 128,-1,22
 896 1097 896 1097 1001 992 c 1,23,24
 1106 1097 1106 1097 1238.5 1155 c 128,-1,25
 1371 1213 1371 1213 1478 1213 c 0,26,27
 1674 1213 1674 1213 1791.5 1104 c 128,-1,28
 1909 995 1909 995 1909 770 c 0,29,30
 1909 448 1909 448 1658 356 c 0,31,32
 1585 330 1585 330 1478 329.5 c 128,-1,33
 1371 329 1371 329 1238.5 386.5 c 128,-1,34
 1106 444 1106 444 1001 549 c 1,12,13
864 771 m 1,35,36
 735 864 735 864 685 890 c 128,-1,37
 635 916 635 916 578 916 c 128,-1,38
 521 916 521 916 484.5 873 c 128,-1,39
 448 830 448 830 448 771 c 128,-1,40
 448 712 448 712 485 668.5 c 128,-1,41
 522 625 522 625 582.5 625 c 128,-1,42
 643 625 643 625 700.5 658 c 128,-1,43
 758 691 758 691 864 771 c 1,35,36
EndSplineSet
EndChar

StartChar: lessequal
Encoding: 8804 8804 397
Width: 1189
Flags: W
LayerCount: 2
Fore
SplineSet
1083 -1 m 1,0,-1
 92 2 l 1,1,-1
 98 241 l 1,2,-1
 1085 241 l 1,3,-1
 1083 -1 l 1,0,-1
485 836 m 1,4,-1
 1101 675 l 1,5,-1
 1007 338 l 1,6,-1
 99 606 l 1,7,-1
 101 1062 l 1,8,9
 157 1076 157 1076 398.5 1136 c 128,-1,10
 640 1196 640 1196 848 1248 c 1,11,-1
 1057 1299 l 1,12,-1
 1105 958 l 1,13,-1
 485 836 l 1,4,-1
EndSplineSet
EndChar

StartChar: lozenge
Encoding: 9674 9674 398
Width: 1076
Flags: W
LayerCount: 2
Fore
SplineSet
72 782 m 1,0,-1
 379 1565 l 1,1,2
 622 1565 622 1565 692 1567 c 1,3,4
 957 910 957 910 1004 784 c 1,5,6
 946 608 946 608 832 335 c 128,-1,7
 718 62 718 62 692 -2 c 1,8,-1
 379 -2 l 1,9,-1
 72 782 l 1,0,-1
370 782 m 1,10,-1
 555 282 l 1,11,-1
 727 784 l 1,12,-1
 555 1283 l 1,13,-1
 370 782 l 1,10,-1
EndSplineSet
EndChar

StartChar: notequal
Encoding: 8800 8800 399
Width: 1136
Flags: W
LayerCount: 2
Fore
SplineSet
403 76 m 1,0,-1
 371 17 l 1,1,-1
 131 35 l 1,2,-1
 249 288 l 1,3,4
 95 288 l 1,5,-1
 101 542 l 1,6,-1
 368 542 l 1,7,-1
 474 765 l 1,8,9
 93 765 l 1,10,-1
 109 1025 l 1,11,-1
 596 1025 l 1,12,-1
 745 1341 l 1,13,-1
 979 1330 l 1,14,-1
 840 1027 l 1,15,-1
 1044 1027 l 1,16,-1
 1033 774 l 1,17,18
 868 770 868 770 722 769 c 1,19,-1
 617 542 l 1,20,-1
 1029 546 l 1,21,-1
 1031 290 l 1,22,23
 925 287 925 287 541 287 c 2,24,-1
 500 287 l 1,25,-1
 403 76 l 1,0,-1
EndSplineSet
EndChar

StartChar: perthousand
Encoding: 8240 8240 400
Width: 3049
Flags: W
LayerCount: 2
Fore
SplineSet
2443 385 m 0,0,1
 2443 159 2443 159 2588 159 c 0,2,3
 2709 160 2709 160 2741 322 c 0,4,5
 2749 362 2749 362 2749 409.5 c 128,-1,6
 2749 457 2749 457 2736.5 504 c 128,-1,7
 2724 551 2724 551 2690 588.5 c 128,-1,8
 2656 626 2656 626 2608 626 c 0,9,10
 2514 626 2514 626 2478.5 551.5 c 128,-1,11
 2443 477 2443 477 2443 385 c 0,0,1
2187 364 m 0,12,13
 2186 646 2186 646 2376 768 c 0,14,15
 2474 830 2474 830 2611 830 c 0,16,17
 2837 830 2837 830 2940 648 c 0,18,19
 3000 542 3000 542 3000 403 c 0,20,21
 3000 192 3000 192 2886 70 c 128,-1,22
 2772 -52 2772 -52 2589.5 -52 c 128,-1,23
 2407 -52 2407 -52 2297 62 c 128,-1,24
 2187 176 2187 176 2187 364 c 0,12,13
1516 385 m 0,25,26
 1516 159 1516 159 1661 159 c 0,27,28
 1782 160 1782 160 1814 322 c 0,29,30
 1822 362 1822 362 1822 409.5 c 128,-1,31
 1822 457 1822 457 1809.5 504 c 128,-1,32
 1797 551 1797 551 1763 588.5 c 0,33,34
 1730 626 1730 626 1682 626 c 0,35,36
 1588 626 1588 626 1552 551.5 c 128,-1,37
 1516 477 1516 477 1516 385 c 0,25,26
1260 364 m 0,38,39
 1260 646 1260 646 1450 768 c 0,40,41
 1548 830 1548 830 1684 830 c 0,42,43
 1910 830 1910 830 2013 648 c 0,44,45
 2073 542 2073 542 2073 403 c 0,46,47
 2073 192 2073 192 1959 70 c 128,-1,48
 1845 -52 1845 -52 1662.5 -52 c 128,-1,49
 1480 -52 1480 -52 1370 62 c 128,-1,50
 1260 176 1260 176 1260 364 c 0,38,39
305 1148 m 0,51,52
 305 922 305 922 450 922 c 0,53,54
 571 922 571 922 603 1084 c 0,55,56
 611 1124 611 1124 611 1172 c 128,-1,57
 611 1220 611 1220 598.5 1267 c 128,-1,58
 586 1314 586 1314 552 1351.5 c 128,-1,59
 518 1389 518 1389 470 1389 c 0,60,61
 376 1389 376 1389 340.5 1314.5 c 128,-1,62
 305 1240 305 1240 305 1148 c 0,51,52
49 1127 m 0,63,64
 48 1408 48 1408 238 1530 c 0,65,66
 336 1592 336 1592 473 1593 c 0,67,68
 699 1593 699 1593 802 1411 c 0,69,70
 862 1305 862 1305 862 1166 c 0,71,72
 862 955 862 955 748 833 c 128,-1,73
 634 711 634 711 451.5 711 c 128,-1,74
 269 711 269 711 159 825 c 128,-1,75
 49 939 49 939 49 1127 c 0,63,64
1030.5 957.5 m 128,-1,77
 1149 1102 1149 1102 1215.5 1184 c 128,-1,78
 1282 1266 1282 1266 1285 1269.5 c 128,-1,79
 1288 1273 1288 1273 1289.5 1275 c 128,-1,80
 1291 1277 1291 1277 1293 1279.5 c 128,-1,81
 1295 1282 1295 1282 1296.5 1283.5 c 128,-1,82
 1298 1285 1298 1285 1300 1286.5 c 128,-1,83
 1302 1288 1302 1288 1303 1289 c 128,-1,84
 1304 1290 1304 1290 1308 1291 c 128,-1,85
 1312 1292 1312 1292 1317 1292 c 128,-1,86
 1322 1292 1322 1292 1381 1245 c 128,-1,87
 1440 1198 1440 1198 1513 1153 c 1,88,89
 1546 1141 1546 1141 1546 1129 c 0,90,91
 1546 1125 1546 1125 1543 1122 c 2,92,-1
 748 158 l 1,93,94
 746 153 746 153 744 151 c 0,95,96
 742 148 742 148 736.5 148 c 128,-1,97
 731 148 731 148 706 153 c 1,98,99
 596 245 596 245 560 268 c 128,-1,100
 524 291 524 291 517 296 c 128,-1,101
 510 301 510 301 510 328 c 1,102,103
 631 466 631 466 771.5 639.5 c 128,-1,76
 912 813 912 813 1030.5 957.5 c 128,-1,77
EndSplineSet
EndChar

StartChar: minus
Encoding: 8722 8722 401
Width: 1065
Flags: W
LayerCount: 2
Fore
SplineSet
587 733 m 1,0,-1
 973 740 l 1,1,2
 973 731 973 731 963 613 c 1,3,-1
 954 517 l 1,4,-1
 92 517 l 1,5,-1
 115 733 l 1,6,-1
 587 733 l 1,0,-1
EndSplineSet
EndChar

StartChar: uni00B5
Encoding: 181 181 402
Width: 1277
Flags: W
LayerCount: 2
Fore
SplineSet
678 -420 m 1,0,-1
 118 -466 l 1,1,2
 118 478 l 1,3,4
 120 612 120 612 130 774 c 0,5,6
 140 936 140 936 141 987 c 1,7,8
 402 1031 402 1031 598 1031 c 0,9,10
 658 1031 658 1031 744 1023 c 1,11,12
 720 562 720 562 720 507 c 0,13,14
 720 390 720 390 770 317.5 c 128,-1,15
 820 245 820 245 922 245 c 0,16,17
 1058 245 1058 245 1114 347 c 0,18,19
 1144 402 1144 402 1162 458 c 0,20,21
 1200 575 1200 575 1200 997 c 1,22,23
 1325 1006 1325 1006 1769 1031 c 1,24,25
 1771 971 1771 971 1771 941 c 1,26,-1
 1721 30 l 1,27,28
 1611 11 1611 11 1406 -17 c 1,29,-1
 1310 190 l 1,30,31
 1211 77 1211 77 1060.5 19.5 c 128,-1,32
 910 -38 910 -38 746 -38 c 0,33,34
 711 -38 711 -38 694 -37 c 1,35,-1
 678 -420 l 1,0,-1
EndSplineSet
EndChar

StartChar: afii10050
Encoding: 1168 1168 410
Width: 1857
Flags: W
LayerCount: 2
Fore
SplineSet
972 940 m 1,0,-1
 948 120 l 1,1,-1
 953 -4 l 1,2,-1
 780 -4 l 2,3,4
 576 -4 576 -4 226 0 c 1,5,6
 241 529 241 529 241 595 c 2,7,-1
 241 715 l 1,8,-1
 275 1452 l 1,9,-1
 1251 1444 l 1,10,-1
 1272 1839 l 1,11,-1
 1819 1823 l 1,12,-1
 1809 945 l 1,13,-1
 1235 940 l 1,14,-1
 972 940 l 1,0,-1
EndSplineSet
EndChar

StartChar: afii10098
Encoding: 1169 1169 411
Width: 2024
Flags: W
LayerCount: 2
Fore
SplineSet
291 1031 m 1,0,-1
 1090 1027 l 1,1,-1
 1106 1312 l 1,2,-1
 1503 1312 l 1,3,-1
 1493 666 l 1,4,-1
 752 666 l 1,5,-1
 746 -7 l 1,6,-1
 728 -7 l 2,7,8
 241 -7 241 -7 148 4 c 1,9,-1
 136 14 l 1,10,-1
 151 1027 l 1,11,-1
 291 1031 l 1,0,-1
EndSplineSet
EndChar

StartChar: uni04B0
Encoding: 1200 1200 412
Width: 2033
Flags: W
LayerCount: 2
Fore
SplineSet
1336 1479 m 1,0,1
 1354 1482 1354 1482 1700.5 1482 c 128,-1,2
 2047 1482 2047 1482 2047 1477 c 128,-1,3
 2047 1472 2047 1472 2039 1460 c 2,4,-1
 2024 1435 l 1,5,-1
 1525 739 l 1,6,-1
 1843 739 l 1,7,8
 1843 730 1843 730 1833 613 c 2,9,-1
 1824 517 l 1,10,-1
 1396 517 l 1,11,-1
 1372 8 l 1,12,-1
 1233 2 l 1,13,-1
 667 -10 l 1,14,15
 656 58 656 58 656 513 c 1,16,-1
 653 517 l 1,17,-1
 151 517 l 1,18,-1
 174 733 l 1,19,-1
 512 733 l 1,20,-1
 55 1429 l 1,21,22
 759 1458 759 1458 792 1458 c 1,23,-1
 1065 1052 l 1,24,-1
 1336 1479 l 1,0,1
EndSplineSet
EndChar

StartChar: uni04B1
Encoding: 1201 1201 413
Width: 1735
Flags: W
LayerCount: 2
Fore
SplineSet
1314 116 m 1,0,-1
 1659 116 l 1,1,2
 1659 107 1659 107 1654.5 71 c 128,-1,3
 1650 35 1650 35 1649 20 c 2,4,-1
 1640 -76 l 1,5,-1
 1238 -76 l 1,6,-1
 1242 -416 l 1,7,-1
 697 -414 l 1,8,-1
 693 -76 l 1,9,-1
 257 -76 l 1,10,-1
 260 110 l 1,11,-1
 596 110 l 1,12,-1
 99 1000 l 1,13,-1
 683 1025 l 1,14,-1
 964 374 l 1,15,16
 983 425 983 425 1069.5 691 c 128,-1,17
 1156 957 1156 957 1183 1024 c 1,18,19
 1219 1027 1219 1027 1250 1027 c 1,20,21
 1701 1010 l 1,22,23
 1612 798 1612 798 1314 116 c 1,0,-1
EndSplineSet
EndChar

StartChar: glyph414
Encoding: 65538 -1 414
Width: 3977
Flags: W
LayerCount: 2
Fore
SplineSet
3437 560 m 1,0,-1
 2856 556 l 1,1,-1
 2845 349 l 1,2,-1
 3895 349 l 1,3,-1
 3883 -13 l 1,4,-1
 2875 -7 l 2,5,6
 2363 -4 2363 -4 2144 -7 c 1,7,8
 2145 -6 2145 -6 2158.5 699 c 128,-1,9
 2172 1404 2172 1404 2172 1428 c 1,10,11
 2292 1433 2292 1433 2329 1433 c 2,12,-1
 3690 1433 l 1,13,-1
 3886 1431 l 1,14,-1
 3868 1069 l 1,15,-1
 2881 1047 l 1,16,17
 2878 1023 2878 1023 2875 966 c 128,-1,18
 2872 909 2872 909 2869 880 c 1,19,-1
 3481 887 l 1,20,-1
 3437 560 l 1,0,-1
1519 560 m 1,21,-1
 927 556 l 1,22,-1
 916 349 l 1,23,-1
 1966 349 l 1,24,-1
 1934 -24 l 1,25,26
 1456 -22 1456 -22 1264 -22 c 128,-1,27
 1072 -22 1072 -22 550 -4 c 1,28,-1
 376 3 l 1,29,-1
 175 -2 l 1,30,-1
 192 350 l 2,31,32
 243 1403 243 1403 243 1428 c 1,33,34
 363 1433 363 1433 400 1433 c 2,35,-1
 1761 1433 l 1,36,-1
 1957 1431 l 1,37,-1
 1916 1069 l 1,38,-1
 952 1047 l 1,39,40
 949 1023 949 1023 945.5 966 c 128,-1,41
 942 909 942 909 940 880 c 1,42,-1
 1562 887 l 1,43,-1
 1562 879 l 2,44,45
 1562 835 1562 835 1548.5 727 c 128,-1,46
 1535 619 1535 619 1519 560 c 1,21,-1
EndSplineSet
EndChar

StartChar: afii10018
Encoding: 1041 1041 416
Width: 2365
Flags: W
LayerCount: 2
Fore
SplineSet
171 -50 m 1,0,-1
 184 111 l 1,1,2
 206 406 206 406 306 1420 c 1,3,4
 1206 1448 1206 1448 1513.5 1448 c 128,-1,5
 1821 1448 1821 1448 1921 1446 c 1,6,7
 1890 1180 1890 1180 1850 1051 c 1,8,-1
 1012 1051 l 1,9,-1
 998 905 l 1,10,11
 1112 910 1112 910 1226 910 c 0,12,13
 1783 910 1783 910 1976 764 c 0,14,15
 2089 678 2089 678 2089 540 c 0,16,17
 2089 343 2089 343 2026.5 240.5 c 128,-1,18
 1964 138 1964 138 1862 83 c 0,19,20
 1612 -52 1612 -52 1060 -52 c 1,21,-1
 171 -50 l 1,0,-1
931 258 m 1,22,23
 1282 258 1282 258 1388 360 c 0,24,25
 1426 398 1426 398 1426 450.5 c 0,26,27
 1426 504 1426 504 1397 534 c 0,28,29
 1343 590 1343 590 1146 590 c 0,30,31
 1074 590 1074 590 964 584 c 1,32,33
 957 501 957 501 945.5 394.5 c 128,-1,34
 934 288 934 288 931 258 c 1,22,23
EndSplineSet
EndChar

StartChar: afii10019
Encoding: 1042 1042 417
Width: 2365
Flags: W
LayerCount: 2
Fore
SplineSet
964 614 m 1,0,-1
 931 298 l 1,1,2
 1219 298 1219 298 1309.5 315 c 128,-1,3
 1400 332 1400 332 1450 348 c 0,4,5
 1552 381 1552 381 1551 449 c 0,6,7
 1551 547 1551 547 1415.5 580.5 c 128,-1,8
 1280 614 1280 614 964 614 c 1,0,-1
1113 845 m 2,9,10
 1508 845 1508 845 1508 1007 c 0,11,12
 1508 1148 1508 1148 1106 1148 c 2,13,-1
 1026 1148 l 1,14,-1
 988 845 l 1,15,-1
 1113 845 l 2,9,10
1062 -4 m 1,16,-1
 178 1 l 1,17,18
 287 1268 287 1268 305 1464 c 1,19,-1
 1266 1468 l 1,20,21
 1846 1468 1846 1468 2063 1302 c 0,22,23
 2174 1217 2174 1217 2174 1093 c 0,24,25
 2174 1007 2174 1007 2080.5 922 c 128,-1,26
 1987 837 1987 837 1862 807 c 1,27,28
 2018 782 2018 782 2116 711.5 c 128,-1,29
 2214 641 2214 641 2214 537 c 128,-1,30
 2214 433 2214 433 2182 352 c 0,31,32
 2111 176 2111 176 1848 86 c 128,-1,33
 1585 -4 1585 -4 1062 -4 c 1,16,-1
EndSplineSet
EndChar

StartChar: afii10020
Encoding: 1043 1043 418
Width: 2421
Flags: W
LayerCount: 2
Fore
SplineSet
1577 1451 m 1,0,-1
 1514 942 l 1,1,-1
 980 942 l 1,2,-1
 926 2 l 1,3,-1
 356 -18 l 1,4,-1
 227 -18 l 1,5,-1
 256 966 l 1,6,-1
 272 1444 l 1,7,-1
 969 1453 l 1,8,-1
 1577 1451 l 1,0,-1
EndSplineSet
EndChar

StartChar: afii10021
Encoding: 1044 1044 419
Width: 2342
Flags: W
LayerCount: 2
Fore
SplineSet
1010 414 m 1,0,1
 1449 414 l 1,2,3
 1476 844 1476 844 1494 1062 c 1,4,-1
 1130 1062 l 1,5,-1
 1010 414 l 1,0,1
2101 717 m 1,6,-1
 2091 415 l 1,7,-1
 2237 415 l 1,8,-1
 2210 -415 l 1,9,-1
 1502 -408 l 1,10,-1
 1514 -7 l 1,11,-1
 690 -7 l 1,12,-1
 626 -415 l 1,13,-1
 -64 -418 l 1,14,-1
 1 371 l 1,15,-1
 12 385 l 1,16,17
 59 393 59 393 369 405 c 1,18,-1
 556 1350 l 1,19,-1
 567 1433 l 1,20,-1
 579 1447 l 1,21,-1
 1209 1454 l 1,22,-1
 2137 1454 l 1,23,-1
 2101 717 l 1,6,-1
EndSplineSet
EndChar

StartChar: afii10024
Encoding: 1046 1046 422
Width: 2260
Flags: W
LayerCount: 2
Fore
SplineSet
26 1332 m 1,0,1
 30 1333 30 1333 62 1345 c 0,2,3
 308 1436 308 1436 652 1492 c 1,4,-1
 1020 1100 l 1,5,6
 1025 1218 1025 1218 1025 1393 c 1,7,8
 1420 1440 1420 1440 1530 1454 c 1,9,-1
 1524 1313 l 1,10,-1
 1517 1072 l 1,11,-1
 1881 1473 l 1,12,-1
 2455 1348 l 1,13,14
 2151 1031 2151 1031 2038 911.5 c 128,-1,15
 1925 792 1925 792 1871 742 c 1,16,17
 2019 609 2019 609 2437 194 c 1,18,-1
 2103 2 l 1,19,-1
 1938 -61 l 1,20,-1
 1489 404 l 1,21,-1
 1483 225 l 1,22,-1
 1485 -4 l 1,23,-1
 983 -19 l 1,24,-1
 993 419 l 1,25,-1
 562 -60 l 1,26,-1
 63 151 l 1,27,-1
 206 309 l 1,28,29
 436 555 436 555 614 740 c 1,30,-1
 26 1332 l 1,0,1
EndSplineSet
EndChar

StartChar: afii10025
Encoding: 1047 1047 423
Width: 1637
Flags: W
LayerCount: 2
Fore
SplineSet
1553 447 m 0,0,1
 1553 180 1553 180 1324 54 c 0,2,3
 1144 -45 1144 -45 790 -45 c 128,-1,4
 436 -45 436 -45 251 7 c 1,5,-1
 253 385 l 1,6,7
 416 372 416 372 514 372 c 0,8,9
 738 372 738 372 738 489 c 0,10,11
 738 542 738 542 705 578 c 128,-1,12
 672 614 672 614 600 614 c 2,13,-1
 380 614 l 1,14,-1
 391 902 l 1,15,-1
 553 902 l 2,16,17
 721 902 721 902 721 1035 c 0,18,19
 721 1110 721 1110 651 1134.5 c 128,-1,20
 581 1159 581 1159 511 1159 c 128,-1,21
 441 1159 441 1159 241 1151 c 1,22,-1
 241 1451 l 1,23,24
 512 1481 512 1481 718 1481 c 0,25,26
 1116 1481 1116 1481 1320 1392.5 c 128,-1,27
 1524 1304 1524 1304 1524 1094.5 c 128,-1,28
 1524 885 1524 885 1361 809 c 0,29,30
 1316 788 1316 788 1264 782 c 1,31,32
 1394 762 1394 762 1473.5 677 c 128,-1,33
 1553 592 1553 592 1553 447 c 0,0,1
EndSplineSet
EndChar

StartChar: afii10026
Encoding: 1048 1048 424
Width: 2368
Flags: W
LayerCount: 2
Fore
SplineSet
2236 1391 m 1,0,1
 2236 1373 2236 1373 2222.5 934 c 128,-1,2
 2209 495 2209 495 2203 137 c 1,3,-1
 2196 -18 l 1,4,5
 1848 -18 1848 -18 1578 0 c 1,6,-1
 1578 4 l 1,7,8
 1579 7 1579 7 1579 14.5 c 128,-1,9
 1579 22 1579 22 1580.5 72 c 128,-1,10
 1582 122 1582 122 1586 277.5 c 128,-1,11
 1590 433 1590 433 1595 623 c 1,12,-1
 875 -15 l 1,13,-1
 134 2 l 1,14,-1
 145 228 l 1,15,-1
 183 1447 l 1,16,17
 271 1447 271 1447 354 1445 c 2,18,-1
 808 1434 l 1,19,-1
 797 1279 l 1,20,-1
 774 839 l 1,21,22
 887 963 887 963 1119 1191 c 128,-1,23
 1351 1419 1351 1419 1361 1430 c 1,24,-1
 2236 1391 l 1,0,1
EndSplineSet
EndChar

StartChar: afii10029
Encoding: 1051 1051 427
Width: 2421
Flags: W
LayerCount: 2
Fore
SplineSet
2233 1446 m 1,0,-1
 2194 563 l 2,1,2
 2192 511 2192 511 2191 442 c 128,-1,3
 2190 373 2190 373 2186.5 258 c 128,-1,4
 2183 143 2183 143 2180 2 c 1,5,-1
 1739 0 l 1,6,7
 1530 -17 1530 -17 1456 -17 c 1,8,-1
 1462 101 l 1,9,10
 1490 631 1490 631 1514 942 c 1,11,-1
 936 942 l 1,12,13
 918 495 918 495 898 399.5 c 128,-1,14
 878 304 878 304 858 266 c 0,15,16
 757 71 757 71 578.5 -29 c 128,-1,17
 400 -129 400 -129 126 -154 c 1,18,19
 114 -132 114 -132 57 0 c 128,-1,20
 0 132 0 132 -38 217 c 1,21,22
 103 244 103 244 169.5 343 c 128,-1,23
 236 442 236 442 243 632 c 2,24,-1
 256 966 l 1,25,26
 267 1165 267 1165 286 1350 c 1,27,-1
 290 1410 l 1,28,-1
 302 1424 l 1,29,30
 354 1430 354 1430 612.5 1438 c 128,-1,31
 871 1446 871 1446 969 1446 c 2,32,-1
 2233 1446 l 1,0,-1
EndSplineSet
EndChar

StartChar: afii10033
Encoding: 1055 1055 431
Width: 2421
Flags: W
LayerCount: 2
Fore
SplineSet
969 1445 m 2,0,-1
 2237 1445 l 1,1,-1
 2197 639 l 2,2,3
 2196 615 2196 615 2195 563 c 128,-1,4
 2194 511 2194 511 2192 442 c 128,-1,5
 2190 373 2190 373 2186.5 258 c 128,-1,6
 2183 143 2183 143 2180 2 c 1,7,-1
 1825 -8 l 1,8,9
 1531 -21 1531 -21 1452 -21 c 1,10,-1
 1462 101 l 2,11,12
 1466 158 1466 158 1487.5 521.5 c 128,-1,13
 1509 885 1509 885 1514 942 c 1,14,-1
 980 942 l 1,15,-1
 916 2 l 1,16,-1
 226 -17 l 1,17,18
 226 155 226 155 235 402 c 2,19,-1
 256 966 l 1,20,21
 267 1165 267 1165 286 1350 c 1,22,-1
 290 1410 l 1,23,-1
 302 1424 l 1,24,25
 353 1430 353 1430 611 1437.5 c 128,-1,26
 869 1445 869 1445 969 1445 c 2,0,-1
EndSplineSet
EndChar

StartChar: afii10037
Encoding: 1059 1059 435
Width: 1987
Flags: W
LayerCount: 2
Fore
SplineSet
332 0 m 1,0,-1
 677 542 l 1,1,-1
 37 1415 l 1,2,-1
 41 1444 l 1,3,-1
 579 1447 l 1,4,-1
 759 1451 l 1,5,-1
 1049 1027 l 1,6,-1
 1299 1445 l 1,7,-1
 1986 1448 l 1,8,-1
 1997 1428 l 1,9,10
 1355 427 1355 427 1089 6 c 1,11,-1
 927 3 l 1,12,-1
 332 0 l 1,0,-1
EndSplineSet
EndChar

StartChar: afii10038
Encoding: 1060 1060 436
Width: 2565
Flags: W
LayerCount: 2
Fore
SplineSet
1160 1049 m 1,0,1
 1048 1018 1048 1018 987.5 931 c 128,-1,2
 927 844 927 844 927 705 c 0,3,4
 927 429 927 429 1153 375 c 1,5,-1
 1160 1049 l 1,0,1
1430 385 m 1,6,7
 1646 456 1646 456 1646 742 c 0,8,9
 1646 994 1646 994 1440 1049 c 1,10,-1
 1430 385 l 1,6,7
1146 -211 m 1,11,-1
 1148 -41 l 1,12,13
 655 -22 655 -22 380 178 c 0,14,15
 126 363 126 363 126 695.5 c 128,-1,16
 126 1028 126 1028 420 1233 c 128,-1,17
 714 1438 714 1438 1167 1476 c 1,18,-1
 1167 1622 l 1,19,-1
 1448 1624 l 1,20,-1
 1445 1476 l 1,21,22
 2190 1432 2190 1432 2382 1026 c 0,23,24
 2440 904 2440 904 2439 770 c 0,25,26
 2440 416 2440 416 2192 216 c 0,27,28
 1922 -2 1922 -2 1425 -38 c 1,29,-1
 1425 -213 l 1,30,-1
 1146 -211 l 1,11,-1
EndSplineSet
EndChar

StartChar: afii10040
Encoding: 1062 1062 438
Width: 2421
Flags: W
LayerCount: 2
Fore
SplineSet
2353 -379 m 1,0,-1
 1866 -403 l 1,1,2
 1799 -403 1799 -403 1767 -395 c 1,3,4
 1767 -316 1767 -316 1786 7 c 1,5,6
 1588 -1 1588 -1 1495 -1 c 2,7,-1
 287 -1 l 1,8,-1
 326 813 l 1,9,-1
 345 1442 l 1,10,11
 643 1446 643 1446 1071 1446 c 1,12,-1
 1062 1351 l 2,13,14
 1056 1287 1056 1287 1035 921 c 128,-1,15
 1014 555 1014 555 1010 510 c 1,16,-1
 1484 510 l 1,17,-1
 1548 1450 l 1,18,-1
 2244 1439 l 1,19,20
 2244 1227 2244 1227 2228 908 c 2,21,-1
 2207 483 l 1,22,23
 2326 483 2326 483 2389 480 c 1,24,-1
 2351 -327 l 1,25,26
 2351 -355 2351 -355 2353 -379 c 1,0,-1
EndSplineSet
EndChar

StartChar: afii10041
Encoding: 1063 1063 439
Width: 2260
Flags: W
LayerCount: 2
Fore
SplineSet
1416 417 m 1,0,-1
 870 411 l 1,1,2
 462 410 462 410 331 564 c 0,3,4
 229 684 229 684 229 919 c 2,5,-1
 229 1444 l 1,6,-1
 938 1444 l 1,7,-1
 943 1006 l 2,8,9
 943 964 943 964 947 943 c 128,-1,10
 951 922 951 922 970.5 902.5 c 128,-1,11
 990 883 990 883 1080 883 c 1,12,-1
 1404 889 l 1,13,-1
 1393 1441 l 1,14,-1
 2091 1434 l 1,15,16
 2117 314 2117 314 2119 270 c 1,17,-1
 2122 98 l 2,18,19
 2124 32 2124 32 2127 -2 c 1,20,21
 2112 -6 2112 -6 2022 -6 c 128,-1,22
 1932 -6 1932 -6 1437 -1 c 1,23,-1
 1416 417 l 1,0,-1
EndSplineSet
EndChar

StartChar: afii10042
Encoding: 1064 1064 440
Width: 3373
Flags: W
LayerCount: 2
Fore
SplineSet
3193 1450 m 1,0,1
 3193 1359 3193 1359 3192 1286 c 1,2,-1
 3162 486 l 1,3,4
 3151 287 3151 287 3132 102 c 1,5,-1
 3128 42 l 1,6,-1
 3116 28 l 1,7,8
 3064 20 3064 20 2824.5 9.5 c 128,-1,9
 2585 -1 2585 -1 2489 -1 c 2,10,-1
 351 -1 l 1,11,-1
 395 889 l 1,12,13
 396 941 396 941 397 1010 c 128,-1,14
 398 1079 398 1079 401.5 1194 c 128,-1,15
 405 1309 405 1309 408 1450 c 1,16,17
 706 1454 706 1454 1105 1454 c 1,18,-1
 1096 1351 l 2,19,20
 1091 1289 1091 1289 1069.5 925 c 128,-1,21
 1048 561 1048 561 1044 510 c 1,22,-1
 1454 510 l 1,23,-1
 1518 1450 l 1,24,-1
 2138 1450 l 1,25,-1
 2079 510 l 1,26,-1
 2478 510 l 1,27,-1
 2542 1450 l 1,28,-1
 3193 1450 l 1,0,1
EndSplineSet
EndChar

StartChar: afii10043
Encoding: 1065 1065 441
Width: 3530
Flags: W
LayerCount: 2
Fore
SplineSet
3397 -379 m 1,0,-1
 2910 -403 l 1,1,2
 2843 -403 2843 -403 2811 -395 c 1,3,4
 2811 -332 2811 -332 2830 10 c 1,5,6
 2579 -1 2579 -1 2489 -1 c 2,7,-1
 351 -1 l 1,8,-1
 395 889 l 1,9,10
 396 941 396 941 397 1010 c 128,-1,11
 398 1079 398 1079 401.5 1194 c 128,-1,12
 405 1309 405 1309 408 1450 c 1,13,14
 706 1454 706 1454 1105 1454 c 1,15,-1
 1096 1351 l 2,16,17
 1091 1289 1091 1289 1069.5 925 c 128,-1,18
 1048 561 1048 561 1044 510 c 1,19,-1
 1454 510 l 1,20,-1
 1518 1450 l 1,21,-1
 2138 1469 l 1,22,-1
 2079 510 l 1,23,-1
 2478 510 l 1,24,-1
 2542 1450 l 1,25,-1
 3192 1469 l 1,26,27
 3192 1338 3192 1338 3187 1158 c 1,28,-1
 3161 470 l 1,29,30
 3278 478 3278 478 3333 483 c 1,31,-1
 3337 483 l 2,32,33
 3385 483 3385 483 3433 480 c 1,34,-1
 3395 -327 l 1,35,36
 3395 -355 3395 -355 3397 -379 c 1,0,-1
EndSplineSet
EndChar

StartChar: afii10044
Encoding: 1066 1066 442
Width: 3315
Flags: W
LayerCount: 2
Fore
SplineSet
1462 -7 m 1,0,-1
 1462 101 l 2,1,2
 1462 164 1462 164 1468.5 274 c 128,-1,3
 1475 384 1475 384 1476 432 c 2,4,-1
 1488 943 l 1,5,-1
 1493 1063 l 1,6,-1
 1129 1063 l 1,7,8
 1131 1103 1131 1103 1144 1234 c 128,-1,9
 1157 1365 1157 1365 1168 1432 c 1,10,-1
 2237 1454 l 1,11,-1
 2215 997 l 1,12,-1
 2656 1008 l 1,13,14
 2902 1008 2902 1008 3074 896 c 0,15,16
 3162 838 3162 838 3214 743.5 c 128,-1,17
 3266 649 3266 649 3266 529 c 0,18,19
 3266 289 3266 289 3074 148.5 c 128,-1,20
 2882 8 2882 8 2474 4 c 2,21,-1
 1462 -7 l 1,0,-1
2189 342 m 1,22,23
 2233 338 2233 338 2341.5 338 c 128,-1,24
 2450 338 2450 338 2512 393.5 c 128,-1,25
 2574 449 2574 449 2574 538 c 128,-1,26
 2574 627 2574 627 2525.5 678.5 c 128,-1,27
 2477 730 2477 730 2390 730 c 2,28,-1
 2206 730 l 1,29,-1
 2189 342 l 1,22,23
EndSplineSet
EndChar

StartChar: afii10045
Encoding: 1067 1067 443
Width: 3196
Flags: W
LayerCount: 2
Fore
SplineSet
250 0 m 1,0,-1
 250 108 l 2,1,2
 250 171 250 171 256.5 281 c 128,-1,3
 263 391 263 391 264 439 c 2,4,-1
 276 950 l 1,5,-1
 297 1446 l 1,6,-1
 884 1456 l 1,7,8
 945 1456 945 1456 1025 1461 c 1,9,-1
 1003 1004 l 1,10,-1
 1442 1015 l 1,11,12
 1755 1016 1755 1016 1927 850 c 0,13,14
 2054 728 2054 728 2054 535 c 0,15,16
 2054 297 2054 297 1862 156 c 128,-1,17
 1670 15 1670 15 1262 11 c 2,18,-1
 250 0 l 1,0,-1
994 737 m 1,19,-1
 977 349 l 1,20,21
 1021 345 1021 345 1112.5 345 c 128,-1,22
 1204 345 1204 345 1254 369 c 0,23,24
 1362 421 1362 421 1362 553 c 0,25,26
 1362 634 1362 634 1313 685.5 c 128,-1,27
 1264 737 1264 737 1178 737 c 2,28,-1
 994 737 l 1,19,-1
3014 1383 m 1,29,-1
 3009 1262 l 1,30,-1
 2981 10 l 1,31,-1
 2791 5 l 1,32,-1
 2268 0 l 1,33,34
 2265 29 2265 29 2265 74 c 1,35,-1
 2299 1434 l 1,36,37
 2494 1447 2494 1447 2836 1447 c 1,38,-1
 3010 1449 l 1,39,40
 3014 1418 3014 1418 3014 1383 c 1,29,-1
EndSplineSet
EndChar

StartChar: afii10046
Encoding: 1068 1068 444
Width: 3315
Flags: W
LayerCount: 2
Fore
SplineSet
1462 -7 m 1,0,-1
 1462 101 l 2,1,2
 1462 164 1462 164 1468.5 274 c 128,-1,3
 1475 384 1475 384 1476 432 c 2,4,-1
 1488 943 l 1,5,-1
 1509 1439 l 1,6,-1
 2096 1449 l 1,7,8
 2158 1449 2158 1449 2237 1454 c 1,9,-1
 2215 997 l 1,10,-1
 2656 1008 l 1,11,12
 2902 1008 2902 1008 3074 896 c 0,13,14
 3162 838 3162 838 3214 743.5 c 128,-1,15
 3266 649 3266 649 3266 529 c 0,16,17
 3266 289 3266 289 3074 148.5 c 128,-1,18
 2882 8 2882 8 2474 4 c 2,19,-1
 1462 -7 l 1,0,-1
2206 730 m 1,20,-1
 2189 342 l 1,21,22
 2233 338 2233 338 2341.5 338 c 128,-1,23
 2450 338 2450 338 2512 393.5 c 128,-1,24
 2574 449 2574 449 2574 538 c 128,-1,25
 2574 627 2574 627 2525.5 678.5 c 128,-1,26
 2477 730 2477 730 2390 730 c 2,27,-1
 2206 730 l 1,20,-1
EndSplineSet
EndChar

StartChar: afii10047
Encoding: 1069 1069 445
Width: 1661
Flags: W
LayerCount: 2
Fore
SplineSet
705 -13 m 0,0,1
 507 -45 507 -45 364 -45 c 128,-1,2
 221 -45 221 -45 132 -35 c 1,3,-1
 132 421 l 1,4,5
 263 403 263 403 400 403 c 0,6,7
 681 403 681 403 746 589 c 1,8,-1
 261 591 l 1,9,-1
 269 858 l 1,10,-1
 739 863 l 1,11,12
 667 1044 667 1044 406 1044 c 0,13,14
 315 1044 315 1044 132 1009 c 1,15,-1
 132 1448 l 1,16,17
 268 1463 268 1463 410 1463 c 0,18,19
 1145 1463 1145 1463 1415 1111 c 0,20,21
 1535 955 1535 955 1535 716 c 0,22,23
 1535 121 1535 121 705 -13 c 0,0,1
EndSplineSet
EndChar

StartChar: afii10048
Encoding: 1070 1070 446
Width: 3427
Flags: W
LayerCount: 2
Fore
SplineSet
2423 -34.5 m 128,-1,1
 2315 -45 2315 -45 2191.5 -45 c 128,-1,2
 2068 -45 2068 -45 1952 -31.5 c 128,-1,3
 1836 -18 1836 -18 1719 16 c 128,-1,4
 1602 50 1602 50 1509 103 c 128,-1,5
 1416 156 1416 156 1341.5 240 c 128,-1,6
 1267 324 1267 324 1229 432 c 1,7,-1
 922 432 l 1,8,-1
 896 2 l 1,9,-1
 356 -24 l 1,10,-1
 226 -17 l 1,11,12
 226 155 226 155 235 402 c 2,13,-1
 256 966 l 1,14,15
 267 1165 267 1165 286 1350 c 1,16,-1
 290 1410 l 1,17,-1
 302 1424 l 1,18,19
 354 1432 354 1432 603 1442.5 c 128,-1,20
 852 1453 852 1453 949 1453 c 2,21,-1
 968 1453 l 1,22,-1
 930 943 l 1,23,-1
 1232 943 l 1,24,25
 1327 1193 1327 1193 1616 1337 c 128,-1,26
 1905 1481 1905 1481 2240 1481 c 0,27,28
 3114 1481 3114 1481 3270 978 c 0,29,30
 3302 876 3302 876 3301.5 747.5 c 128,-1,31
 3301 619 3301 619 3267 507.5 c 128,-1,32
 3233 396 3233 396 3174 315 c 128,-1,33
 3115 234 3115 234 3030.5 170.5 c 128,-1,34
 2946 107 2946 107 2851 67 c 128,-1,35
 2756 27 2756 27 2643.5 1.5 c 128,-1,0
 2531 -24 2531 -24 2423 -34.5 c 128,-1,1
2004.5 440.5 m 128,-1,37
 2080 361 2080 361 2248 361 c 128,-1,38
 2416 361 2416 361 2492 453.5 c 128,-1,39
 2568 546 2568 546 2568 734 c 128,-1,40
 2568 922 2568 922 2493.5 994 c 128,-1,41
 2419 1066 2419 1066 2254 1066 c 0,42,43
 1929 1066 1929 1066 1929 705 c 0,44,36
 1929 520 1929 520 2004.5 440.5 c 128,-1,37
EndSplineSet
EndChar

StartChar: afii10049
Encoding: 1071 1071 447
Width: 2398
Flags: W
LayerCount: 2
Fore
SplineSet
1342 1070 m 0,0,1
 1092 1070 1092 1070 1092 944 c 0,2,3
 1092 897 1092 897 1115.5 876.5 c 0,4,5
 1140 856 1140 856 1158 846 c 0,6,7
 1215 815 1215 815 1367.5 801.5 c 128,-1,8
 1520 788 1520 788 1569 782 c 1,9,-1
 1582 1064 l 1,10,11
 1424 1070 1424 1070 1342 1070 c 0,0,1
2246 -11 m 1,12,-1
 1556 1 l 2,13,14
 1550 1 1550 1 1550 32 c 2,15,-1
 1565 506 l 1,16,-1
 1321 523 l 1,17,18
 1279 442 1279 442 1165.5 251 c 128,-1,19
 1052 60 1052 60 1005 -13 c 1,20,-1
 282 9 l 1,21,22
 347 93 347 93 715 629 c 1,23,24
 581 675 581 675 483 769 c 128,-1,25
 385 863 385 863 385 1002 c 0,26,27
 384 1202 384 1202 518 1302 c 0,28,29
 608 1370 608 1370 700 1392 c 0,30,31
 856 1431 856 1431 986 1440 c 128,-1,32
 1116 1449 1116 1449 1298 1449 c 128,-1,33
 1480 1449 1480 1449 1652.5 1447.5 c 128,-1,34
 1825 1446 1825 1446 1937.5 1443.5 c 128,-1,35
 2050 1441 2050 1441 2133 1438.5 c 128,-1,36
 2216 1436 2216 1436 2258.5 1434.5 c 128,-1,37
 2301 1433 2301 1433 2302 1433 c 2,38,-1
 2246 -11 l 1,12,-1
EndSplineSet
EndChar

StartChar: afii10051
Encoding: 1026 1026 448
Width: 1972
Flags: W
LayerCount: 2
Fore
SplineSet
1293 10 m 1,0,1
 1256 7 1256 7 972.5 1 c 128,-1,2
 689 -5 689 -5 614 -5 c 2,3,-1
 610 -5 l 1,4,-1
 630 669 l 2,5,6
 638 917 638 917 645 1051 c 1,7,-1
 99 1051 l 1,8,9
 101 1093 101 1093 114 1229.5 c 128,-1,10
 127 1366 127 1366 138 1435 c 1,11,12
 1009 1444 1009 1444 1390 1444 c 128,-1,13
 1771 1444 1771 1444 1921 1441 c 1,14,15
 1890 1179 1890 1179 1850 1051 c 1,16,-1
 1329 1051 l 1,17,-1
 1323 784 l 1,18,19
 1504 819 1504 819 1676 819 c 0,20,21
 2002 819 2002 819 2171 728 c 128,-1,22
 2340 637 2340 637 2340 422 c 1,23,-1
 2338 170 l 1,24,25
 2326 -180 2326 -180 2193 -318 c 0,26,27
 2103 -411 2103 -411 1975.5 -440 c 128,-1,28
 1848 -469 1848 -469 1729.5 -469 c 128,-1,29
 1611 -469 1611 -469 1463 -460 c 1,30,-1
 1476 -164 l 1,31,32
 1541 -164 1541 -164 1583.5 -153.5 c 128,-1,33
 1626 -143 1626 -143 1664 -112 c 0,34,35
 1739 -52 1739 -52 1749 143 c 1,36,-1
 1754 345 l 1,37,38
 1754 526 1754 526 1508 526 c 0,39,40
 1421 526 1421 526 1312 505 c 1,41,42
 1291 15 1291 15 1293 10 c 1,0,1
EndSplineSet
EndChar

StartChar: afii10053
Encoding: 1028 1028 450
Width: 1700
Flags: W
LayerCount: 2
Fore
SplineSet
166 485 m 128,-1,1
 133 588 133 588 133 720 c 128,-1,2
 133 852 133 852 181 970 c 128,-1,3
 229 1088 229 1088 316 1171 c 0,4,5
 495 1342 495 1342 767 1411.5 c 128,-1,6
 1039 1481 1039 1481 1343 1481 c 0,7,8
 1447 1481 1447 1481 1536 1471 c 1,9,-1
 1536 1035 l 1,10,11
 1408 1042 1408 1042 1307 1042 c 128,-1,12
 1206 1042 1206 1042 1087 1004 c 128,-1,13
 968 966 968 966 923 848 c 1,14,-1
 1370 853 l 1,15,-1
 1377 579 l 1,16,-1
 927 581 l 1,17,18
 971 458 971 458 1075.5 417.5 c 128,-1,19
 1180 377 1180 377 1312 377 c 0,20,21
 1335 377 1335 377 1536 389 c 1,22,-1
 1536 -30 l 1,23,24
 1401 -45 1401 -45 1258.5 -45 c 128,-1,25
 1116 -45 1116 -45 1005 -34 c 128,-1,26
 894 -23 894 -23 782.5 3 c 128,-1,27
 671 29 671 29 576 68.5 c 128,-1,28
 481 108 481 108 398 168.5 c 128,-1,29
 315 229 315 229 257 305.5 c 128,-1,0
 199 382 199 382 166 485 c 128,-1,1
EndSplineSet
EndChar

StartChar: afii10058
Encoding: 1033 1033 455
Width: 3170
Flags: W
LayerCount: 2
Fore
SplineSet
878 266 m 0,0,1
 776 71 776 71 598 -29 c 128,-1,2
 420 -129 420 -129 146 -154 c 1,3,4
 134 -132 134 -132 77 0 c 128,-1,5
 20 132 20 132 -18 217 c 1,6,7
 121 243 121 243 185.5 341.5 c 128,-1,8
 250 440 250 440 263 632 c 2,9,-1
 286 966 l 1,10,-1
 307 1440 l 1,11,-1
 2017 1450 l 1,12,-1
 1995 997 l 1,13,-1
 2435 1008 l 1,14,15
 2754 1008 2754 1008 2926 837 c 0,16,17
 3046 718 3046 718 3046 528 c 0,18,19
 3046 289 3046 289 2854 148.5 c 128,-1,20
 2662 8 2662 8 2254 4 c 2,21,-1
 1242 -7 l 1,22,-1
 1242 101 l 2,23,24
 1242 193 1242 193 1254.5 568.5 c 128,-1,25
 1267 944 1267 944 1273 1026 c 1,26,-1
 959 1026 l 1,27,28
 945 602 945 602 932 508.5 c 128,-1,29
 919 415 919 415 908.5 360 c 128,-1,30
 898 305 898 305 878 266 c 0,0,1
2068 338 m 2,31,-1
 2132 338 l 2,32,33
 2230 338 2230 338 2292 393.5 c 128,-1,34
 2354 449 2354 449 2354 538 c 128,-1,35
 2354 627 2354 627 2305.5 678.5 c 128,-1,36
 2257 730 2257 730 2170 730 c 2,37,-1
 1986 730 l 1,38,-1
 1969 342 l 1,39,40
 2009 338 2009 338 2068 338 c 2,31,-1
EndSplineSet
EndChar

StartChar: afii10059
Encoding: 1034 1034 456
Width: 3315
Flags: W
LayerCount: 2
Fore
SplineSet
1462 -7 m 1,0,-1
 1462 101 l 2,1,2
 1462 253 1462 253 1476 432 c 1,3,-1
 942 432 l 1,4,-1
 916 2 l 1,5,-1
 226 -16 l 1,6,7
 226 137 226 137 256 966 c 1,8,-1
 272 1444 l 1,9,-1
 988 1453 l 1,10,-1
 950 943 l 1,11,-1
 1488 943 l 1,12,-1
 1509 1429 l 1,13,14
 1567 1437 1567 1437 1657.5 1438.5 c 128,-1,15
 1748 1440 1748 1440 1946 1444 c 128,-1,16
 2144 1448 2144 1448 2237 1449 c 1,17,-1
 2215 997 l 1,18,-1
 2656 1008 l 1,19,20
 2902 1008 2902 1008 3074 896 c 0,21,22
 3162 838 3162 838 3214 743.5 c 128,-1,23
 3266 649 3266 649 3266 529 c 0,24,25
 3266 289 3266 289 3074 148.5 c 128,-1,26
 2882 8 2882 8 2474 4 c 2,27,-1
 1462 -7 l 1,0,-1
2206 730 m 1,28,-1
 2189 342 l 1,29,30
 2233 338 2233 338 2341.5 338 c 128,-1,31
 2450 338 2450 338 2512 393.5 c 128,-1,32
 2574 449 2574 449 2574 538 c 128,-1,33
 2574 627 2574 627 2525.5 678.5 c 128,-1,34
 2477 730 2477 730 2390 730 c 2,35,-1
 2206 730 l 1,28,-1
EndSplineSet
EndChar

StartChar: afii10060
Encoding: 1035 1035 457
Width: 2479
Flags: W
LayerCount: 2
Fore
SplineSet
1293 10 m 1,0,1
 1256 7 1256 7 972.5 1 c 128,-1,2
 689 -5 689 -5 614 -5 c 2,3,-1
 610 -5 l 1,4,5
 630 669 l 2,6,7
 638 917 638 917 645 1051 c 1,8,-1
 99 1051 l 1,9,10
 101 1093 101 1093 114 1230.5 c 128,-1,11
 127 1368 127 1368 138 1438 c 1,12,13
 1007 1449 1007 1449 1385.5 1449 c 128,-1,14
 1764 1449 1764 1449 1921 1446 c 1,15,16
 1890 1180 1890 1180 1850 1051 c 1,17,-1
 1329 1051 l 1,18,-1
 1324 803 l 1,19,20
 1506 840 1506 840 1706 840 c 0,21,22
 2122 840 2122 840 2288 630 c 0,23,24
 2365 532 2365 532 2366 399 c 1,25,-1
 2353 4 l 1,26,27
 2339 2 2339 2 1757 -1 c 1,28,-1
 1765 306 l 1,29,30
 1765 487 1765 487 1519 487 c 0,31,32
 1431 487 1431 487 1313 464 c 1,33,-1
 1293 10 l 1,0,1
EndSplineSet
EndChar

StartChar: afii10066
Encoding: 1073 1073 461
Width: 1701
Flags: W
LayerCount: 2
Fore
SplineSet
1151 1326 m 1,0,-1
 1253 960 l 1,1,2
 1176 950 1176 950 1050 904.5 c 128,-1,3
 924 859 924 859 853 798 c 1,4,5
 928 806 928 806 1028.5 806 c 128,-1,6
 1129 806 1129 806 1228 784 c 0,7,8
 1408 745 1408 745 1499.5 647.5 c 128,-1,9
 1591 550 1591 550 1591 434 c 0,10,11
 1591 211 1591 211 1393 87 c 128,-1,12
 1195 -37 1195 -37 811 -37 c 0,13,14
 484 -36 484 -36 296 104 c 0,15,16
 201 175 201 175 157.5 266 c 128,-1,17
 114 357 114 357 114 430 c 0,18,19
 114 580 114 580 174 714 c 0,20,21
 283 956 283 956 569 1122 c 0,22,23
 826 1272 826 1272 1151 1326 c 1,0,-1
713 390 m 0,24,25
 713 208 713 208 862 208 c 0,26,27
 1020 208 1020 208 1020 424 c 0,28,29
 1020 519 1020 519 985.5 566.5 c 128,-1,30
 951 614 951 614 871 614 c 0,31,32
 750 614 750 614 720 469 c 0,33,34
 712 432 712 432 713 390 c 0,24,25
EndSplineSet
EndChar

StartChar: afii10067
Encoding: 1074 1074 462
Width: 1757
Flags: W
LayerCount: 2
Fore
SplineSet
1046 1026 m 1,0,1
 1634 1026 1634 1026 1634 761 c 0,2,3
 1634 673 1634 673 1575.5 618.5 c 128,-1,4
 1517 564 1517 564 1419 544 c 1,5,6
 1523 527 1523 527 1589.5 464.5 c 128,-1,7
 1656 402 1656 402 1656 307.5 c 0,8,9
 1656 214 1656 214 1572 140 c 0,10,11
 1409 -4 1409 -4 1018 -4 c 2,12,-1
 191 -4 l 2,13,14
 153 -4 153 -4 130 10 c 1,15,-1
 156 492 l 1,16,-1
 154 492 l 1,17,-1
 187 1009 l 1,18,-1
 1046 1026 l 1,0,1
910 613 m 2,19,20
 1030 613 1030 613 1070.5 641.5 c 128,-1,21
 1111 670 1111 670 1111 725 c 128,-1,22
 1111 780 1111 780 1068.5 800.5 c 128,-1,23
 1026 821 1026 821 941 821 c 2,24,-1
 733 821 l 1,25,-1
 720 613 l 1,26,-1
 910 613 l 2,19,20
894 210 m 2,27,28
 1048 210 1048 210 1080 260 c 0,29,30
 1094 282 1094 282 1094 328 c 0,31,32
 1094 418 1094 418 923 419 c 2,33,-1
 714 419 l 1,34,-1
 706 210 l 1,35,-1
 894 210 l 2,27,28
EndSplineSet
EndChar

StartChar: afii10068
Encoding: 1075 1075 463
Width: 1377
Flags: W
LayerCount: 2
Fore
SplineSet
138 278 m 1,0,-1
 140 316 l 1,1,2
 150 560 150 560 183 992 c 1,3,-1
 193 1002 l 1,4,5
 234 1008 234 1008 442.5 1015.5 c 128,-1,6
 651 1023 651 1023 732 1023 c 2,7,-1
 1265 1023 l 1,8,9
 1251 703 1251 703 1246 661 c 1,10,-1
 741 661 l 1,11,-1
 689 -5 l 1,12,-1
 237 -10 l 1,13,-1
 131 -6 l 1,14,15
 131 110 131 110 138 278 c 1,0,-1
EndSplineSet
EndChar

StartChar: afii10069
Encoding: 1076 1076 464
Width: 1860
Flags: W
LayerCount: 2
Fore
SplineSet
1817 308 m 1,0,1
 1805 -78 1805 -78 1796 -273 c 1,2,-1
 1481 -269 l 1,3,-1
 1238 -271 l 1,4,-1
 1255 -0 l 1,5,-1
 729 -0 l 1,6,-1
 729 -3 l 1,7,-1
 568 -5 l 1,8,-1
 540 -263 l 1,9,-1
 -23 -268 l 1,10,-1
 25 287 l 1,11,-1
 36 297 l 1,12,-1
 255 297 l 1,13,14
 265 378 265 378 294.5 600 c 128,-1,15
 324 822 324 822 345 1007 c 1,16,-1
 356 1017 l 1,17,-1
 1149 1023 l 1,18,-1
 1697 1029 l 1,19,-1
 1683 500 l 1,20,-1
 1676 308 l 1,21,-1
 1817 308 l 1,0,1
774 301 m 1,22,-1
 1149 301 l 1,23,-1
 1165 691 l 1,24,-1
 828 691 l 1,25,-1
 774 301 l 1,22,-1
EndSplineSet
EndChar

StartChar: afii10072
Encoding: 1078 1078 467
Width: 1987
Flags: W
LayerCount: 2
Fore
SplineSet
819 -21 m 1,0,-1
 823 272 l 1,1,-1
 550 -9 l 1,2,3
 513 -11 513 -11 487 -11 c 2,4,-1
 27 -2 l 1,5,-1
 133 104 l 1,6,-1
 533 489 l 1,7,-1
 110 1018 l 1,8,-1
 620 1007 l 1,9,-1
 829 725 l 1,10,-1
 833 1009 l 1,11,-1
 1151 1011 l 1,12,-1
 1144 718 l 1,13,-1
 1375 1017 l 1,14,15
 1408 1018 1408 1018 1459 1018 c 1,16,-1
 1919 1008 l 1,17,-1
 1443 541 l 1,18,-1
 1957 19 l 1,19,-1
 1385 -10 l 1,20,-1
 1134 267 l 1,21,-1
 1128 -23 l 1,22,-1
 819 -21 l 1,0,-1
EndSplineSet
EndChar

StartChar: afii10073
Encoding: 1079 1079 468
Width: 1393
Flags: W
LayerCount: 2
Fore
SplineSet
590 1070 m 0,0,1
 1228 1070 1228 1070 1228 804 c 0,2,3
 1228 665 1228 665 1013 564 c 1,4,5
 1252 486 1252 486 1252 306 c 0,6,7
 1252 156 1252 156 1093 59.5 c 128,-1,8
 934 -37 934 -37 643 -37 c 0,9,10
 513 -37 513 -37 385 -15.5 c 128,-1,11
 257 6 257 6 177 37 c 1,12,-1
 179 287 l 1,13,14
 337 251 337 251 460 251 c 0,15,16
 516 251 516 251 547.5 280 c 128,-1,17
 579 309 579 309 579 348 c 128,-1,18
 579 387 579 387 549 414 c 128,-1,19
 519 441 519 441 465 441 c 2,20,-1
 284 441 l 1,21,-1
 309 652 l 1,22,-1
 427 652 l 2,23,24
 495 652 495 652 530 680.5 c 128,-1,25
 565 709 565 709 565 749.5 c 128,-1,26
 565 790 565 790 533 819.5 c 128,-1,27
 501 849 501 849 449 849 c 0,28,29
 328 849 328 849 169 813 c 1,30,-1
 169 1034 l 1,31,32
 416 1070 416 1070 590 1070 c 0,0,1
EndSplineSet
EndChar

StartChar: afii10074
Encoding: 1080 1080 469
Width: 1818
Flags: W
LayerCount: 2
Fore
SplineSet
643 411 m 1,0,1
 726 522 726 522 1153 1017 c 1,2,-1
 1687 1023 l 1,3,-1
 1649 82 l 1,4,5
 1649 25 1649 25 1651 4 c 1,6,-1
 1105 4 l 1,7,8
 1105 95 1105 95 1119 398 c 1,9,-1
 772 9 l 1,10,11
 668 5 668 5 531 5 c 128,-1,12
 394 5 394 5 213 11 c 1,13,-1
 131 13 l 1,14,-1
 131 117 l 1,15,-1
 167 1028 l 1,16,17
 315 1034 315 1034 444 1034 c 128,-1,18
 573 1034 573 1034 673 1026 c 1,19,-1
 668 936 l 1,20,21
 648 498 648 498 643 411 c 1,0,1
EndSplineSet
EndChar

StartChar: afii10076
Encoding: 1082 1082 471
Width: 1768
Flags: W
LayerCount: 2
Fore
SplineSet
1146 -18 m 1,0,-1
 833 331 l 1,1,-1
 718 241 l 1,2,-1
 713 -2 l 1,3,-1
 130 -11 l 1,4,-1
 165 995 l 1,5,-1
 336 995 l 1,6,-1
 753 990 l 1,7,-1
 738 638 l 1,8,-1
 1047 978 l 1,9,-1
 1599 989 l 2,10,11
 1642 989 1642 989 1720 987 c 1,12,-1
 1384 630 l 1,13,-1
 1263 509 l 1,14,15
 1449 311 1449 311 1762 7 c 1,16,-1
 1146 -18 l 1,0,-1
EndSplineSet
EndChar

StartChar: afii10077
Encoding: 1083 1083 472
Width: 1893
Flags: W
LayerCount: 2
Fore
SplineSet
294 -37 m 0,0,1
 212 -37 212 -37 64 -28 c 1,2,-1
 77 267 l 1,3,4
 141 267 141 267 184 277.5 c 128,-1,5
 227 288 227 288 266 320 c 0,6,7
 342 382 342 382 360 574 c 2,8,-1
 400 1011 l 1,9,-1
 411 1021 l 1,10,-1
 1234 1023 l 1,11,-1
 1762 1029 l 1,12,-1
 1748 500 l 1,13,-1
 1729 -13 l 1,14,-1
 1424 -9 l 1,15,-1
 1161 -11 l 1,16,-1
 1184 653 l 1,17,-1
 901 653 l 1,18,-1
 885 495 l 1,19,20
 847 182 847 182 718 72.5 c 128,-1,21
 589 -37 589 -37 294 -37 c 0,0,1
EndSplineSet
EndChar

StartChar: afii10078
Encoding: 1084 1084 473
Width: 2256
Flags: W
LayerCount: 2
Fore
SplineSet
129 -6 m 1,0,-1
 200 1021 l 1,1,2
 862 1021 l 1,3,-1
 1147 521 l 1,4,-1
 1472 1029 l 1,5,-1
 2057 1016 l 1,6,-1
 2127 1 l 1,7,8
 1961 -9 1961 -9 1617 -9 c 1,9,-1
 1589 349 l 1,10,-1
 1577 481 l 1,11,-1
 1231 7 l 1,12,-1
 1168 3 l 1,13,-1
 988 3 l 1,14,15
 804 298 804 298 724 453 c 1,16,-1
 684 -5 l 1,17,18
 611 -9 611 -9 506 -9 c 2,19,-1
 129 -6 l 1,0,-1
EndSplineSet
EndChar

StartChar: afii10079
Encoding: 1085 1085 474
Width: 2007
Flags: W
LayerCount: 2
Fore
SplineSet
139 293 m 1,0,-1
 157 684 l 1,1,-1
 184 1030 l 1,2,-1
 779 1022 l 1,3,-1
 762 668 l 1,4,-1
 1230 668 l 1,5,-1
 1248 1011 l 1,6,-1
 1391 1011 l 1,7,-1
 1876 1023 l 1,8,-1
 1822 -4 l 1,9,-1
 1206 -12 l 1,10,-1
 1210 314 l 1,11,-1
 754 314 l 1,12,-1
 731 0 l 1,13,-1
 131 2 l 1,14,15
 131 97 131 97 139 293 c 1,0,-1
EndSplineSet
EndChar

StartChar: afii10081
Encoding: 1087 1087 476
Width: 1854
Flags: W
LayerCount: 2
Fore
SplineSet
694 -3 m 1,0,-1
 131 -8 l 1,1,-1
 167 964 l 1,2,-1
 171 1007 l 1,3,-1
 182 1017 l 1,4,-1
 1155 1023 l 1,5,-1
 1723 1029 l 1,6,-1
 1709 500 l 1,7,-1
 1690 -13 l 1,8,-1
 1375 -9 l 1,9,-1
 1112 -11 l 1,10,-1
 1141 651 l 1,11,-1
 734 651 l 1,12,-1
 694 -3 l 1,0,-1
EndSplineSet
EndChar

StartChar: afii10084
Encoding: 1090 1090 479
Width: 1491
Flags: W
LayerCount: 2
Fore
SplineSet
977 -3 m 1,0,-1
 414 -8 l 1,1,-1
 439 656 l 1,2,-1
 71 656 l 1,3,-1
 92 981 l 1,4,-1
 92 1007 l 1,5,-1
 103 1017 l 1,6,-1
 1395 1023 l 1,7,-1
 1418 1013 l 1,8,-1
 1393 651 l 1,9,-1
 1017 651 l 1,10,-1
 977 -3 l 1,0,-1
EndSplineSet
EndChar

StartChar: afii10086
Encoding: 1092 1092 481
Width: 2121
Flags: W
LayerCount: 2
Fore
SplineSet
1210 -410 m 1,0,-1
 854 -406 l 1,1,-1
 867 -37 l 1,2,3
 572 -13 572 -13 422.5 43 c 128,-1,4
 273 99 273 99 193.5 201 c 128,-1,5
 114 303 114 303 114 469 c 0,6,7
 114 832 114 832 437 970 c 0,8,9
 618 1047 618 1047 910 1069 c 1,10,-1
 921 1306 l 1,11,-1
 1278 1311 l 1,12,-1
 1268 1065 l 1,13,14
 1842 1016 1842 1016 1972 719 c 0,15,16
 2008 637 2008 637 2008.5 552.5 c 128,-1,17
 2009 468 2009 468 1987 387 c 0,18,19
 1912 104 1912 104 1570 14 c 0,20,21
 1430 -23 1430 -23 1220 -36 c 1,22,-1
 1210 -410 l 1,0,-1
1242 237 m 1,23,24
 1465 245 1465 245 1465 530 c 0,25,26
 1465 774 1465 774 1262 774 c 0,27,28
 1260 774 1260 774 1259 774 c 1,29,-1
 1242 237 l 1,23,24
874 234 m 1,30,-1
 886 771 l 1,31,32
 808 771 808 771 754 728 c 0,33,34
 654 648 654 648 654 505 c 128,-1,35
 654 362 654 362 704.5 298 c 128,-1,36
 755 234 755 234 871 234 c 0,37,38
 872 234 872 234 874 234 c 1,30,-1
EndSplineSet
EndChar

StartChar: afii10088
Encoding: 1094 1094 483
Width: 1964
Flags: W
LayerCount: 2
Fore
SplineSet
1819 500 m 1,0,-1
 1803 78 l 1,1,-1
 1910 78 l 1,2,-1
 1973 75 l 1,3,-1
 1973 -307 l 1,4,-1
 1969 -384 l 1,5,-1
 1573 -384 l 1,6,7
 1571 -346 1571 -346 1571 -245 c 2,8,-1
 1571 -10 l 1,9,-1
 1182 -10 l 1,10,-1
 271 -16 l 1,11,-1
 131 -12 l 1,12,-1
 167 964 l 1,13,-1
 171 1007 l 1,14,-1
 182 1017 l 1,15,16
 275 1029 275 1029 763 1029 c 2,17,-1
 781 1029 l 1,18,-1
 751 355 l 1,19,-1
 1192 355 l 1,20,-1
 1225 1017 l 1,21,-1
 1833 1029 l 1,22,-1
 1819 500 l 1,0,-1
EndSplineSet
EndChar

StartChar: afii10089
Encoding: 1095 1095 484
Width: 1924
Flags: W
LayerCount: 2
Fore
SplineSet
1154 265 m 1,0,1
 1029 263 1029 263 891 263 c 0,2,3
 752 263 752 263 608 281 c 0,4,5
 404 307 404 307 302 400 c 0,6,7
 166 523 166 523 166 882 c 0,8,9
 166 936 166 936 167 964 c 1,10,-1
 171 1019 l 1,11,-1
 182 1029 l 1,12,-1
 781 1018 l 1,13,14
 779 974 779 974 779 919 c 0,15,16
 779 791 779 791 823 719 c 128,-1,17
 867 647 867 647 1020 647 c 0,18,19
 1154 647 1154 647 1167 650 c 1,20,-1
 1185 1019 l 1,21,-1
 1793 1019 l 1,22,-1
 1779 500 l 1,23,-1
 1760 -13 l 1,24,-1
 1405 -9 l 1,25,-1
 1142 -11 l 1,26,-1
 1154 265 l 1,0,1
EndSplineSet
EndChar

StartChar: afii10090
Encoding: 1096 1096 485
Width: 2855
Flags: W
LayerCount: 2
Fore
SplineSet
2710 500 m 1,0,-1
 2691 -13 l 1,1,-1
 2376 -9 l 1,2,-1
 1262 -16 l 1,3,-1
 131 -12 l 1,4,-1
 167 964 l 1,5,-1
 171 1013 l 1,6,-1
 182 1023 l 1,7,-1
 741 1025 l 1,8,-1
 711 355 l 1,9,-1
 1135 355 l 1,10,-1
 1158 1024 l 1,11,-1
 1505 1024 l 1,12,-1
 1733 1029 l 1,13,-1
 1719 500 l 1,14,-1
 1712 355 l 1,15,-1
 2123 355 l 1,16,-1
 2156 1017 l 1,17,-1
 2724 1029 l 1,18,-1
 2710 500 l 1,0,-1
EndSplineSet
EndChar

StartChar: afii10091
Encoding: 1097 1097 486
Width: 2855
Flags: W
LayerCount: 2
Fore
SplineSet
2860 81 m 1,0,-1
 2860 -211 l 1,1,-1
 2856 -288 l 1,2,-1
 2460 -288 l 1,3,4
 2458 -250 2458 -250 2458 -149 c 2,5,-1
 2458 -10 l 1,6,-1
 1262 -16 l 1,7,-1
 131 -12 l 1,8,-1
 167 964 l 1,9,-1
 171 1013 l 1,10,-1
 182 1023 l 1,11,-1
 741 1025 l 1,12,-1
 711 355 l 1,13,-1
 1135 355 l 1,14,-1
 1158 1024 l 1,15,-1
 1505 1024 l 1,16,-1
 1733 1029 l 1,17,-1
 1719 500 l 1,18,-1
 1712 355 l 1,19,-1
 2123 355 l 1,20,-1
 2156 1017 l 1,21,-1
 2724 1029 l 1,22,-1
 2710 500 l 1,23,-1
 2695 84 l 1,24,-1
 2797 84 l 1,25,-1
 2860 81 l 1,0,-1
EndSplineSet
EndChar

StartChar: afii10092
Encoding: 1098 1098 487
Width: 1996
Flags: W
LayerCount: 2
Fore
SplineSet
1177 -5 m 2,0,-1
 361 -2 l 2,1,2
 321 -2 321 -2 295 18 c 1,3,4
 295 94 295 94 296 137 c 2,5,-1
 318 692 l 1,6,-1
 185 692 l 1,7,-1
 41 694 l 1,8,-1
 56 1027 l 1,9,-1
 730 1027 l 2,10,11
 823 1027 823 1027 864 1018 c 1,12,-1
 864 921 l 1,13,-1
 862 827 l 1,14,-1
 1213 827 l 2,15,16
 1506 827 1506 827 1656 742 c 0,17,18
 1844 636 1844 636 1849 409 c 1,19,-1
 1849 399 l 2,20,21
 1850 146 1850 146 1572 50 c 0,22,23
 1414 -5 1414 -5 1177 -5 c 2,0,-1
853 252 m 1,24,-1
 1023 250 l 1,25,26
 1179 250 1179 250 1225 291 c 128,-1,27
 1271 332 1271 332 1271 415 c 2,28,-1
 1271 424 l 1,29,30
 1268 502 1268 502 1230.5 524.5 c 128,-1,31
 1193 547 1193 547 1149 548 c 1,32,-1
 857 548 l 1,33,-1
 853 252 l 1,24,-1
EndSplineSet
EndChar

StartChar: afii10093
Encoding: 1099 1099 488
Width: 2643
Flags: W
LayerCount: 2
Fore
SplineSet
859 250 m 1,0,1
 1018 250 1018 250 1062.5 291 c 128,-1,2
 1107 332 1107 332 1107 397.5 c 128,-1,3
 1107 463 1107 463 1098.5 480 c 128,-1,4
 1090 497 1090 497 1086 506 c 128,-1,5
 1082 515 1082 515 1069.5 522 c 128,-1,6
 1057 529 1057 529 1051 533.5 c 128,-1,7
 1045 538 1045 538 1026.5 540.5 c 128,-1,8
 1008 543 1008 543 1000 545.5 c 128,-1,9
 992 548 992 548 968 548 c 2,10,-1
 693 548 l 1,11,-1
 689 252 l 1,12,-1
 859 250 l 1,0,1
1013 -5 m 2,13,-1
 197 -2 l 2,14,15
 157 -2 157 -2 131 18 c 1,16,17
 131 94 131 94 132 137 c 2,18,-1
 167 1027 l 1,19,-1
 566 1037 l 1,20,21
 650 1037 650 1037 700 1026 c 1,22,-1
 700 921 l 1,23,-1
 698 827 l 1,24,-1
 1049 827 l 2,25,26
 1342 827 1342 827 1492 742 c 0,27,28
 1686 632 1686 632 1685.5 390 c 128,-1,29
 1685 148 1685 148 1411 52 c 0,30,31
 1250 -4 1250 -4 1013 -5 c 2,13,-1
2416 1026 m 2,32,33
 2464 1026 2464 1026 2512 1023 c 1,34,-1
 2496 12 l 1,35,-1
 2019 -1 l 1,36,37
 1954 -1 1954 -1 1921 9 c 1,38,-1
 1936 1020 l 1,39,-1
 2416 1026 l 2,32,33
EndSplineSet
EndChar

StartChar: afii10094
Encoding: 1100 1100 489
Width: 1835
Flags: W
LayerCount: 2
Fore
SplineSet
892 250 m 1,0,1
 1015 250 1015 250 1059 267 c 128,-1,2
 1103 284 1103 284 1122 318.5 c 128,-1,3
 1141 353 1141 353 1141 389.5 c 128,-1,4
 1141 426 1141 426 1138 445 c 128,-1,5
 1135 464 1135 464 1129 476 c 128,-1,6
 1123 488 1123 488 1119 497 c 128,-1,7
 1115 506 1115 506 1102.5 513 c 128,-1,8
 1090 520 1090 520 1084 524.5 c 128,-1,9
 1078 529 1078 529 1059.5 531.5 c 128,-1,10
 1041 534 1041 534 1033 536 c 128,-1,11
 1025 538 1025 538 1001 539 c 2,12,-1
 726 539 l 1,13,-1
 722 252 l 1,14,-1
 892 250 l 1,0,1
1046 -5 m 2,15,-1
 230 -2 l 2,16,17
 190 -2 190 -2 164 18 c 1,18,19
 164 94 164 94 165 137 c 2,20,-1
 193 939 l 1,21,-1
 199 1027 l 1,22,-1
 599 1029 l 2,23,24
 683 1029 683 1029 733 1018 c 1,25,-1
 733 921 l 1,26,-1
 731 818 l 1,27,-1
 1082 818 l 2,28,29
 1436 818 1436 818 1588 697 c 0,30,31
 1718 594 1718 594 1718 399 c 0,32,33
 1718 148 1718 148 1444 52 c 0,34,35
 1283 -4 1283 -4 1046 -5 c 2,15,-1
EndSplineSet
EndChar

StartChar: afii10095
Encoding: 1101 1101 490
Width: 1622
Flags: W
LayerCount: 2
Fore
SplineSet
157 1027 m 1,0,1
 370 1070 370 1070 559 1070 c 128,-1,2
 748 1070 748 1070 873.5 1053 c 128,-1,3
 999 1036 999 1036 1116.5 995.5 c 128,-1,4
 1234 955 1234 955 1319.5 894 c 128,-1,5
 1405 833 1405 833 1456.5 739 c 0,6,7
 1508 644 1508 644 1508 534 c 0,8,9
 1508 316 1508 316 1378 190 c 0,10,11
 1145 -38 1145 -38 618 -37 c 0,12,13
 381 -37 381 -37 139 14 c 1,14,-1
 164 305 l 1,15,16
 366 270 366 270 519.5 270 c 128,-1,17
 673 270 673 270 758.5 306.5 c 128,-1,18
 844 343 844 343 845 414 c 1,19,-1
 278 414 l 1,20,-1
 278 616 l 1,21,-1
 852 616 l 1,22,23
 838 694 838 694 743.5 735.5 c 128,-1,24
 649 777 649 777 505 777 c 128,-1,25
 361 777 361 777 204 752 c 1,26,-1
 157 1027 l 1,0,1
EndSplineSet
EndChar

StartChar: afii10096
Encoding: 1102 1102 491
Width: 2384
Flags: W
LayerCount: 2
Fore
SplineSet
1569 -37 m 0,0,1
 1001 -37 1001 -37 897 314 c 1,2,-1
 706 314 l 1,3,-1
 685 0 l 1,4,-1
 131 2 l 1,5,6
 131 102 131 102 155 684 c 1,7,-1
 175 1030 l 1,8,-1
 729 1022 l 1,9,-1
 713 668 l 1,10,-1
 894 668 l 1,11,12
 998 1071 998 1071 1622 1071 c 0,13,14
 1921 1071 1921 1071 2095.5 927.5 c 128,-1,15
 2270 784 2270 784 2270 526 c 0,16,17
 2270 80 2270 80 1850 -10 c 0,18,19
 1725 -36 1725 -36 1569 -37 c 0,0,1
1771 522 m 0,20,21
 1771 773 1771 773 1579 773 c 0,22,23
 1430 772 1430 772 1394 598 c 0,24,25
 1384 552 1384 552 1385 500 c 0,26,27
 1385 368 1385 368 1430.5 302.5 c 128,-1,28
 1476 237 1476 237 1585.5 237 c 128,-1,29
 1695 237 1695 237 1733 315.5 c 128,-1,30
 1771 394 1771 394 1771 522 c 0,20,21
EndSplineSet
EndChar

StartChar: afii10097
Encoding: 1103 1103 492
Width: 1790
Flags: W
LayerCount: 2
Fore
SplineSet
1085 792 m 1,0,1
 983 797 983 797 901 797 c 0,2,3
 710 797 710 797 704 713 c 0,4,5
 704 708 704 708 704 703 c 0,6,7
 704 647 704 647 744.5 621 c 128,-1,8
 785 595 785 595 884.5 591 c 128,-1,9
 984 587 984 587 1085 587 c 1,10,-1
 1085 792 l 1,0,1
753 -5 m 1,11,12
 697 -5 697 -5 436.5 -1.5 c 128,-1,13
 176 2 176 2 157 2 c 1,14,-1
 389 435 l 1,15,16
 274 472 274 472 208 543 c 128,-1,17
 142 614 142 614 142 709 c 0,18,19
 142 894 142 894 316 964 c 0,20,21
 456 1020 456 1020 700 1026 c 0,22,23
 764 1028 764 1028 855 1028 c 1,24,-1
 1655 1019 l 1,25,-1
 1643 445 l 1,26,27
 1637 109 1637 109 1631 -9 c 1,28,-1
 1085 0 l 2,29,30
 1080 0 1080 0 1080 6 c 2,31,-1
 1085 357 l 1,32,-1
 890 361 l 1,33,34
 762 23 762 23 753 -5 c 1,11,12
EndSplineSet
EndChar

StartChar: afii10099
Encoding: 1106 1106 493
Width: 1931
Flags: W
LayerCount: 2
Fore
SplineSet
163 1464 m 1,0,-1
 752 1464 l 1,1,-1
 752 1368 l 1,2,-1
 754 1368 l 1,3,4
 1041 1372 1041 1372 1171 1372 c 1,5,6
 1171 1353 1171 1353 1161 1246 c 2,7,-1
 1152 1150 l 1,8,-1
 751 1150 l 1,9,-1
 748 983 l 1,10,11
 1145 984 l 1,12,13
 1446 971 1446 971 1619 866 c 128,-1,14
 1792 761 1792 761 1792 527 c 1,15,-1
 1790 143 l 1,16,17
 1778 -207 1778 -207 1645 -352 c 0,18,19
 1556 -449 1556 -449 1427.5 -482.5 c 128,-1,20
 1299 -516 1299 -516 1115 -516 c 0,21,22
 1064 -516 1064 -516 915 -507 c 1,23,-1
 928 -191 l 1,24,25
 993 -191 993 -191 1035.5 -180.5 c 128,-1,26
 1078 -170 1078 -170 1116 -139 c 0,27,28
 1191 -79 1191 -79 1201 116 c 1,29,-1
 1206 450 l 1,30,31
 1206 631 1206 631 960 631 c 0,32,33
 780 631 780 631 754 626 c 1,34,-1
 738 1 l 1,35,-1
 261 -7 l 1,36,-1
 131 -7 l 1,37,-1
 131 96 l 1,38,-1
 156 1150 l 1,39,-1
 29 1150 l 1,40,-1
 36 1366 l 1,41,-1
 161 1366 l 1,42,-1
 163 1464 l 1,0,-1
EndSplineSet
EndChar

StartChar: afii10101
Encoding: 1108 1108 495
Width: 1622
Flags: W
LayerCount: 2
Fore
SplineSet
1465 1027 m 1,0,-1
 1418 752 l 1,1,2
 1261 777 1261 777 1117 777 c 128,-1,3
 973 777 973 777 878.5 735.5 c 128,-1,4
 784 694 784 694 770 616 c 1,5,-1
 1344 616 l 1,6,-1
 1344 414 l 1,7,-1
 777 414 l 1,8,9
 778 344 778 344 864 308 c 128,-1,10
 950 272 950 272 1103 272 c 128,-1,11
 1256 272 1256 272 1458 307 c 1,12,-1
 1483 16 l 1,13,14
 1241 -35 1241 -35 1004 -35 c 0,15,16
 476 -34 476 -34 244 192 c 0,17,18
 114 319 114 319 114 528 c 0,19,20
 114 646 114 646 166 740 c 0,21,22
 260 913 260 913 492.5 993.5 c 128,-1,23
 725 1074 725 1074 986.5 1074 c 128,-1,24
 1248 1074 1248 1074 1465 1027 c 1,0,-1
EndSplineSet
EndChar

StartChar: afii10106
Encoding: 1113 1113 500
Width: 2725
Flags: W
LayerCount: 2
Fore
SplineSet
54 -12 m 1,0,-1
 57 308 l 1,1,2
 134 304 134 304 182 304 c 0,3,4
 289 304 289 304 358.5 360 c 128,-1,5
 428 416 428 416 438 611 c 1,6,-1
 452 964 l 1,7,-1
 452 1023 l 1,8,-1
 1788 1027 l 1,9,-1
 1788 921 l 1,10,-1
 1786 827 l 1,11,-1
 2037 827 l 2,12,13
 2383 828 2383 828 2528 700 c 0,14,15
 2643 599 2643 599 2643 409 c 0,16,17
 2643 181 2643 181 2477 88 c 128,-1,18
 2311 -5 2311 -5 2033 -5 c 1,19,-1
 1219 -2 l 1,20,-1
 1239 694 l 1,21,-1
 964 694 l 1,22,-1
 959 530 l 1,23,24
 943 223 943 223 802 101 c 128,-1,25
 661 -21 661 -21 352 -21 c 0,26,27
 202 -21 202 -21 54 -12 c 1,0,-1
1857 250 m 1,28,29
 2016 250 2016 250 2060.5 291 c 128,-1,30
 2105 332 2105 332 2105 397.5 c 128,-1,31
 2105 463 2105 463 2096.5 480 c 128,-1,32
 2088 497 2088 497 2084 506 c 128,-1,33
 2080 515 2080 515 2067.5 522 c 128,-1,34
 2055 529 2055 529 2049 533.5 c 128,-1,35
 2043 538 2043 538 2024.5 540.5 c 128,-1,36
 2006 543 2006 543 1998 545.5 c 128,-1,37
 1990 548 1990 548 1966 548 c 2,38,-1
 1781 548 l 1,39,-1
 1777 252 l 1,40,-1
 1857 250 l 1,28,29
EndSplineSet
EndChar

StartChar: afii10107
Encoding: 1114 1114 501
Width: 2619
Flags: W
LayerCount: 2
Fore
SplineSet
1741 250 m 1,0,1
 1858 250 1858 250 1903.5 268.5 c 128,-1,2
 1949 287 1949 287 1969.5 322 c 128,-1,3
 1990 357 1990 357 1990 382 c 128,-1,4
 1990 407 1990 407 1988.5 447.5 c 128,-1,5
 1987 488 1987 488 1957 518 c 128,-1,6
 1927 548 1927 548 1823 548 c 2,7,-1
 1655 548 l 1,8,-1
 1651 252 l 1,9,-1
 1741 250 l 1,0,1
1911 827 m 2,10,11
 2547 827 2547 827 2547 399 c 0,12,13
 2547 148 2547 148 2273 52 c 0,14,15
 2112 -4 2112 -4 1875 -5 c 2,16,-1
 1094 -2 l 1,17,-1
 1103 314 l 1,18,-1
 728 314 l 1,19,-1
 718 0 l 1,20,-1
 131 2 l 1,21,-1
 158 1030 l 1,22,-1
 747 1022 l 1,23,-1
 736 668 l 1,24,-1
 1114 668 l 1,25,-1
 1122 939 l 1,26,-1
 1128 1027 l 1,27,-1
 1662 1029 l 1,28,-1
 1662 921 l 1,29,-1
 1660 827 l 1,30,-1
 1911 827 l 2,10,11
EndSplineSet
EndChar

StartChar: afii10108
Encoding: 1115 1115 502
Width: 1924
Flags: W
LayerCount: 2
Fore
SplineSet
1683 2 m 1,0,-1
 1198 -1 l 1,1,-1
 1206 468 l 1,2,3
 1206 649 1206 649 960 649 c 0,4,5
 872 649 872 649 754 626 c 1,6,-1
 738 1 l 1,7,-1
 261 -7 l 1,8,-1
 131 -7 l 1,9,-1
 131 96 l 1,10,-1
 158 1150 l 1,11,-1
 29 1150 l 1,12,-1
 36 1366 l 1,13,-1
 163 1366 l 1,14,-1
 166 1464 l 1,15,-1
 755 1464 l 1,16,-1
 755 1368 l 1,17,18
 1085 1372 1085 1372 1123 1372 c 2,19,-1
 1171 1372 l 1,20,21
 1171 1363 1171 1363 1161 1246 c 2,22,-1
 1152 1150 l 1,23,-1
 751 1150 l 1,24,-1
 747 961 l 1,25,26
 944 1002 944 1002 1145 1002 c 0,27,28
 1452 1002 1452 1002 1629 881.5 c 128,-1,29
 1806 761 1806 761 1806 545 c 1,30,-1
 1794 11 l 1,31,32
 1768 8 1768 8 1683 2 c 1,0,-1
EndSplineSet
EndChar

StartChar: afii10145
Encoding: 1039 1039 505
Width: 2421
Flags: W
LayerCount: 2
Fore
SplineSet
757 1438 m 1,0,-1
 1002 1434 l 1,1,-1
 996 1302 l 1,2,3
 966 674 966 674 950 461 c 1,4,-1
 1484 461 l 1,5,-1
 1548 1431 l 1,6,-1
 2108 1426 l 1,7,-1
 2238 1420 l 1,8,-1
 2220 947 l 1,9,-1
 2174 -7 l 1,10,-1
 2162 -21 l 1,11,12
 2110 -29 2110 -29 1852 -39.5 c 128,-1,13
 1594 -50 1594 -50 1495 -50 c 1,14,-1
 1474 -401 l 1,15,16
 1427 -404 1427 -404 1242.5 -408 c 128,-1,17
 1058 -412 1058 -412 989.5 -414 c 128,-1,18
 921 -416 921 -416 888 -410 c 1,19,-1
 913 -50 l 1,20,21
 686 -51 686 -51 251 -51 c 2,22,-1
 227 -51 l 1,23,24
 227 -47 227 -47 227 0 c 128,-1,25
 227 47 227 47 249 610.5 c 128,-1,26
 271 1174 271 1174 284 1431 c 1,27,-1
 757 1438 l 1,0,-1
EndSplineSet
EndChar

StartChar: afii10193
Encoding: 1119 1119 506
Width: 1897
Flags: W
LayerCount: 2
Fore
SplineSet
1155 362 m 1,0,1
 1169 726 1169 726 1169 951 c 2,2,-1
 1169 1009 l 1,3,4
 1236 1016 1236 1016 1296 1016 c 2,5,-1
 1766 1014 l 1,6,7
 1766 988 1766 988 1752.5 642 c 128,-1,8
 1739 296 1739 296 1730 1 c 1,9,-1
 1366 -3 l 1,10,-1
 1202 -3 l 1,11,12
 1195 -252 1195 -252 1195 -303 c 128,-1,13
 1195 -354 1195 -354 1196 -361 c 1,14,-1
 709 -366 l 2,15,16
 643 -366 643 -366 610 -356 c 1,17,18
 610 -312 610 -312 624 -2 c 1,19,-1
 131 -2 l 1,20,21
 131 274 131 274 151.5 615.5 c 128,-1,22
 172 957 172 957 175 1007 c 1,23,-1
 769 1010 l 1,24,25
 762 875 762 875 741 362 c 1,26,-1
 1155 362 l 1,0,1
EndSplineSet
EndChar

StartChar: mu
Encoding: 956 956 508
Width: 1277
Flags: W
LayerCount: 2
Fore
SplineSet
678 -420 m 1,0,-1
 118 -466 l 1,1,2
 118 478 l 1,3,4
 120 612 120 612 130 774 c 0,5,6
 140 936 140 936 141 987 c 1,7,8
 402 1031 402 1031 598 1031 c 0,9,10
 658 1031 658 1031 744 1023 c 1,11,12
 720 562 720 562 720 507 c 0,13,14
 720 390 720 390 770 317.5 c 128,-1,15
 820 245 820 245 922 245 c 0,16,17
 1058 245 1058 245 1114 347 c 0,18,19
 1144 402 1144 402 1162 458 c 0,20,21
 1200 575 1200 575 1200 997 c 1,22,23
 1325 1006 1325 1006 1769 1031 c 1,24,25
 1770 992 1770 992 1770 918 c 1,26,-1
 1721 30 l 1,27,28
 1611 11 1611 11 1406 -17 c 1,29,-1
 1310 190 l 1,30,31
 1211 77 1211 77 1060.5 19.5 c 128,-1,32
 910 -38 910 -38 746 -38 c 0,33,34
 711 -38 711 -38 694 -37 c 1,35,-1
 678 -420 l 1,0,-1
EndSplineSet
EndChar

StartChar: uni00B9
Encoding: 185 185 509
Width: 749
Flags: W
LayerCount: 2
Fore
SplineSet
602 562 m 1,0,-1
 247 551 l 1,1,2
 208 551 208 551 197 573 c 1,3,4
 195 568 l 1,5,-1
 195 580 l 2,6,7
 195 577 195 577 197 573 c 1,8,9
 200 587 200 587 226.5 860.5 c 128,-1,10
 253 1134 253 1134 260 1196 c 1,11,-1
 97 1169 l 1,12,-1
 77 1349 l 1,13,-1
 654 1428 l 2,14,15
 660 1428 660 1428 660 1421 c 2,16,-1
 660 1420 l 1,17,18
 667 1419 667 1419 667 1406 c 2,19,-1
 602 562 l 1,0,-1
EndSplineSet
EndChar

StartChar: uni00B3
Encoding: 179 179 510
Width: 845
Flags: W
LayerCount: 2
Fore
SplineSet
765 831 m 0,0,1
 765 704 765 704 665.5 622.5 c 128,-1,2
 566 541 566 541 383 541 c 0,3,4
 302 541 302 541 221.5 559.5 c 128,-1,5
 141 578 141 578 91 604 c 1,6,-1
 91 816 l 1,7,8
 193 785 193 785 248 785 c 128,-1,9
 303 785 303 785 323 810 c 128,-1,10
 343 835 343 835 343 867.5 c 128,-1,11
 343 900 343 900 324.5 922.5 c 128,-1,12
 306 945 306 945 272 945 c 2,13,-1
 158 945 l 1,14,-1
 174 1124 l 1,15,-1
 248 1124 l 2,16,17
 290 1124 290 1124 312.5 1148 c 128,-1,18
 335 1172 335 1172 335 1205.5 c 128,-1,19
 335 1239 335 1239 315 1264.5 c 128,-1,20
 295 1290 295 1290 262 1290 c 0,21,22
 183 1290 183 1290 86 1259 c 1,23,-1
 86 1446 l 1,24,25
 240 1485 240 1485 364 1485 c 128,-1,26
 488 1485 488 1485 568.5 1462 c 128,-1,27
 649 1439 649 1439 699.5 1384.5 c 128,-1,28
 750 1330 750 1330 750 1250 c 0,29,30
 750 1136 750 1136 616 1049 c 1,31,32
 765 983 765 983 765 831 c 0,0,1
EndSplineSet
EndChar

StartChar: uni2074
Encoding: 8308 8308 511
Width: 1261
Flags: W
LayerCount: 2
Fore
SplineSet
448 959 m 1,0,-1
 659 959 l 1,1,-1
 709 1391 l 1,2,-1
 448 959 l 1,0,-1
219 753 m 2,3,4
 68 754 68 754 68 772 c 0,5,6
 68 782 68 782 77 790 c 1,7,-1
 581 1523 l 2,8,9
 594 1541 594 1541 644 1541 c 2,10,-1
 1056 1541 l 2,11,12
 1074 1541 1074 1541 1074 1523 c 1,13,-1
 1029 968 l 1,14,-1
 1181 971 l 1,15,-1
 1173 757 l 1,16,-1
 1000 757 l 1,17,-1
 983 592 l 1,18,19
 983 578 983 578 967 573.5 c 128,-1,20
 951 569 951 569 824 564 c 128,-1,21
 697 559 697 559 666 559 c 128,-1,22
 635 559 635 559 626 564 c 128,-1,23
 617 569 617 569 618 582 c 2,24,-1
 634 755 l 1,25,-1
 219 753 l 2,3,4
EndSplineSet
EndChar

StartChar: uni2206
Encoding: 8710 8710 512
Width: 1325
Flags: W
LayerCount: 2
Fore
SplineSet
673 876 m 1,0,-1
 503 245 l 1,1,-1
 818 245 l 1,2,-1
 673 876 l 1,0,-1
111 130 m 2,3,4
 131 194 131 194 284 634.5 c 128,-1,5
 437 1075 437 1075 495 1235 c 1,6,-1
 826 1233 l 1,7,8
 1046 668 1046 668 1243 61 c 1,9,-1
 1262 3 l 1,10,11
 700 3 700 3 67 -6 c 1,12,-1
 111 130 l 2,3,4
EndSplineSet
EndChar

StartChar: glyph513
Encoding: 65539 -1 513
Width: 2358
Flags: W
LayerCount: 2
Fore
SplineSet
1648 819 m 1,0,1
 1695 819 1695 819 1695 807.5 c 128,-1,2
 1695 796 1695 796 1682 782 c 2,3,-1
 1547 626 l 1,4,5
 1529 615 1529 615 1487 611 c 1,6,7
 1078 607 1078 607 925.5 607 c 128,-1,8
 773 607 773 607 773 640 c 0,9,10
 773 654 773 654 816 697 c 1,11,-1
 918 809 l 2,12,13
 1130 1042 1130 1042 1130 1161 c 0,14,15
 1130 1242 1130 1242 1032 1242 c 0,16,17
 964 1242 964 1242 863 1199 c 2,18,-1
 835 1187 l 1,19,-1
 815 1200 l 1,20,21
 865 1361 865 1361 877 1383 c 1,22,23
 926 1408 926 1408 1047 1431.5 c 128,-1,24
 1168 1455 1168 1455 1302.5 1455 c 128,-1,25
 1437 1455 1437 1455 1543 1406.5 c 128,-1,26
 1649 1358 1649 1358 1649 1236 c 0,27,28
 1649 1176 1649 1176 1593 1119 c 1,29,30
 1569 1086 1569 1086 1423 942 c 2,31,-1
 1281 801 l 1,32,-1
 1648 819 l 1,0,1
EndSplineSet
EndChar
